<?xml version="1.0" encoding="utf-8"?>
<!-- Generator: Adobe Illustrator 27.5.0, SVG Export Plug-In . SVG Version: 6.00 Build 0)  -->
<svg version="1.1" id="Layer_1" xmlns="http://www.w3.org/2000/svg" xmlns:xlink="http://www.w3.org/1999/xlink" x="0px" y="0px"
	 viewBox="0 0 4000 4000" style="enable-background:new 0 0 4000 4000;" xml:space="preserve">
<style type="text/css">
	.st0{fill:#FFFFFF;}
	.st1{opacity:0.35;}
	.st2{fill:#371A45;}
	.st3{fill:#22A7F0;}
	.st4{fill:#848484;}
	.st5{opacity:0.7;}
	.st6{opacity:0.5;}
	.st7{fill:#111A28;}
	.st8{fill:#E2E2E2;}
	.st9{opacity:0.3;}
	.st10{fill:#999999;}
	.st11{fill:#945CC6;}
	.st12{fill:#B8C5D3;}
	.st13{fill:#102770;}
	.st14{fill:#7A7A7A;}
	.st15{fill:#00C9FF;}
	.st16{fill:#FFCE00;}
	.st17{fill:#FFF5A4;}
</style>
<g>
	<g>
		<path class="st0" d="M1831.71,2697.48l101.69,121.11l40.9,48.74c150.96-97.41,204.64-217.63,201.42-324.14
			c-1.53-51.57-16.36-99.93-39.95-140.95c-76.49-133.19-216.68-198.44-276.39-89.11c-64.34,117.86,20.68,174.55,45.15,211.06
			C1938.94,2575.49,1922.2,2668.27,1831.71,2697.48z"/>
	</g>
	<g class="st1">
		<path class="st2" d="M1933.4,2818.58l40.9,48.74c150.96-97.41,204.64-217.63,201.42-324.14
			C2151.57,2620.29,2086.47,2768.05,1933.4,2818.58z"/>
	</g>
	<g>
		<path class="st2" d="M1974.32,2882.61c-5.02,0-9.94-2.47-12.86-7c-4.58-7.09-2.54-16.56,4.56-21.14
			c221.85-143.12,222.97-328.96,156.51-444.62c-46.32-80.62-118.9-136.64-176.86-136.64c-0.33,0-0.64,0-0.97,0.01
			c-30.76,0.33-54.95,16.23-71.89,47.25c-48.01,87.93-5.23,136.8,26,172.49c7,7.99,13.6,15.54,18.42,22.73
			c20.24,30.2,24.77,72.15,11.81,109.5c-14.35,41.36-47.25,72.19-92.62,86.83c-8.04,2.6-16.65-1.82-19.25-9.86
			c-2.59-8.04,1.82-16.66,9.86-19.25c36.02-11.62,61.99-35.68,73.12-67.75c9.88-28.46,6.69-60.05-8.32-82.44
			c-3.73-5.56-9.43-12.07-16.03-19.62c-32.94-37.63-88.08-100.62-29.83-207.29c22.32-40.87,56.34-62.71,98.4-63.17
			c69.7-0.71,152.01,60.32,204.68,151.98c41.49,72.21,52.82,156.37,31.91,236.97c-24.59,94.77-93.18,180.73-198.36,248.58
			C1980.03,2881.82,1977.16,2882.61,1974.32,2882.61z"/>
	</g>
	<g>
		<path class="st2" d="M2056.04,2677.11c-2.52,0-5.04-0.04-7.56-0.11c-57.53-1.73-107.3-22.68-140.14-58.99
			c-4.69-5.18-4.28-13.17,0.89-17.86c5.18-4.69,13.17-4.29,17.86,0.9c38.02,42.03,92.85,49.79,122.15,50.67
			c49.44,1.51,91.82-13.09,106.6-27.57c4.99-4.89,12.99-4.81,17.88,0.18c4.89,4.99,4.81,13-0.18,17.88
			C2152.17,2663.15,2104.63,2677.11,2056.04,2677.11z"/>
	</g>
	<g>
		<path class="st0" d="M1231,2806.17c-50.98,73.52-32.52,336.65,31.31,475.91c63.84,139.26,322.87,65.05,467.38,11.73
			c144.52-53.32,34.05-383.43,2.69-471.27C1683.4,2685.39,1306.54,2697.23,1231,2806.17z"/>
	</g>
	<g class="st1">
		<path class="st2" d="M1729.7,3293.82c-144.51,53.32-403.54,127.51-467.4-11.74c-8.34-18.24-15.94-38.59-22.66-60.37
			c50.9,18.29,97.71-28.65,91.58-69.69c-37.85-253.32,20.71-374.87,53.37-420.67c137.55-25.33,315.22-0.06,347.78,91.22
			C1763.76,2910.38,1874.22,3240.5,1729.7,3293.82z"/>
	</g>
	<g>
		<path class="st2" d="M1425.85,3377.38c-81.2,0-147.59-23.81-177.43-88.92c-67.51-147.28-83.76-413.43-29.98-491l0,0
			c51.58-74.39,218.59-102.56,343.75-85.99c99.34,13.15,164.9,50.77,184.6,105.94c57.32,160.51,132.01,437.71-11.79,490.76
			C1634.79,3345.13,1520.3,3377.38,1425.85,3377.38z M1243.57,2814.89c-47.23,68.11-28.92,326.52,32.65,460.83
			c57.69,125.85,305.57,56.37,448.19,3.76c127.01-46.86,27.2-357.64-6.42-451.78c-15.42-43.19-73.68-74.5-159.82-85.9
			C1427.13,2724.42,1283.07,2757.91,1243.57,2814.89L1243.57,2814.89z"/>
	</g>
	<g>
		<path class="st0" d="M1326.06,3043.85l-73.43-4.26c-16.6-0.96-30.33,12.82-29.2,29.41c3.87,57.07,19.15,172.94,79.43,177.63
			c73.06,5.69,71.17-75.78,48.62-181.06C1348.89,3053.44,1338.44,3044.57,1326.06,3043.85z"/>
	</g>
	<g class="st1">
		<path class="st2" d="M1351.3,3065.45c22.79,105.23,24.87,186.71-48.2,181.17c-30-2.24-48.93-32.1-60.83-68.54
			c8.81,8.63,19.15,14.14,31.36,15.05c65.41,4.93,70.63-59.87,54.57-149.05C1339.55,3045.59,1348.88,3054.1,1351.3,3065.45z"/>
	</g>
	<g>
		<path class="st2" d="M1309.9,3259.53c-2.52,0-5.1-0.1-7.75-0.3c-68.44-5.17-86.7-120.74-91.49-189.18
			c-0.81-11.5,3.38-22.81,11.48-31.03c8.12-8.24,19.36-12.61,30.97-11.95l73.44,4.09c18.05,1.01,33.32,14.01,37.13,31.61
			c20.74,95.83,19.17,148.69-5.28,176.77C1346.82,3252.82,1330.53,3259.53,1309.9,3259.53z M1250.82,3052.29
			c-4.05,0-7.81,1.57-10.68,4.48c-3.05,3.1-4.57,7.18-4.26,11.51c7.08,101.08,32.57,163.04,68.17,165.73
			c16.17,1.2,27.71-2.4,35.27-11.08c26.55-30.49,6.29-124.06-0.36-154.81c-1.41-6.52-7.09-11.34-13.82-11.71l-73.44-4.09
			C1251.41,3052.3,1251.11,3052.29,1250.82,3052.29z"/>
	</g>
	<g>
		<path class="st2" d="M1220.61,2815.73c9.11,0.94,17.86,2.06,26.73,3.26c8.84,1.21,17.65,2.53,26.43,3.97
			c17.56,2.9,35.04,6.27,52.15,10.64c-17.64,0.66-35.09,2.37-52.46,4.53c-8.69,1.1-17.35,2.3-25.98,3.62
			c-8.6,1.32-17.32,2.74-25.67,4.3c-8.32,1.56-16.33-3.93-17.89-12.26c-1.56-8.32,3.93-16.33,12.26-17.89
			c1.46-0.27,2.91-0.33,4.32-0.19L1220.61,2815.73z"/>
	</g>
	<g>
		<path class="st0" d="M1881.9,2731.82l-35.55-106.04C1855.97,2663.18,1868.17,2698.63,1881.9,2731.82z"/>
	</g>
	<g>
		<path class="st0" d="M2276.32,3417.9c0,0-71.5-49.78-149.71-82.75c-51.28-21.63-105.44-36.03-144.23-24.44
			c0,0-306.32,199.42-483.05-187.31c-56.06-122.67-71.86-215.79-61.57-286.41c1.44-9.93,3.41-19.38,5.85-28.43
			c2.54-9.56,5.67-18.63,9.26-27.26c9.86-23.76,23.37-44.07,39.56-61.43c12.3-13.15,26.14-24.61,41.07-34.59
			c138.47-92.35,373.69-57.27,373.69-57.27c2.5,17.55,5.39,34.54,8.62,50.95c6.09,31.15,13.32,60.22,21.37,87.27
			c2.33,7.8,4.69,15.41,7.15,22.85c28.73,87.76,65.4,152.5,95.69,196.01c32.57,46.81,57.77,69.1,57.77,69.1
			c212.52-43.88,258.41,134.45,258.41,134.45s150.64-102.32,152.61,39.31C2510.28,3332.74,2361.16,3470.59,2276.32,3417.9z"/>
	</g>
	<g class="st1">
		<path class="st2" d="M2276.32,3417.9c0,0-195.97-136.47-293.95-107.19c0,0-306.32,199.42-483.05-187.31
			c-56.06-122.67-71.86-215.79-61.57-286.41c2.97-20.4,8.11-38.91,15.11-55.69c2.76-6.65,5.78-13,9.08-19.1
			c-1.24,5.66-2.31,11.46-3.17,17.43c-10.29,70.62,5.51,163.74,61.57,286.41c176.73,386.72,472.59,149.65,472.59,149.65
			c166.66-54.14,225.3,122.93,294.35,154.62c69.05,31.69,174.93-38.9,219.73-120.2C2489.94,3350.92,2355.28,3466.93,2276.32,3417.9z
			"/>
	</g>
	<g>
		<path class="st2" d="M1958.28,2810.32c10.16,21.33,19.82,42.69,30.78,63.38l8.1,15.55c2.72,5.16,5.73,10.18,8.49,15.31
			c5.46,10.31,11.73,20.14,17.53,30.22c12.22,19.8,25.2,39.05,38.9,57.69c6.86,9.31,14.05,18.36,21.46,27.15
			c3.62,4.48,7.42,8.76,11.22,13.02c3.78,4.13,7.85,8.54,11.39,12.06l-10.93-2.91l0,0c27.21-5.63,55.35-8.35,83.63-6.54
			c28.22,1.65,56.64,8.49,82.44,21.26c25.94,12.54,48.64,31.36,66.7,53.45c9.05,11.06,16.99,22.97,23.72,35.51
			c3.43,6.24,6.47,12.68,9.28,19.25c1.41,3.28,2.72,6.61,3.95,10.01c1.27,3.48,2.34,6.62,3.48,10.76l-19.35-7.31
			c16.43-10.68,32.88-19.29,50.89-26.46c8.97-3.52,18.26-6.54,28.01-8.64c9.75-2.08,20-3.31,30.76-2.52
			c10.67,0.77,22.13,3.93,31.83,10.65c9.77,6.63,16.82,16.36,21.19,26.15c4.47,9.85,6.93,19.98,8.13,29.83l0.91,7.41l0.36,7.32
			c0.38,4.81,0.21,9.88,0.01,14.95c-1.19,20.15-6.86,39.2-14.38,56.99c-7.78,17.71-17.67,34.2-28.96,49.54
			c-11.29,15.35-24.07,29.52-38.16,42.33c-14.08,12.81-29.41,24.37-46.16,34c-16.86,9.36-35.06,17.23-55.01,20.59
			c-9.89,1.9-20.31,2.09-30.67,1.19c-10.44-0.98-20.69-4.11-30.39-8.66l-7.22-3.93c-0.55-0.27-1.28-0.75-1.8-1.13l-1.36-0.93
			l-2.76-1.87l-11.23-7.38c-7.54-4.87-15.17-9.64-22.85-14.33c-15.38-9.33-30.99-18.3-46.81-26.79
			c-31.66-16.91-64.24-32.17-97.78-43.33c-16.75-5.53-33.77-9.97-50.74-12.33c-16.93-2.46-33.87-2.13-48.87,1.99l-0.52,0.14
			c-6.73,1.85-13.69-2.11-15.54-8.84c-1.85-6.73,2.08-13.68,8.81-15.53c20.18-5.59,40.46-5.51,59.5-2.82
			c19.13,2.66,37.48,7.51,55.3,13.38c35.61,11.87,69.22,27.67,101.79,45.05c16.27,8.73,32.26,17.91,48.01,27.47
			c7.87,4.8,15.68,9.69,23.44,14.69l11.6,7.62l2.9,1.96l1.46,1c0.4,0.29,0.62,0.43,1.1,0.66l4.8,2.56c6.76,3.1,14.13,5.5,21.87,6.18
			c7.74,0.62,15.71,0.61,23.73-0.97c16.05-2.66,31.87-9.36,46.75-17.64c29.61-17.22,55.91-41.44,76.5-69.38
			c10.29-13.98,19.22-28.92,26.1-44.57c6.64-15.68,11.41-32.11,12.34-48.38c0.13-4.04,0.32-8.06-0.03-12.35l-0.3-6.33l-0.77-6.14
			c-0.96-8.2-3-15.96-6.05-22.67c-3.02-6.76-7.2-12.26-12.56-15.89c-5.33-3.68-11.99-5.7-19.42-6.26
			c-14.96-1.07-31.75,3.26-47.61,9.49c-15.85,6.24-31.82,14.66-45.91,23.83l-14.66,9.54l-4.69-16.85c-0.66-2.35-1.71-5.6-2.76-8.44
			c-1.06-2.93-2.21-5.86-3.46-8.76c-2.48-5.8-5.19-11.55-8.25-17.1c-6-11.18-13.06-21.77-21.06-31.53
			c-15.98-19.51-35.71-35.86-58.31-46.76c-22.48-11.11-47.43-17.21-72.89-18.7c-25.47-1.64-51.4,0.79-76.88,6.07l0,0l-6.08,1.28
			l-4.86-4.19c-5.19-4.49-9.38-8.58-13.73-13.07c-4.25-4.44-8.48-8.88-12.47-13.47c-4.1-4.53-7.92-9.27-11.7-14.02
			c-3.87-4.7-7.49-9.57-11.14-14.41c-14.61-19.38-27.46-39.92-39.39-60.91c-5.72-10.62-11.54-21.19-16.62-32.12
			c-5.38-10.78-10.12-21.85-14.72-32.96c-2.35-5.53-4.51-11.14-6.52-16.8l-6.21-16.9c-2.07-5.63-3.59-11.46-5.41-17.16
			c-1.77-5.73-3.48-11.46-5.1-17.22c-0.95-3.37,1.02-6.87,4.39-7.81c3.02-0.85,6.13,0.64,7.43,3.37L1958.28,2810.32z"/>
	</g>
	<g>
		<path class="st0" d="M2236.88,3594.65c-26.45,66.5-119.21,108.3-200.59,70.45c-53.78-25.01-86.3-69.89-104.59-107.76
			c-21.36-44.29-35.99-89.64-75.02-110.28c-44.51-23.52-125.72,57.39-276.95-28.65c-47.17-26.81-102.02-84.17-143.19-169.12
			c-13.29-27.39-25.14-57.63-34.84-90.68c-21-71.37-32-155.73-25.78-252.09c2.72-41.8,8.68-85.88,18.48-132.12
			c4.53-21.47,9.91-43.39,16.17-65.78c8.41-30.07,18.39-61,30.15-92.72l38.58,77.62l13.12,26.36l9.45,18.96l59.04,118.76
			l90.24,181.51l105.35,211.87l7.3,14.69c11.06-11.22,23.05-21.46,35.76-30.6c38.72-27.78,84.24-45.28,132.01-49.13
			c1.02-0.09,2-0.16,3.01-0.22c22.35-1.52,45.51-0.15,67.54,6.28c62.83,18.35,111.97,85.35,124.51,143.16
			c3.55,16.27,4.2,31.78,1.43,45.29c-4.99,24.23-10.02,50.92-10.02,50.92C2135.72,3440.22,2267.08,3518.71,2236.88,3594.65z"/>
	</g>
	<g class="st1">
		<path class="st2" d="M2236.88,3594.65c-26.45,66.5-119.21,108.3-200.59,70.45c-53.78-25.01-86.3-69.89-104.59-107.76
			c-21.36-44.29-35.99-89.64-75.02-110.28c-44.51-23.52-125.72,57.39-276.95-28.65c-47.17-26.81-102.02-84.17-143.19-169.12
			c-1.85-3.83-3.69-7.72-5.49-11.69c-1.41-3.1-2.82-6.23-4.18-9.4c-0.79-1.8-1.58-3.6-2.36-5.43c-2.52-5.96-4.95-12.05-7.36-18.25
			c-0.58-1.52-1.15-3.08-1.72-4.63c-0.67-1.78-1.33-3.52-1.95-5.26c-0.7-1.96-1.4-3.89-2.07-5.84c-2.09-5.9-4.09-11.91-5.99-18.01
			c-1.29-4.01-2.51-8.07-3.72-12.16c-40.04-136.07-43.74-319.25,39.03-542.71l3.57,7.17c-68.69,234.18-40.73,418.97,17.83,545.42
			c82.47,1.2,165.65-40.39,189.15-53.16l-8.67-23.3c-6.9-18.49-2.99-38.47,8.54-52.91c3.77-4.77,8.37-8.91,13.67-12.23
			c3.02-1.92,6.3-3.5,9.79-4.81l236.72-88.11c28.06-10.46,59.55,3.93,69.98,32.01l8.98,24.13c1.58-0.71,3.19-1.3,4.88-1.82
			c25.26-7.73,51.97,6.47,59.67,31.72c7.68,25.07-6.29,51.63-31.26,59.53l4.64,12.43c10.43,28.05-4.01,59.51-32.03,69.94
			l-64.64,24.04l-132.01,49.13l-40.11,14.94c-0.98,0.36-1.96,0.7-2.95,0.97c-27.25,8.45-56.9-5.9-67-32.97l-7.05-18.93
			c-72.53,31.84-131.18,44.97-174.19,49.7c32.77,46.41,68.84,79.29,101.29,97.74c151.23,86.04,232.44,5.14,276.92,28.65
			c39.06,20.64,53.69,66,75.05,110.29c18.29,37.86,50.8,82.75,104.59,107.76c63.62,29.6,134.23,10.5,174.62-31.03
			C2242.22,3572.93,2241.2,3583.82,2236.88,3594.65z"/>
	</g>
	<g>
		<path class="st2" d="M1760.18,3262.12c28.11-38.74,70.53-67.44,117.41-81.88c11.72-3.66,23.72-6.59,35.93-8.36
			c12.19-1.91,24.48-3.08,36.91-3.02c12.43,0,24.99,0.96,37.47,3.2c6.24,1.13,12.47,2.54,18.6,4.39c6.08,2.26,12.3,4.31,18.2,6.9
			c23.53,10.74,43.64,26.64,60.61,44.77c16.93,18.25,30.76,38.98,41.41,61.4c10.52,22.43,18.04,46.87,18,73.48
			c0.36,6.56-0.96,13.44-1.8,20.18l-3.33,17.03l-6.67,33.96l-8.12-16.38c5.26,2.71,9.52,5.25,14.02,7.97
			c4.44,2.68,8.76,5.47,13.06,8.3c8.57,5.69,16.93,11.67,25.09,17.98c16.27,12.66,31.89,26.45,45.73,42.67
			c13.63,16.19,26.31,34.91,31.68,58.21c2.61,11.55,2.89,24.24,0,36.25c-1.41,5.98-3.6,11.9-6.05,16.75l-3.61,7.64
			c-1.36,2.45-2.9,4.78-4.36,7.17c-11.85,18.99-28.08,34.6-46.39,46.45c-18.35,11.85-38.88,20.02-60.23,24.17
			c-21.34,4.16-43.54,4.23-64.94,0c-21.42-4.22-41.91-12.8-60.02-23.81c-36.65-22.37-65.3-55.6-85.02-92.45
			c-9.93-18.69-17.33-36.95-25.79-54.39c-8.3-17.36-17.45-33.56-29.34-45.74c-5.83-6.02-12.76-11.21-19.6-14.71
			c-4.84-2.49-12.15-2.97-20.78-1.99c-17.37,2.14-37.21,7.84-57.45,11.25c-20.32,3.57-41.47,5.49-62.56,4.45
			c-21.1-0.89-42.02-4.6-62.11-10.49c-20.12-5.85-39.43-13.82-57.8-23.23c-4.61-2.34-9.08-4.88-13.62-7.31
			c-4.53-2.43-9.07-5.46-13.59-8.17c-4.46-2.86-8.66-6.01-12.99-9.02c-4.24-3.11-8.23-6.47-12.35-9.7
			c-32.02-26.78-58.5-58.75-80.75-93.07c-22.15-34.42-40.33-71.19-54.29-109.42c-14.09-38.18-24.41-77.65-31.21-117.63
			c-13.66-80.05-13.04-161.83-2.56-241.76l4.28-29.95c1.53-9.96,3.49-19.85,5.12-29.8c1.57-9.97,3.67-19.82,5.9-29.65l3.37-14.74
			c1.07-4.93,2.34-9.8,3.82-14.62c2.74-9.69,5.71-19.32,8.69-28.92c3.13-9.56,6.74-18.97,10.55-28.3c1.93-4.65,3.7-9.35,5.78-13.94
			c2.16-4.56,4.28-9.13,6.65-13.61c4.55-9.02,9.43-17.89,14.87-26.5c1.52-2.41,4.72-3.13,7.13-1.61c1.75,1.11,2.61,3.1,2.37,5.03
			l-0.01,0.09c-5.21,40.17-15.93,77.68-24.76,115.83c-2.55,9.44-4.39,19.04-6.77,28.51c-2.3,9.49-4.72,18.97-6.56,28.55
			c-1.96,9.56-4.14,19.1-5.74,28.73l-4.59,28.92c-10.13,77.33-10.68,156.06,2.4,232.64c6.51,38.25,16.37,75.9,29.75,112.18
			c13.26,36.34,30.5,71.12,51.3,103.46c20.86,32.23,45.69,62,74.61,86.18c3.7,2.88,7.3,5.93,11.06,8.69
			c3.83,2.63,7.56,5.46,11.45,7.95c3.99,2.37,7.7,4.9,11.91,7.16c4.2,2.24,8.36,4.61,12.6,6.76c16.94,8.67,34.49,15.89,52.49,21.12
			c36.04,10.84,73.58,12.17,110.93,5.28c9.39-1.63,18.81-3.7,28.53-5.84c9.74-2.11,19.74-4.39,30.84-5.69
			c5.63-0.54,11.44-1.01,17.88-0.36c6.32,0.63,13.22,1.98,19.63,5.29c10.84,5.53,19.87,12.54,27.89,20.71
			c15.88,16.37,26.17,35.5,34.99,53.79c8.84,18.28,16.45,36.83,25.18,53.19c17.65,32.98,42.81,61.84,74.13,80.94
			c4,2.22,7.85,4.73,12,6.66l6.14,3.07l6.24,2.48c4.14,1.69,8.26,3.47,12.63,4.47c4.32,1.12,8.53,2.71,12.99,3.23
			c17.51,3.46,35.73,3.43,53.33,0c35.1-6.74,68.25-27.36,86.67-56.88c1.12-1.85,2.35-3.65,3.4-5.52l2.72-5.83
			c2.04-4,3.24-7.48,4.12-11.13c1.73-7.3,1.64-14.94-0.09-22.72c-3.48-15.63-13.27-31.15-25.13-45.07
			c-11.93-14.01-26.19-26.68-41.22-38.36c-7.54-5.83-15.33-11.4-23.29-16.69c-3.99-2.62-8.01-5.22-12.06-7.67
			c-3.98-2.42-8.27-4.93-11.84-6.76l-10.29-5.3l2.18-11.08l6.73-34.28l3.34-17.09c0.42-4.77,1.56-9.32,1.2-14.4
			c0.38-9.87-1.78-20.23-4.03-30.41c-1.64-5.04-2.95-10.17-4.86-15.16c-2.12-4.92-3.67-10.05-6.24-14.81
			c-9.14-19.48-21.59-37.61-36.36-53.16c-14.74-15.57-32.1-28.47-51.01-36.59c-18.56-8-39.99-11.26-61.39-11.17
			c-21.54,0.23-43.32,2.84-64.37,8.47c-42.31,11.1-81.72,32.06-118.74,59.29l-0.03,0.02c-2.28,1.67-5.48,1.19-7.15-1.09
			C1758.85,3266.32,1758.91,3263.88,1760.18,3262.12z"/>
	</g>
	<g>
		<path class="st2" d="M1871.38,3469.49c-4.91,0-9.58-2.88-11.64-7.68c-34.9-81.78,1.6-167.35,53.24-215.87
			c46.92-44.08,104.81-57.01,151.09-33.76c6.24,3.14,8.76,10.74,5.62,16.98c-3.14,6.24-10.74,8.76-16.98,5.62
			c-37.09-18.64-82.86-7.57-122.42,29.59c-43.77,41.12-77.24,117.34-47.29,187.51c2.74,6.42-0.25,13.85-6.67,16.59
			C1874.72,3469.17,1873.04,3469.49,1871.38,3469.49z"/>
	</g>
	<g>
		<path class="st2" d="M2127.57,3437.71c-8.3,10.28-16.81,18.92-26.13,27.37c-9.27,8.33-19.15,16-29.81,22.51
			c-10.61,6.5-22.07,11.86-34.15,14.83c-12.03,3.07-24.73,3.29-36.38,0.27c12.03,1.13,23.9-1.09,34.59-5.71
			c10.74-4.54,20.43-11.15,29.23-18.68c8.82-7.53,16.78-16.06,24.07-25.08c7.2-8.94,14.11-18.78,19.49-28.22l0.12-0.22
			c3.15-5.53,10.18-7.45,15.71-4.3c5.53,3.15,7.45,10.18,4.3,15.71C2128.31,3436.71,2127.94,3437.25,2127.57,3437.71z"/>
	</g>
	<g>
		<path class="st2" d="M2168.95,3367.39c-4.27,0-8.44-2.16-10.82-6.08c-41.49-68.23-54.42-132.44-38.41-190.84
			c22.95-83.74,96.85-123.92,99.98-125.59c6.16-3.28,13.82-0.95,17.1,5.21c3.28,6.16,0.95,13.81-5.2,17.09l0,0
			c-0.67,0.36-67.67,37.08-87.58,110.24c-13.98,51.36-1.96,108.81,35.71,170.75c3.63,5.97,1.73,13.75-4.23,17.37
			C2173.46,3366.8,2171.19,3367.39,2168.95,3367.39z"/>
	</g>
	<g>
		
			<ellipse transform="matrix(0.3384 -0.941 0.941 0.3384 -1484.2998 3870.6116)" class="st0" cx="2010.43" cy="2990.86" rx="47.79" ry="47.79"/>
	</g>
	<g class="st1">
		<path class="st2" d="M2056.11,2976.88c7.72,25.24-6.46,51.97-31.69,59.69c-25.24,7.72-51.98-6.49-59.7-31.73
			c-2.13-6.97-2.6-14.09-1.58-20.88c12.06,13.19,31.09,19.08,49.32,13.5c18.23-5.58,30.71-21.11,33.29-38.78
			C2050.39,2963.74,2053.98,2969.91,2056.11,2976.88z"/>
	</g>
	<g>
		<path class="st2" d="M2010.46,3051.3c-25.87,0-49.87-16.76-57.82-42.76c-9.75-31.87,8.25-65.72,40.11-75.47
			c31.86-9.74,65.72,8.25,75.47,40.11l0,0c9.75,31.86-8.25,65.72-40.11,75.46C2022.24,3050.45,2016.3,3051.3,2010.46,3051.3z
			 M2010.41,2955.72c-3.4,0-6.85,0.5-10.26,1.54c-18.53,5.67-28.99,25.36-23.33,43.89c5.67,18.53,25.37,29,43.89,23.32
			c18.53-5.67,28.99-25.36,23.32-43.88l0,0C2039.41,2965.47,2025.45,2955.72,2010.41,2955.72z"/>
	</g>
	<g>
		<path class="st0" d="M1997.47,3118.8l-236.76,88.12c-28.02,10.44-59.5-3.95-69.95-32.01l-46.88-125.99
			c-9.14-24.56,0.77-51.74,22.21-65.13c3.03-1.92,6.31-3.52,9.8-4.82l236.73-88.11c28.06-10.45,59.54,3.94,69.95,32.01l37.16,99.78
			l9.76,26.2C2039.93,3076.9,2025.49,3108.36,1997.47,3118.8z"/>
	</g>
	<g class="st1">
		<path class="st2" d="M1997.47,3118.8l-236.76,88.12c-28.02,10.44-59.5-3.95-69.95-32.01l-46.88-125.99
			c-9.14-24.56,0.77-51.74,22.21-65.13c16.77,3.92,27.43,6.46,27.43,6.46c49.17,96.84,72.63,173.47,225.67,104.67
			c52.76-23.72,83.09-53.11,100.54-72.27l9.76,26.2C2039.93,3076.9,2025.49,3108.36,1997.47,3118.8z"/>
	</g>
	<g>
		<path class="st2" d="M1741.85,3222.99c-9.52,0-19.02-2.06-27.96-6.15c-16.32-7.47-28.74-20.79-34.97-37.52l-46.9-126.01
			c-6.23-16.73-5.54-34.93,1.93-51.25c7.47-16.32,20.79-28.74,37.52-34.97l236.74-88.12c34.65-12.88,73.33,4.8,86.22,39.45
			l46.9,126.01c12.89,34.65-4.8,73.33-39.45,86.22l-236.74,88.12C1757.58,3221.58,1749.7,3222.99,1741.85,3222.99z M1931.55,2900.06
			c-4.83,0-9.73,0.84-14.52,2.62l-236.74,88.12c-10.4,3.87-18.69,11.61-23.34,21.79c-4.66,10.18-5.09,21.51-1.22,31.91l46.9,126.01
			c3.87,10.4,11.61,18.69,21.78,23.34c10.18,4.66,21.51,5.09,31.91,1.22l236.74-88.12c21.58-8.03,32.6-32.12,24.57-53.7
			l-46.9-126.01C1964.48,2910.46,1948.5,2900.06,1931.55,2900.06z"/>
	</g>
	<g>
		<path class="st0" d="M2006.63,3114.33c-2.83,1.78-5.87,3.26-9.16,4.47l-236.76,88.12c-20.54,7.63-42.92,1.97-57.53-12.7
			c-5.32-5.32-9.62-11.83-12.38-19.32l-20.85-55.97l-6.88-18.47l-19.19-51.55c-10.45-28.06,3.99-59.52,32.01-69.95l51.16-19.03
			c-21.93,13.22-32.15,40.69-22.93,65.51l25.31,68.06l21.59,57.97c10.44,28.02,41.93,42.45,69.95,32.01L2006.63,3114.33z"/>
	</g>
	<g class="st1">
		<path class="st2" d="M2006.63,3114.33c-2.83,1.78-5.87,3.26-9.16,4.47l-236.76,88.12c-28.02,10.44-59.5-3.95-69.92-32.02
			l-27.73-74.43c10.85,10.94,27.56,23.1,45.31,18.42c9.74-2.54,16.47-12.74,21.06-25.39l21.59,57.97
			c10.44,28.02,41.93,42.45,69.95,32.01L2006.63,3114.33z"/>
	</g>
	<g>
		<path class="st2" d="M1741.85,3222.99c-9.51,0-19.01-2.06-27.95-6.15c-16.33-7.47-28.75-20.8-34.97-37.53l-46.89-126
			c-6.23-16.72-5.55-34.92,1.92-51.25c7.47-16.32,20.79-28.74,37.51-34.97l51.15-19.03l10.95,22.67
			c-17.18,10.37-24.57,31.53-17.58,50.3l46.9,126.01c3.86,10.4,11.6,18.69,21.78,23.35s21.5,5.1,31.88,1.22l185.69-69.13l11.06,22.6
			c-3.63,2.24-7.49,4.12-11.48,5.58l-236.69,88.1C1757.57,3221.59,1749.7,3222.99,1741.85,3222.99z M1691.06,2986.78l-10.76,4
			c-10.39,3.87-18.69,11.62-23.34,21.8s-5.09,21.51-1.22,31.9l46.9,126.02c3.86,10.4,11.6,18.69,21.78,23.35
			c10.18,4.66,21.5,5.09,31.88,1.22l12.25-4.56c-13.57-7.78-23.88-19.9-29.37-34.66l-46.9-126
			C1686.98,3015.61,1686.83,3000.51,1691.06,2986.78z"/>
	</g>
	<g>
		<path class="st3" d="M1821.3,3054.73c1.71,4.67,8.93,44.76,8.93,44.76s-11.94,4.37-26.6,9.73c-18.32,6.7-40.1-6.84-48.66-30.23
			c-8.56-23.4-0.64-47.79,17.68-54.49c12.36-4.52,26.6-9.73,26.6-9.73S1818.52,3047.12,1821.3,3054.73z"/>
	</g>
	<g class="st1">
		<path class="st2" d="M1821.3,3054.73c1.71,4.67,8.93,44.76,8.93,44.76s-11.94,4.37-26.6,9.73c-18.32,6.7-40.1-6.84-48.66-30.23
			c-8.56-23.4-0.64-47.79,17.68-54.49c12.36-4.52,26.6-9.73,26.6-9.73S1818.52,3047.12,1821.3,3054.73z"/>
	</g>
	<g>
		<path class="st2" d="M1793.83,3118.54c-7.44,0-15.03-2.26-22.19-6.71c-10.62-6.6-19.07-17.34-23.79-30.24
			c-4.72-12.9-5.19-26.56-1.33-38.45c4.07-12.56,12.43-21.71,23.53-25.77l32.51-11.89l3.22,5.4c2.01,3.37,19.72,33.2,22.66,41.24h0
			c1.79,4.9,7.54,36.47,9.27,46.02l1.13,6.28l-32.59,11.92C1802.22,3117.81,1798.04,3118.54,1793.83,3118.54z M1795.93,3024.06
			l-20.68,7.56c-6.62,2.42-11.7,8.17-14.3,16.2c-2.82,8.69-2.41,18.83,1.15,28.56c3.56,9.73,9.79,17.74,17.54,22.56
			c7.17,4.46,14.77,5.57,21.38,3.15l20.6-7.53c-3.16-17.25-6.56-34.6-7.45-37.24C1812.56,3052.92,1803.16,3036.38,1795.93,3024.06z"
			/>
	</g>
	<g>
		
			<ellipse transform="matrix(0.9392 -0.3434 0.3434 0.9392 -939.5325 809.1743)" class="st3" cx="1814.74" cy="3057.13" rx="35.31" ry="45.1"/>
	</g>
	<g class="st1">
		<path class="st2" d="M1781.58,3069.26c8.54,23.38,30.33,36.93,48.65,30.24c18.34-6.7,26.25-31.11,17.67-54.51
			c-1.14-3.16-2.56-6.15-4.18-8.93c1.16,17.79-6.78,33.68-21.01,38.86c-15.82,5.78-34.24-3.51-44.46-21.28
			C1778.57,3058.76,1779.68,3064.03,1781.58,3069.26z"/>
	</g>
	<g>
		<path class="st0" d="M1781.58,3069.26c0.58,1.59,1.23,3.14,1.95,4.63c-3.06-19.66,5-37.97,20.47-43.62
			c17.07-6.23,37.18,5.09,46.71,25.64c-0.55-3.64-1.49-7.28-2.81-10.92c-8.54-23.39-30.33-36.93-48.65-30.24
			C1780.95,3021.47,1773.03,3045.85,1781.58,3069.26z"/>
	</g>
	<g>
		<path class="st2" d="M1820.61,3108.77c-18.87,0-37.97-14.51-46.16-36.91c-9.98-27.29-0.02-56.09,22.2-64.22
			c22.21-8.12,48.41,7.47,58.39,34.75c9.98,27.28,0.02,56.1-22.2,64.22C1828.85,3108.07,1824.73,3108.77,1820.61,3108.77z
			 M1809.08,3020.62c-2.45,0-4.88,0.41-7.23,1.27c-14.36,5.25-20.26,25.33-13.15,44.76c7.1,19.43,24.55,30.97,38.93,25.71
			c14.36-5.25,20.26-25.33,13.15-44.76C1834.84,3031.35,1821.65,3020.62,1809.08,3020.62z"/>
	</g>
	<g>
		<path class="st2" d="M1923.53,3155.4c-4.19,0-8.12-2.63-9.56-6.81l-22.21-64.29c-6.27-18.15-3.05-38.1,8.63-53.36
			c7.72-10.09,9.71-23.23,5.32-35.16l-33.13-89.98c-1.93-5.24,0.75-11.06,6-12.99c5.23-1.93,11.05,0.75,12.99,6l33.13,89.98
			c6.8,18.47,3.72,38.82-8.24,54.44c-7.54,9.85-9.62,22.73-5.57,34.46l22.21,64.29c1.82,5.28-0.98,11.04-6.26,12.86
			C1925.74,3155.22,1924.63,3155.4,1923.53,3155.4z"/>
	</g>
	<g>
		<path class="st0" d="M1392.82,3111.65c0,0-18.94,24.91-8.57,52.98c11.99,32.46,40.85,39.35,40.85,39.35s99.01,26.03,273.6-54.78
			c0,0,26.68-65.14-39.6-80.64C1659.1,3068.56,1506.09,3159.16,1392.82,3111.65z"/>
	</g>
	<g class="st1">
		<path class="st2" d="M1384.03,3164C1384.02,3164,1384.03,3164,1384.03,3164c11.84,33,41.09,39.99,41.09,39.99
			s99,26.02,273.59-54.78c0,0,20.39-49.79-18.75-72.67c0.05,0.21,0.09,0.42,0.14,0.63c4.48,21.43-7.26,43.06-27.41,51.64
			c-160.06,68.12-250.29,44.42-250.29,44.42S1393.78,3171.17,1384.03,3164z"/>
	</g>
	<g>
		<path class="st2" d="M1469.5,3220.7c-29.7,0-45.99-4.06-47.61-4.49c-1.17-0.28-35.33-8.83-49.5-47.2
			c-5.07-13.72-5.16-28.88-0.27-43.85c5.31-16.25,22.74-25.38,38.87-20.33c93.47,29.24,212.55-31.26,235.47-43.69
			c7.66-4.16,16.69-4.99,24.78-2.28c36.61,12.28,52.53,43.75,42.57,84.19c-2.3,9.33-8.87,17.25-17.59,21.17
			C1592.16,3211.14,1515.06,3220.7,1469.5,3220.7z M1401.9,3128.74c-2.47,0-4.89,1.71-5.73,4.28c-3.15,9.63-3.17,18.79-0.05,27.23
			c9.36,25.34,31.12,31.22,32.04,31.46c1.05,0.27,94.88,22.85,257.69-50.54c1.69-0.76,2.96-2.31,3.42-4.16
			c6.86-27.85-1.91-46.07-26.05-54.17c-1.44-0.48-3.16-0.3-4.68,0.53c-34.42,18.65-154.5,77.06-255.08,45.6l0,0
			C1402.93,3128.81,1402.41,3128.74,1401.9,3128.74z"/>
	</g>
	<g class="st1">
		<path class="st2" d="M1945.52,3175.28c-0.85-3.47-5.12-20.18-11.71-46.82C1940.41,3155.1,1944.64,3171.83,1945.52,3175.28z"/>
	</g>
	<g class="st1">
		<path class="st2" d="M1945.68,3175.97l0.03-0.02c0,0-0.08-0.22-0.17-0.64C1945.61,3175.76,1945.68,3175.97,1945.68,3175.97z"/>
	</g>
	<g>
		<path class="st2" d="M2363.92,3197.1c-5.06,3.4-10.36,7.39-15.4,11.34c-5.06,4-10.07,8.13-14.86,12.48
			c-9.57,8.72-18.73,18.01-25.69,29.31c3.44-12.86,9.85-25.04,16.83-36.59c3.5-5.81,7.29-11.43,11.19-17
			c3.97-5.58,7.89-10.93,12.44-16.47l0.05-0.06c4.06-4.95,11.37-5.67,16.32-1.6c4.95,4.06,5.67,11.37,1.6,16.32
			C2365.69,3195.71,2364.81,3196.49,2363.92,3197.1z"/>
	</g>
	<g class="st1">
		<path class="st2" d="M1299.98,3160.6c0.09,1.6-0.1,3-0.53,4.3C1299.73,3163.52,1299.89,3162.08,1299.98,3160.6z"/>
	</g>
	<g>
		<path class="st4" d="M2309.72,3429.05c-5.76-6.78-8.76-17.09-6.82-32.5c9.36-74.33,133.42-241.97,202.27-200
			c2.19,8.8,3.47,19.19,3.63,31.4C2510.1,3320.02,2395.16,3437.59,2309.72,3429.05z"/>
	</g>
	<g class="st1">
		<path class="st2" d="M2465.88,3338.4c-41,54.19-104.09,95.86-156.16,90.66c-5.76-6.78-8.76-17.09-6.82-32.5
			c4.27-33.91,32.41-87.25,68.33-131.23c-12.74,27.65-34.76,97.41-4.89,112.66C2396.21,3393.24,2435.78,3355.47,2465.88,3338.4z"/>
	</g>
	<g class="st5">
		<path class="st0" d="M2482.44,3313.7c8.65-20.19,13.51-40.68,13.24-60.02c-0.01-0.58-0.02-1.15-0.03-1.71
			c-0.51-23.34-23.03-40.13-45.46-33.65c-46.46,13.42-100.52,74.97-132.67,132.08c36.58-80.58,130.9-188.45,187.65-153.84
			c2.19,8.8,3.47,19.19,3.63,31.4C2509.18,3255.6,2499.09,3285.57,2482.44,3313.7z"/>
	</g>
	<g>
		<path class="st2" d="M2318.66,3439.61c-3.36,0-6.68-0.16-9.95-0.49l-4.06-0.41l-2.64-3.11c-8.22-9.68-11.3-23.24-9.14-40.31
			c7.63-60.6,83.73-173.54,151.11-206.01c25.1-12.09,48.08-12.56,66.46-1.36l3.55,2.16l1,4.04c2.44,9.83,3.76,21.17,3.93,33.71
			c0.71,49.81-30.1,109.45-80.39,155.62C2399.19,3419.54,2356.11,3439.61,2318.66,3439.61z M2315.28,3419.3
			c32.63,1.26,73.22-17.41,109.56-50.77c45.48-41.75,74.46-96.87,73.85-140.44c-0.12-9.16-0.92-17.49-2.38-24.82
			c-11.82-5.42-26.45-4.02-43.55,4.22c-61.19,29.49-132.93,135.59-139.82,190.31C2311.78,3406.94,2312.57,3414.15,2315.28,3419.3z"
			/>
	</g>
	<g>
		<path class="st2" d="M2480.36,3247.4c-31.75,0-69.26-9.7-74.93-11.21c-5.4-1.45-8.6-6.99-7.16-12.39
			c1.44-5.4,6.99-8.59,12.38-7.16c27.09,7.23,76.45,15.5,93.55,6.88c4.99-2.51,11.07-0.51,13.59,4.48
			c2.51,4.99,0.51,11.07-4.48,13.59C2504.87,3245.85,2493.08,3247.4,2480.36,3247.4z"/>
	</g>
	<g>
		<path class="st2" d="M2450.91,3298.94c-46.19,0-84.58-20.94-86.75-22.15c-4.88-2.71-6.64-8.87-3.93-13.75
			c2.71-4.88,8.86-6.63,13.75-3.93l0,0c0.64,0.36,64.69,35.12,121.03,11c5.13-2.2,11.08,0.18,13.28,5.32
			c2.2,5.13-0.18,11.08-5.32,13.28C2485.5,3296.17,2467.69,3298.94,2450.91,3298.94z"/>
	</g>
	<g>
		<path class="st2" d="M2425.6,3346.46c-65.41,0-92.21-28.55-93.54-30.01c-3.75-4.14-3.44-10.53,0.69-14.29
			c4.11-3.73,10.47-3.45,14.23,0.62c0.6,0.62,34.46,34.79,121.69,19.43c5.49-0.98,10.74,2.7,11.72,8.21
			c0.97,5.5-2.7,10.75-8.21,11.72C2454.87,3345.19,2439.37,3346.46,2425.6,3346.46z"/>
	</g>
	<g>
		<path class="st2" d="M2390.42,3402.49c-52.65,0-83.65-32.06-85.14-33.64c-3.84-4.06-3.66-10.46,0.4-14.3
			c4.06-3.83,10.44-3.66,14.28,0.38c1.53,1.59,35.88,36.47,93.38,25.01c5.5-1.09,10.81,2.46,11.9,7.94s-2.46,10.81-7.94,11.9
			C2407.81,3401.66,2398.84,3402.49,2390.42,3402.49z"/>
	</g>
	<g>
		<g>
			<path class="st0" d="M1133.33,2508.28L1133.33,2508.28c5.16-1.04,8.49-6.07,7.45-11.23l-54.48-269.08
				c-1.04-5.16-6.07-8.49-11.23-7.45h0c-54.13,10.96-89.12,63.72-78.16,117.85l18.58,91.76
				C1026.44,2484.24,1079.2,2519.24,1133.33,2508.28z"/>
			<path class="st2" d="M1113.27,2513.24c-20.02,0-39.61-5.86-56.68-17.19c-22.91-15.2-38.54-38.41-43.99-65.35l-18.58-91.76
				c-5.46-26.95-0.09-54.41,15.11-77.32c15.2-22.91,38.41-38.54,65.35-43.99c3.27-0.66,6.59-0.01,9.37,1.83
				c2.78,1.84,4.67,4.65,5.33,7.92l54.48,269.08c0.66,3.26,0.01,6.59-1.83,9.37s-4.65,4.67-7.92,5.33h0
				C1127.04,2512.55,1120.13,2513.24,1113.27,2513.24z M1076.97,2223.26c-0.44,0-0.88,0.04-1.32,0.13
				c-25.41,5.15-47.29,19.88-61.62,41.48c-14.33,21.6-19.39,47.5-14.24,72.9l18.58,91.76c10.62,52.45,61.95,86.47,114.38,75.87l0,0
				c1.73-0.35,3.22-1.35,4.19-2.82c0.97-1.47,1.32-3.23,0.97-4.95l-54.48-269.08c-0.35-1.73-1.35-3.21-2.82-4.19
				C1079.51,2223.63,1078.25,2223.26,1076.97,2223.26z"/>
		</g>
		<g class="st1">
			<path class="st2" d="M997.3,2390.94l8.7,43.04c10.96,54.11,63.72,89.11,117.86,78.17c5.16-1.04,8.49-6.09,7.45-11.25
				l-14.46-71.54c-0.79,3.55-3.6,6.47-7.38,7.26l-6.38,1.27C1060.33,2446.56,1018.38,2426.51,997.3,2390.94z"/>
		</g>
		<g>
			<path class="st2" d="M1113.45,2526.63c-54.19,0-102.83-38.15-113.99-93.27l-18.58-91.76c-6.17-30.46-0.1-61.49,17.07-87.39
				c17.18-25.9,43.41-43.56,73.87-49.72c6.77-1.38,13.68-0.02,19.45,3.8c5.76,3.82,9.69,9.66,11.06,16.44l54.48,269.08
				c1.37,6.77,0.02,13.68-3.8,19.44s-9.66,9.69-16.43,11.06h0C1128.81,2525.87,1121.07,2526.63,1113.45,2526.63z M1071.68,2238.16
				c-19.06,5.48-35.39,17.41-46.47,34.13c-12.35,18.62-16.71,40.93-12.28,62.83l18.58,91.76c8.7,42.95,49.07,71.57,91.84,66.46
				L1071.68,2238.16z M1130.08,2492.25C1130.08,2492.25,1130.08,2492.25,1130.08,2492.25
				C1130.08,2492.25,1130.08,2492.25,1130.08,2492.25L1130.08,2492.25z"/>
		</g>
		<g>
			<path class="st0" d="M1963.25,2040.69L1963.25,2040.69c-5.16,1.04-8.5,6.07-7.45,11.23l54.48,269.08
				c1.04,5.16,6.07,8.5,11.23,7.45l0,0c54.13-10.96,89.12-63.72,78.16-117.85l-18.58-91.76
				C2070.14,2064.72,2017.38,2029.73,1963.25,2040.69z"/>
			<path class="st2" d="M2019.59,2331.58c-2.42,0-4.8-0.71-6.87-2.08c-2.78-1.84-4.67-4.65-5.33-7.92l-54.48-269.08
				c-0.66-3.26-0.01-6.59,1.83-9.37c1.84-2.78,4.65-4.67,7.92-5.33l0,0c55.64-11.27,110.05,24.83,121.31,80.46l18.58,91.76
				c5.46,26.95,0.09,54.41-15.1,77.32c-15.2,22.91-38.41,38.54-65.35,43.99C2021.26,2331.5,2020.43,2331.58,2019.59,2331.58z
				 M1963.84,2043.56c-1.73,0.35-3.22,1.35-4.19,2.82c-0.97,1.47-1.32,3.22-0.97,4.95l54.48,269.09c0.35,1.73,1.35,3.21,2.82,4.19
				c1.47,0.97,3.23,1.3,4.95,0.97c25.41-5.14,47.29-19.88,61.62-41.48c14.33-21.61,19.39-47.5,14.24-72.91l-18.58-91.76
				C2067.6,2066.98,2016.29,2032.94,1963.84,2043.56L1963.84,2043.56z"/>
		</g>
		<g class="st1">
			<path class="st2" d="M1995.14,2246.36l15.12,74.65c1.04,5.16,6.09,8.49,11.25,7.45c28.41-5.76,51.57-23.03,65.57-45.99
				c12.64-20.73,17.78-46.13,12.58-71.83l-7.83-38.67c-8.5,37.03-37.94,67.6-77.63,75.64l-9.82,1.99
				C2000.81,2250.3,1997.36,2248.94,1995.14,2246.36z"/>
		</g>
		<g>
			<path class="st2" d="M2019.57,2345c-5.03,0-9.96-1.47-14.25-4.32c-5.76-3.82-9.69-9.66-11.06-16.44l-54.48-269.08
				c-1.37-6.77-0.02-13.68,3.8-19.44c3.82-5.76,9.66-9.69,16.43-11.06l0,0c62.87-12.73,124.39,28.07,137.12,90.94l18.58,91.76
				c6.17,30.46,0.1,61.49-17.07,87.39c-17.18,25.9-43.41,43.56-73.87,49.72C2023.03,2344.83,2021.29,2345,2019.57,2345z
				 M1973.23,2055.63l51.67,255.18c19.06-5.47,35.39-17.41,46.47-34.13c12.35-18.62,16.71-40.93,12.28-62.83l-18.58-91.76
				C2056.38,2079.14,2016.01,2050.54,1973.23,2055.63z M1966.5,2056.71L1966.5,2056.71L1966.5,2056.71L1966.5,2056.71z"/>
		</g>
		<g>
			
				<ellipse transform="matrix(0.7071 -0.7071 0.7071 0.7071 -1154.8435 1760.9498)" class="st0" cx="1548.23" cy="2274.49" rx="467.85" ry="467.85"/>
			<path class="st2" d="M1547.51,2745.49c-80.15,0-159.34-20.67-231.01-61.19c-109.46-61.9-188.27-162.72-221.9-283.89
				s-18.07-248.18,43.83-357.65c61.9-109.46,162.72-188.27,283.89-221.9c250.14-69.42,510.12,77.59,579.55,327.72
				c33.63,121.17,18.07,248.18-43.83,357.65c-61.9,109.46-162.72,188.27-283.89,221.9
				C1632.31,2739.74,1589.78,2745.49,1547.51,2745.49z M1548.95,1809.38c-41.74,0-83.75,5.68-125.06,17.14
				c-119.66,33.21-219.22,111.04-280.35,219.13s-76.5,233.53-43.29,353.18l0,0c33.21,119.66,111.04,219.22,219.13,280.35
				c108.09,61.13,233.52,76.5,353.18,43.29c119.66-33.21,219.22-111.04,280.35-219.13s76.5-233.53,43.29-353.18
				c-33.21-119.66-111.04-219.22-219.13-280.35C1706.3,1829.79,1628.1,1809.38,1548.95,1809.38z"/>
		</g>
		<g class="st1">
			<path class="st2" d="M1084.43,2336.02c2.79,21.18,7.12,42.41,12.99,63.61c69.14,248.96,326.98,394.76,575.95,325.68
				c248.96-69.14,394.76-326.98,325.68-575.95c-1.98-7.16-4.14-14.28-6.44-21.24c30.52,227.88-110.88,449.1-338.68,512.34
				C1412.13,2707.56,1161.99,2571.96,1084.43,2336.02z"/>
		</g>
		<g>
			<path class="st2" d="M1547.49,2758.91c-82.44,0-163.87-21.25-237.59-62.93c-112.58-63.66-193.63-167.35-228.22-291.98
				c-34.59-124.62-18.58-255.25,45.08-367.83c63.66-112.58,167.35-193.63,291.98-228.22c124.61-34.59,255.25-18.58,367.83,45.08
				c112.58,63.66,193.63,167.35,228.22,291.98c34.59,124.62,18.58,255.25-45.08,367.83s-167.35,193.63-291.98,228.22
				C1634.71,2752.99,1590.95,2758.91,1547.49,2758.91z M1548.93,1822.8c-40.53,0-81.33,5.51-121.45,16.65
				c-116.21,32.26-212.9,107.83-272.26,212.81c-59.36,104.98-74.29,226.79-42.04,342.99c32.26,116.21,107.83,212.9,212.81,272.26
				c104.98,59.36,226.79,74.28,342.99,42.04c116.21-32.26,212.9-107.83,272.26-212.81s74.29-226.79,42.04-342.99
				c-32.26-116.21-107.83-212.9-212.81-272.26C1701.74,1842.62,1625.79,1822.8,1548.93,1822.8z"/>
		</g>
		<g>
			<path class="st2" d="M1102.09,2410.8c23.15,88.58,73.4,163.29,140.35,218.48c50.2,41.37,225.08,91.04,412.65,43.81
				c173.92-43.79,307.62-177.57,331.15-238.21c31.39-80.89,38.65-170.64,15.5-259.21c-61.26-234.4-288.04-278.93-536.49-214
				C1216.81,2026.6,1040.82,2176.4,1102.09,2410.8z"/>
		</g>
		<g class="st6">
			
				<ellipse transform="matrix(0.9069 -0.4213 0.4213 0.9069 -870.7778 740.3141)" class="st0" cx="1239.96" cy="2340.75" rx="59.99" ry="82.79"/>
		</g>
		<g class="st6">
			
				<ellipse transform="matrix(0.84 -0.5426 0.5426 0.84 -1129.6683 1130.8097)" class="st0" cx="1352.54" cy="2480.84" rx="32.61" ry="38"/>
		</g>
		<g class="st1">
			<path class="st7" d="M1132.42,2169.26c-41.28,66.85-54.93,147.38-30.33,241.52c23.15,88.59,73.42,163.3,140.34,218.5
				c50.21,41.37,225.1,91.02,412.68,43.82c66.24-16.66,126.61-46.38,177.31-80.18c-231.81,53.12-445.06-8.2-507.31-59.52
				c-84.99-70.04-148.75-164.89-178.11-277.29C1139.12,2226.09,1134.38,2197.13,1132.42,2169.26z"/>
		</g>
		<g>
			<path class="st2" d="M1087.04,2208.62c-2.71,0-5.45-0.81-7.82-2.51c-5.34-3.81-7.09-10.77-4.49-16.53
				c51.48-134.29,188.96-239.52,377.33-288.76c189.85-49.62,361.98-22.83,472.27,73.5c5.29,4.5,6.37,12.41,2.26,18.17
				c-4.34,6.08-12.75,7.5-18.83,3.17l-1.11-0.87c-103.44-90.43-266.64-115.14-447.76-67.8c-180.13,47.08-311.04,146.55-359.16,272.9
				l-0.62,1.63l-1.01,1.42C1095.45,2206.64,1091.27,2208.62,1087.04,2208.62z"/>
		</g>
		<g class="st6">
			<path class="st0" d="M1937.16,2341.51c0,0,12.16-250.21-136.54-309.78c-148.7-59.57-327.9-12.34-320.7-1.94
				c0,0,211.05-3.83,329.72,132.79C1901.16,2267.93,1937.16,2341.51,1937.16,2341.51z"/>
		</g>
	</g>
	<g>
		<path class="st0" d="M2104.43,2355.74c0,0-66.08-92.24-176.54-86.82c-78.14,3.83-113.75,150.61-29.24,229.47
			c39.73,37.08,75.55,48.18,86.14,127.78"/>
	</g>
	<g>
		<path class="st2" d="M1984.77,2641.47c-7.55,0-14.12-5.59-15.14-13.28c-7.63-57.39-28.36-74.31-57.05-97.74
			c-7.82-6.38-15.9-12.98-24.36-20.88c-57.27-53.45-63.1-131.5-43.46-185.14c15.58-42.56,46.38-69.02,82.39-70.79
			c117.41-5.77,186.82,89.14,189.72,93.19c4.92,6.87,3.34,16.42-3.53,21.34c-6.85,4.91-16.39,3.34-21.32-3.5l0,0
			c-0.62-0.85-62.92-85.43-163.37-80.47c-23.33,1.15-43.95,20.12-55.17,50.75c-15.64,42.73-11.17,108.61,35.61,152.27
			c7.72,7.2,15.41,13.48,22.84,19.55c30.24,24.69,58.8,48.01,68.02,117.4c1.11,8.37-4.77,16.06-13.14,17.18
			C1986.12,2641.42,1985.44,2641.47,1984.77,2641.47z"/>
	</g>
	<g class="st1">
		<path class="st2" d="M1443.37,2797.91l14.05,150.58c333.45,240.15,463.11-102.46,497.76-168.34
			c7.14-13.58,30.52-53.93,44.97-63.41c15.64-10.28,31.01-45.68,32.73-71.41c0,0-9.73-93.04-41.38-121.02
			c-32.46-28.67-106.12-17.81-142.9,3.48c-50.84,29.44-86.7,98.9-147.37,159.83C1626.73,2762.39,1466.5,2734.87,1443.37,2797.91z"/>
	</g>
	<g>
		<path class="st0" d="M1424.62,2766.36l31.5,174.82l1.3,7.3c314.31,111.09,449.56-152.53,505.45-224.44
			c9.4-12.12,36.97-28.02,51.42-37.5c15.64-10.28,23.55-31.88,25.27-57.61c0,0,0,0,0-0.04c3.36-49.73-16.4-114.84-48.05-142.82
			c-32.46-28.67-106.12-17.81-142.9,3.48c-50.84,29.44-86.7,98.9-147.37,159.83C1626.73,2724.16,1447.75,2703.33,1424.62,2766.36z"
			/>
	</g>
	<g class="st1">
		<path class="st2" d="M1456.12,2941.18l1.3,7.3c314.31,111.09,449.56-152.53,505.45-224.44c9.4-12.12,36.97-28.02,51.42-37.5
			c15.64-10.28,23.55-31.88,25.27-57.61c-8.75,12.12-20.15,22.59-33.91,23.93c-34.75,3.36-83.3,2.03-97.14,20.22
			c-13.84,18.24-39.22,109.56-129.21,186.67C1688.47,2937.55,1532.46,2962.86,1456.12,2941.18z"/>
	</g>
	<g>
		<path class="st2" d="M1418.67,2764.19c2.42-9.33,8.29-17.64,15.17-23.79c6.87-6.28,14.62-10.92,22.43-14.91
			c15.73-7.69,31.95-12.66,48.01-16.9c32.18-8.35,64.23-13.85,94.98-22.43c30.55-8.49,60.62-19.51,83.56-38.22
			c2.99-2.2,5.45-4.87,8.17-7.29c2.7-2.65,5.48-5.68,8.22-8.51c5.5-5.74,10.79-11.72,16.05-17.75
			c10.52-12.04,20.55-24.67,30.6-37.42c20.17-25.45,39.6-52.27,64.88-76.13c12.6-11.78,27.26-22.87,44.16-30.04
			c16.44-7.27,33.4-11.54,50.73-14.14c17.32-2.51,35.12-3.07,53.3,0.17c9.06,1.5,18.26,4.32,27.14,8.76l6.59,3.63l6.23,4.64
			c4.07,3.16,7.25,6.52,10.4,10.05c12.3,14.15,20.73,29.94,27.23,46.13c6.53,16.21,11.04,32.95,13.97,50.01
			c2.8,17.08,4.08,34.5,2.57,52.29c-0.76,8.88-2.2,17.86-4.9,26.86c-2.71,8.95-6.69,18.06-13.16,26.32
			c-1.61,2.06-3.31,4.07-5.32,5.91c-1.85,1.94-4.03,3.62-6.27,5.24l-1.66,1.22l-1.34,0.87l-2.66,1.71l-5.25,3.31
			c-6.91,4.34-13.7,8.59-20.14,13c-6.35,4.35-12.77,9.05-17.07,13.46c-1.63,1.56-4.17,5.19-6.52,8.22l-7.02,9.71
			c-18.58,26.5-37.51,53.9-58.56,79.64c-10.47,12.94-21.59,25.4-33.07,37.56c-11.7,11.96-23.72,23.68-36.61,34.49
			c-25.48,21.93-54.06,40.56-84.66,55.06c-30.58,14.62-63.71,23.75-97.18,28.15c-33.56,4.12-67.48,3.05-100.47-2.08
			c-33-5.32-65.09-14.55-95.89-26.55c-3.25-1.27-4.86-4.94-3.6-8.19c1.2-3.09,4.57-4.7,7.69-3.77l0.12,0.04
			c30.96,9.31,62.38,16.62,94.14,20.05c31.7,3.66,63.71,3.36,94.86-1.71c31.16-4.83,61.49-14.26,89.75-28.1
			c6.97-3.65,14.12-6.95,20.82-11.13l10.19-5.99l9.87-6.53c6.7-4.17,12.88-9.14,19.33-13.7c6.17-4.95,12.48-9.74,18.43-14.99
			c12.09-10.26,23.43-21.44,34.51-32.89c10.87-11.66,21.45-23.64,31.47-36.17c20.18-24.99,38.29-51.49,57.05-78.59l7.28-10.19
			c2.65-3.41,4.64-6.64,8.71-10.94c7.14-7.28,14.1-12.14,21.14-17.1c7.02-4.86,14.06-9.31,20.95-13.7l5.1-3.26l2.49-1.61l1.22-0.8
			l0.78-0.63c1.06-0.8,2.15-1.57,3.09-2.63c1.04-0.9,1.94-2.03,2.84-3.2c7.33-9.36,10.97-24.02,12.08-38.66
			c1.19-14.8,0.04-30.21-2.54-45.33c-2.68-15.11-6.82-30.07-12.59-44.14c-5.68-14.06-13.16-27.36-22.41-37.83
			c-2.28-2.54-4.79-5.13-7.19-6.93c-1.21-0.88-2.39-1.79-3.56-2.72l-4.16-2.25c-5.7-2.86-12.25-5.03-19.31-6.18
			c-14.01-2.58-29.3-2.3-44.27-0.13c-14.95,2.18-29.97,5.97-43.43,11.92c-13.29,5.55-25.2,14.38-36.45,24.82
			c-22.45,20.97-41.78,47.21-62.36,72.72c-10.27,12.82-20.68,25.7-31.76,38.17c-5.53,6.23-11.13,12.45-16.97,18.46
			c-2.97,3.02-5.73,5.99-8.88,9.04c-3.37,3.01-6.56,6.29-10.16,8.94c-14.04,11.21-29.56,19.71-45.38,26.37
			c-15.85,6.66-32.01,11.74-48.16,16.07c-32.32,8.62-64.74,14.33-96.15,21c-15.7,3.31-31.15,6.9-45.49,12.05
			c-14.08,5.35-27.46,12.19-33.85,24.44l-0.09,0.17c-1.62,3.11-5.46,4.32-8.57,2.69
			C1419.21,2770.02,1417.95,2766.99,1418.67,2764.19z"/>
	</g>
	<g>
		<path class="st2" d="M1785.77,2932.66c-2.58,0-5.19-0.79-7.44-2.43c-127.41-92.87-87.23-279.76-85.46-287.67
			c1.53-6.81,8.27-11.1,15.09-9.57c6.81,1.52,11.1,8.28,9.59,15.09c-0.4,1.78-38.23,178.69,75.68,261.72
			c5.64,4.11,6.88,12.02,2.77,17.67C1793.53,2930.86,1789.68,2932.66,1785.77,2932.66z"/>
	</g>
	<g>
		<path class="st2" d="M1993.44,2288.75c-6.98,0-12.64-5.66-12.64-12.64v-938.48c0-6.98,5.66-12.64,12.64-12.64
			s12.64,5.66,12.64,12.64v938.48C2006.09,2283.09,2000.42,2288.75,1993.44,2288.75z"/>
	</g>
	<g>
		<path class="st2" d="M2281.25,2932.66c-0.93,0-1.86-0.1-2.8-0.31c-36.88-8.34-55.41-32.91-73.32-56.67
			c-23.91-31.7-46.51-61.67-115.17-59.95c-37.99,0.88-66.72-9.67-85.21-31.51c-30.05-35.5-20.55-86.91-20.13-89.08
			c1.33-6.86,7.98-11.33,14.81-10.02c6.85,1.32,11.33,7.94,10.02,14.79c-0.15,0.82-7.44,42.06,14.69,68.08
			c13.3,15.64,35.24,23.22,65.2,22.46c81.63-1.92,110.52,36.25,135.98,70.01c16.56,21.97,30.87,40.93,58.71,47.24
			c6.81,1.54,11.08,8.31,9.54,15.12C2292.25,2928.67,2287.03,2932.66,2281.25,2932.66z"/>
	</g>
	<g>
		<g>
			<ellipse class="st8" cx="2000.69" cy="1528.38" rx="161.87" ry="66.3"/>
			<path class="st2" d="M2000.69,1596.65c-90.33,0-163.83-30.62-163.83-68.26c0-37.64,73.49-68.26,163.83-68.26
				c90.34,0,163.83,30.62,163.83,68.26C2164.52,1566.02,2091.03,1596.65,2000.69,1596.65z M2000.69,1464.04
				c-88.18,0-159.91,28.86-159.91,64.35c0,35.48,71.74,64.35,159.91,64.35c88.18,0,159.91-28.86,159.91-64.35
				C2160.6,1492.9,2088.87,1464.04,2000.69,1464.04z"/>
		</g>
		<g>
			<ellipse class="st0" cx="2000.69" cy="1528.38" rx="161.87" ry="66.3"/>
			<path class="st2" d="M2000.69,1596.65c-90.33,0-163.83-30.62-163.83-68.26c0-37.64,73.49-68.26,163.83-68.26
				c90.34,0,163.83,30.62,163.83,68.26C2164.52,1566.02,2091.03,1596.65,2000.69,1596.65z M2000.69,1464.04
				c-88.18,0-159.91,28.86-159.91,64.35c0,35.48,71.74,64.35,159.91,64.35c88.18,0,159.91-28.86,159.91-64.35
				C2160.6,1492.9,2088.87,1464.04,2000.69,1464.04z"/>
		</g>
		<g class="st9">
			<ellipse class="st2" cx="2000.69" cy="1528.38" rx="161.87" ry="66.3"/>
		</g>
		<g>
			<path class="st2" d="M2000.69,1606.81c-99.19,0-173.99-33.72-173.99-78.42c0-44.71,74.8-78.42,173.99-78.42
				c99.19,0,173.99,33.72,173.99,78.42C2174.68,1573.09,2099.88,1606.81,2000.69,1606.81z M2000.69,1474.2
				c-85.71,0-149.75,28.61-149.75,54.18c0,25.58,64.04,54.18,149.75,54.18c85.71,0,149.75-28.61,149.75-54.18
				C2150.44,1502.81,2086.4,1474.2,2000.69,1474.2z"/>
		</g>
		<g>
			
				<ellipse transform="matrix(0.9879 -0.1553 0.1553 0.9879 -201.5578 392.3381)" class="st0" cx="2409.48" cy="1485.78" rx="161.87" ry="66.3"/>
			<path class="st2" d="M2361.7,1557.93c-21.31,0-41.18-2.06-58.46-6.15c-32.97-7.82-52.72-22.22-55.6-40.55
				c-2.88-18.33,11.49-38.1,40.47-55.66c28.47-17.25,67.81-30.47,110.76-37.22c42.96-6.76,84.46-6.25,116.84,1.43
				c32.97,7.82,52.72,22.22,55.6,40.55c2.88,18.33-11.49,38.1-40.47,55.66c-28.47,17.25-67.81,30.47-110.76,37.22
				C2400.05,1556.36,2380.33,1557.93,2361.7,1557.93z M2457.27,1417.53c-18.42,0-37.93,1.56-57.78,4.68
				c-42.47,6.68-81.3,19.71-109.35,36.7c-27.53,16.68-41.25,35.04-38.63,51.7c2.62,16.66,21.31,29.92,52.64,37.35
				c31.9,7.57,72.87,8.05,115.33,1.37c42.47-6.68,81.3-19.71,109.34-36.7c27.53-16.68,41.25-35.04,38.63-51.7
				c-2.62-16.66-21.31-29.92-52.64-37.35C2497.82,1419.56,2478.25,1417.53,2457.27,1417.53z"/>
		</g>
		<g>
			<path class="st2" d="M2361.73,1568.08c-22.12,0-42.81-2.15-60.84-6.42c-37.25-8.83-59.73-26.18-63.29-48.86
				c-3.57-22.68,12.5-46.09,45.24-65.93c29.57-17.92,70.22-31.62,114.45-38.57c44.23-6.96,87.12-6.39,120.76,1.58
				c37.25,8.83,59.73,26.18,63.29,48.86c3.57,22.68-12.5,46.09-45.24,65.93c-29.57,17.92-70.22,31.62-114.45,38.57
				C2401.13,1566.47,2380.89,1568.08,2361.73,1568.08z M2457.29,1427.69c-17.88,0-36.88,1.52-56.23,4.56
				c-41.19,6.48-78.72,19.04-105.66,35.36c-23.08,13.98-35.74,29.48-33.86,41.43c1.88,11.96,18.68,22.81,44.94,29.04
				c30.65,7.27,70.22,7.7,111.41,1.22c41.19-6.48,78.71-19.04,105.65-35.36c23.08-13.98,35.74-29.48,33.86-41.43
				c-1.88-11.96-18.68-22.81-44.94-29.04C2496.22,1429.62,2477.47,1427.69,2457.29,1427.69z"/>
		</g>
		<g>
			
				<ellipse transform="matrix(0.1553 -0.9879 0.9879 0.1553 -123.1342 2827.5417)" class="st0" cx="1591.9" cy="1485.78" rx="66.3" ry="161.87"/>
			<path class="st2" d="M1639.68,1557.93c-18.63,0-38.34-1.57-58.38-4.72c-42.96-6.76-82.29-19.98-110.76-37.22
				c-28.98-17.56-43.35-37.33-40.47-55.66c2.88-18.33,22.63-32.73,55.6-40.55c32.39-7.68,73.88-8.19,116.85-1.43
				c42.96,6.76,82.29,19.98,110.76,37.22c28.98,17.56,43.35,37.33,40.47,55.66c-2.88,18.33-22.63,32.73-55.6,40.55
				C1680.86,1555.87,1660.98,1557.93,1639.68,1557.93z M1544.11,1417.53c-20.99,0-40.55,2.02-57.55,6.05
				c-31.32,7.43-50.02,20.69-52.64,37.35c-2.62,16.66,11.1,35.02,38.63,51.7c28.04,16.99,66.88,30.03,109.35,36.7
				c42.47,6.68,83.42,6.19,115.33-1.37c31.32-7.43,50.02-20.69,52.64-37.35c2.62-16.66-11.1-35.02-38.63-51.7
				c-28.04-16.99-66.88-30.03-109.35-36.7C1582.05,1419.09,1562.53,1417.53,1544.11,1417.53z"/>
		</g>
		<g class="st9">
			
				<ellipse transform="matrix(0.9879 -0.1553 0.1553 0.9879 -201.5578 392.3381)" class="st2" cx="2409.48" cy="1485.78" rx="161.87" ry="66.3"/>
		</g>
		<g class="st9">
			
				<ellipse transform="matrix(0.1553 -0.9879 0.9879 0.1553 -123.1342 2827.5417)" class="st2" cx="1591.9" cy="1485.78" rx="66.3" ry="161.87"/>
		</g>
		<g>
			<path class="st2" d="M1639.65,1568.08c-19.16,0-39.4-1.61-59.93-4.84c-44.23-6.95-84.88-20.65-114.45-38.57
				c-32.74-19.84-48.81-43.25-45.24-65.93c3.56-22.68,26.04-40.03,63.29-48.86c33.65-7.97,76.53-8.54,120.77-1.58
				c44.23,6.95,84.88,20.65,114.45,38.57c32.74,19.84,48.81,43.25,45.24,65.93c-3.56,22.68-26.04,40.03-63.29,48.86
				C1682.45,1565.94,1661.77,1568.08,1639.65,1568.08z M1544.08,1427.69c-20.17,0-38.93,1.93-55.18,5.78
				c-26.26,6.23-43.06,17.08-44.94,29.04c-1.88,11.96,10.78,27.45,33.86,41.43c26.94,16.32,64.47,28.88,105.66,35.36
				c41.19,6.47,80.76,6.04,111.41-1.22c26.26-6.23,43.06-17.08,44.94-29.04c1.88-11.96-10.78-27.45-33.86-41.43
				c-26.94-16.32-64.47-28.88-105.66-35.36C1580.96,1429.21,1561.96,1427.69,1544.08,1427.69z"/>
		</g>
		<g>
			<ellipse class="st10" cx="2000.69" cy="1345.52" rx="725.25" ry="182.86"/>
			<path class="st2" d="M2000.69,1530.34c-193.88,0-376.17-19.04-513.3-53.62c-137.93-34.78-213.9-81.37-213.9-131.2
				c0-49.83,75.96-96.42,213.9-131.2c137.13-34.58,319.43-53.62,513.3-53.62s376.17,19.04,513.31,53.62
				c137.93,34.78,213.9,81.37,213.9,131.2c0,49.83-75.96,96.42-213.9,131.2C2376.86,1511.3,2194.57,1530.34,2000.69,1530.34z
				 M2000.69,1164.62c-398.82,0-723.29,81.15-723.29,180.9c0,99.75,324.47,180.91,723.29,180.91
				c398.82,0,723.29-81.15,723.29-180.91C2723.98,1245.77,2399.51,1164.62,2000.69,1164.62z"/>
		</g>
		<g>
			<path class="st0" d="M2724.09,1358.61c-4.09,14.6-15,28.75-31.9,42.2c-92.95,73.95-367.4,127.58-691.5,127.58
				s-598.55-53.62-691.5-127.58c-16.91-13.45-27.81-27.6-31.9-42.2c26.69-58.5,340.37-104.67,723.4-104.67
				S2697.4,1300.11,2724.09,1358.61z"/>
			<path class="st2" d="M2000.69,1530.92c-318.23,0-596.75-51.49-693.07-128.12c-17.57-13.98-28.59-28.62-32.76-43.5l-0.25-0.89
				l0.39-0.84c27.61-60.52,339.59-106.15,725.7-106.15s698.09,45.63,725.7,106.15l0.39,0.84l-0.25,0.89
				c-4.17,14.88-15.19,29.52-32.76,43.5C2597.44,1479.43,2318.92,1530.92,2000.69,1530.92z M1279.99,1358.84
				c4.07,13.53,14.42,26.98,30.78,40c95.5,75.98,372.75,127.03,689.92,127.03s594.43-51.05,689.93-127.03
				c16.35-13.02,26.71-26.47,30.78-40c-29.02-57.47-344.55-102.37-720.71-102.37C1624.53,1256.47,1309.01,1301.36,1279.99,1358.84z"
				/>
		</g>
		<g class="st9">
			<path class="st2" d="M2724.09,1358.61c-4.09,14.6-15,28.75-31.9,42.2c-92.95,45.63-367.4,78.68-691.5,78.68
				s-598.55-33.05-691.5-78.68c-16.91-13.45-27.81-27.6-31.9-42.2c26.69-58.5,340.37-104.67,723.4-104.67
				S2697.4,1300.11,2724.09,1358.61z"/>
		</g>
		<g>
			<path class="st2" d="M2000.69,1540.5c-194.69,0-377.87-19.15-515.79-53.93c-101.08-25.49-221.57-70.65-221.57-141.05
				c0-70.41,120.49-115.57,221.57-141.05c137.92-34.78,321.1-53.93,515.79-53.93s377.87,19.15,515.79,53.93
				c101.08,25.49,221.58,70.64,221.58,141.05c0,70.41-120.5,115.57-221.58,141.05C2378.56,1521.35,2195.38,1540.5,2000.69,1540.5z
				 M2000.69,1174.78c-426.57,0-713.12,88.28-713.12,170.74c0,82.46,286.55,170.74,713.12,170.74s713.13-88.29,713.13-170.74
				C2713.82,1263.06,2427.26,1174.78,2000.69,1174.78z"/>
		</g>
		<g>
			<g>
				<path class="st11" d="M3194.15,1129.48c0,0,0,48.02,0,69.68c0,129.68-534.33,234.8-1193.46,234.8s-1193.46-105.12-1193.46-234.8
					c0-22.97,0-69.68,0-69.68"/>
			</g>
			<g>
				<path class="st2" d="M2000.69,1435.92c-318.91,0-618.75-24.44-844.28-68.81c-226.44-44.55-351.14-104.2-351.14-167.95v-69.68
					h3.92v69.68c0,128.39,534.5,232.84,1191.5,232.84s1191.5-104.45,1191.5-232.84v-69.68h3.92v69.68
					c0,63.75-124.7,123.4-351.14,167.95C2619.44,1411.48,2319.6,1435.92,2000.69,1435.92z"/>
			</g>
		</g>
		<g class="st9">
			<path class="st2" d="M3194.16,1166.84v32.33c0,129.67-534.33,234.79-1193.47,234.79S807.22,1328.83,807.22,1199.17v-32.33
				c0,129.67,534.33,234.79,1193.47,234.79S3194.16,1296.51,3194.16,1166.84z"/>
		</g>
		<g>
			<path class="st2" d="M2000.69,1446.08c-319.55,0-620.08-24.5-846.24-69c-163.93-32.25-359.34-89.3-359.34-177.92v-69.68
				c0-6.69,5.43-12.12,12.12-12.12s12.12,5.43,12.12,12.12v69.68c0,107.54,474.69,222.68,1181.34,222.68
				s1181.34-115.14,1181.34-222.68v-69.68c0-6.69,5.43-12.12,12.12-12.12s12.12,5.43,12.12,12.12v69.68
				c0,88.62-195.41,145.67-359.34,177.92C2620.77,1421.57,2320.23,1446.08,2000.69,1446.08z"/>
		</g>
		<g>
			<ellipse class="st12" cx="1999.3" cy="1129.48" rx="1193.46" ry="234.8"/>
		</g>
		<g class="st6">
			<g>
				<path class="st0" d="M2016.35,1312.66c-42.18,0-75.22-24.07-75.22-54.81s33.04-54.81,75.22-54.81
					c42.18,0,75.22,24.07,75.22,54.81S2058.53,1312.66,2016.35,1312.66z M2016.35,1227.29c-27.64,0-50.99,14-50.99,30.57
					s23.35,30.57,50.99,30.57c27.64,0,50.99-14,50.99-30.57S2043.98,1227.29,2016.35,1227.29z"/>
			</g>
		</g>
		<g class="st6">
			<g>
				<path class="st0" d="M2484.48,1297.75c-17.46,0-34.03-4.31-47.14-12.32c-15.59-9.53-24.93-23.78-25.63-39.09
					c-0.7-15.31,7.29-30.35,21.94-41.27c13.46-10.03,31.45-16.04,50.69-16.92c42.08-1.94,76.24,20.6,77.66,51.3v0
					c1.4,30.7-30.5,56.26-72.63,58.19C2487.73,1297.71,2486.1,1297.75,2484.48,1297.75z M2489.2,1212.27
					c-1.24,0-2.48,0.03-3.74,0.09c-14.24,0.65-27.83,5.08-37.31,12.15c-4.76,3.54-12.66,10.95-12.21,20.73
					c0.45,9.78,9,16.43,14.06,19.52c10.08,6.17,24.02,9.32,38.27,8.68c27.6-1.27,50.29-16.32,49.53-32.87
					C2537.06,1224.75,2515.19,1212.27,2489.2,1212.27z"/>
			</g>
		</g>
		<g class="st6">
			<g>
				<path class="st0" d="M2883.67,1229.93c-39.77,0-71.24-21.92-72.61-51.38c-0.71-15.31,7.28-30.36,21.92-41.28
					c13.45-10.04,31.45-16.06,50.68-16.95c19.22-0.88,37.71,3.43,52.03,12.18c15.59,9.52,24.94,23.77,25.65,39.08l0,0
					c0.71,15.31-7.28,30.36-21.92,41.28c-13.45,10.04-31.45,16.06-50.68,16.95C2887.04,1229.89,2885.35,1229.93,2883.67,1229.93z
					 M2888.51,1144.44c-1.24,0-2.48,0.03-3.73,0.09c-14.24,0.66-27.83,5.09-37.31,12.16c-4.75,3.55-12.66,10.96-12.2,20.74
					c0.76,16.55,24.83,29.48,52.35,28.17c14.24-0.66,27.83-5.09,37.31-12.16c4.75-3.55,12.66-10.96,12.2-20.74l0,0
					c-0.45-9.78-9.01-16.42-14.07-19.52C2913.85,1147.56,2901.43,1144.44,2888.51,1144.44z"/>
			</g>
		</g>
		<g class="st6">
			<g>
				<path class="st0" d="M1559.94,1297.75c-1.66,0-3.33-0.04-5.02-0.12c-42.14-1.93-74.04-27.5-72.63-58.19v0
					c1.41-30.7,35.56-53.25,77.65-51.3c19.23,0.88,37.23,6.89,50.69,16.92c14.65,10.92,22.65,25.96,21.94,41.27
					C1631.21,1275.81,1599.73,1297.75,1559.94,1297.75z M1506.49,1240.55c-0.76,16.55,21.92,31.61,49.53,32.87
					c27.64,1.25,51.57-11.65,52.33-28.2c0.45-9.78-7.46-17.18-12.21-20.73c-9.48-7.07-23.08-11.49-37.31-12.15
					C1531.22,1211.11,1507.26,1224,1506.49,1240.55L1506.49,1240.55z"/>
			</g>
		</g>
		<g class="st6">
			<g>
				<path class="st0" d="M1160.62,1229.93c-1.68,0-3.37-0.04-5.08-0.12c-19.23-0.89-37.23-6.91-50.68-16.95
					c-14.64-10.93-22.63-25.97-21.92-41.28c0.71-15.31,10.06-29.55,25.65-39.08c14.32-8.75,32.81-13.08,52.03-12.18
					c19.23,0.89,37.23,6.91,50.68,16.95c14.64,10.93,22.63,25.97,21.92,41.28C1231.85,1208,1200.38,1229.93,1160.62,1229.93z
					 M1155.77,1144.44c-12.92,0-25.34,3.12-34.55,8.74c-5.06,3.09-13.62,9.74-14.07,19.52l0,0c-0.45,9.77,7.45,17.19,12.2,20.74
					c9.48,7.07,23.07,11.5,37.31,12.16c27.57,1.27,51.58-11.62,52.35-28.17c0.45-9.78-7.45-17.19-12.2-20.74
					c-9.48-7.07-23.07-11.5-37.31-12.16C1158.26,1144.47,1157.01,1144.44,1155.77,1144.44z M1095.05,1172.14h0.04H1095.05z"/>
			</g>
		</g>
		<g class="st6">
			<path class="st0" d="M2699.77,1024.57c0,60.61-310.4,146.58-693.29,146.58s-693.29-85.97-693.29-146.58
				s310.4-109.75,693.29-109.75S2699.77,963.96,2699.77,1024.57z"/>
		</g>
		<g class="st9">
			<path class="st2" d="M2493.08,1059.34c0,0,186.17,93.75,220.45,141.91c34.27,48.16,99.16,100.3,99.16,100.3
				s600.39-117.89,292.64-254.98c0,0,77.78,50.1,56.5,87.07c-30.8,53.49-164.16,101.51-252.15,120.39
				c-46.98,10.08-96.04-3.15-131.23-35.86c-46.67-43.38-127.33-106.86-243.45-158.83
				C2495.07,1041.47,2493.08,1059.34,2493.08,1059.34z"/>
		</g>
		<g class="st9">
			<path class="st2" d="M1519.87,1059.34c0,0-186.17,93.75-220.44,141.91c-34.27,48.16-99.16,100.3-99.16,100.3
				s-600.39-117.89-292.64-254.98c0,0-79.62,51.22-56.5,87.07c38.87,60.25,158.68,99.9,246.53,119.18
				c50.23,11.02,102.56-3.22,140.46-37.98c47.17-43.25,126.66-104.84,239.84-155.49
				C1517.88,1041.47,1519.87,1059.34,1519.87,1059.34z"/>
		</g>
		<g class="st9">
			<path class="st2" d="M1513.12,1065.54c0,0-269.37,142.2-310.44,238.53c0,0,327.84,60.21,798.01,60.21s802.41-67.65,802.41-67.65
				s-197.25-224.81-328.54-234.54s-37.98,9.49-37.98,9.49s184.13,81.37,279.74,173.22c14.59,14.02,6.78,38.65-13.27,41.44
				c-105.93,14.75-388.09,49.32-706.44,49.32c-314.32,0-585.13-32.48-690.42-46.99c-20.11-2.77-28.05-27.62-13.24-41.5
				c16.54-15.5,39.25-35.1,68.26-56.47c48.41-35.65,177.84-110.69,177.84-110.69L1513.12,1065.54z"/>
		</g>
		<g>
			<path class="st13" d="M2643.76,1000.82c0,69.87-287.92,126.52-643.08,126.52s-643.08-56.64-643.08-126.52
				s643.08-72.99,643.08-72.99S2643.76,930.94,2643.76,1000.82z"/>
			<path class="st2" d="M2000.69,1129.87c-362.02,0-645.61-56.68-645.61-129.05c0-70.36,579.51-75.2,645.59-75.52
				c66.1,0.32,645.62,5.16,645.62,75.52C2646.29,1073.18,2362.71,1129.87,2000.69,1129.87z M2000.68,930.35
				c-178.14,0.86-640.53,15.21-640.53,70.46c0,31.98,67.91,63.69,186.31,86.98c121.31,23.87,282.62,37.01,454.24,37.01
				s332.93-13.14,454.24-37.01c118.4-23.29,186.31-55,186.31-86.98C2641.24,945.56,2178.84,931.22,2000.68,930.35z"/>
		</g>
		<g>
			<path class="st13" d="M1928.62,1128.22c4.6,0.17,9.22,0.32,13.86,0.45h0.34c18.91,0.53,38.22,0.81,57.86,0.81
				c33.74,0,66.53-0.81,97.9-2.31c0.02,0,0.02,0,0.02,0c180.39-8.65,314.27-40.63,314.27-78.78c0-32.34-214.92-42.37-334.38-45.44
				c-1.57-0.04-3.14-0.06-4.66-0.11c-9.86-0.25-18.99-0.45-27.24-0.59c-28.15-0.55-45.91-0.64-45.91-0.64s-13.61,0.06-35.86,0.45
				c-1.4,0.02-2.86,0.04-4.35,0.06c-12.51,0.23-27.43,0.55-43.98,1c-120.56,3.26-328.02,13.5-328.02,45.27
				c0,37.22,127.45,68.59,301.15,78.13c0.68,0.02,1.34,0.06,2.01,0.11L1928.62,1128.22z"/>
			<path class="st2" d="M2000.69,1132c-19.34,0-38.83-0.27-57.93-0.81c-4.99-0.13-9.61-0.28-14.22-0.44h-0.02l-36.99-1.61
				c-0.87-0.05-1.41-0.09-1.98-0.1c-151.15-8.3-303.6-36.46-303.6-80.65c0-25.78,111.19-41.86,330.48-47.8
				c16.56-0.45,31.49-0.77,44-1l4.35-0.06c22.27-0.38,35.89-0.44,35.89-0.44c0.2,0,18.13,0.09,45.97,0.63
				c8.25,0.15,17.39,0.34,27.25,0.6l4.67,0.11c153.66,3.95,336.84,15.48,336.84,47.97c0,45.68-159.05,73.75-316.67,81.31
				C2066.7,1131.23,2033.72,1132,2000.69,1132z M1928.73,1125.7c4.59,0.17,9.19,0.32,13.82,0.44c52.54,1.44,105.3,0.92,155.91-1.5
				c180.73-8.66,311.88-40.73,311.88-76.26c0-21.53-124.08-37.57-331.92-42.92l-4.67-0.11c-9.84-0.25-18.97-0.44-27.21-0.59
				c-27.81-0.55-45.7-0.63-45.88-0.63c0.01,0-13.58,0.06-35.81,0.44l-4.35,0.06c-12.49,0.23-27.4,0.55-43.95,0.99
				c-203.86,5.52-325.56,21.5-325.56,42.75c0,34.3,125.64,66.1,298.75,75.6c0.55,0.01,1.15,0.05,1.77,0.09L1928.73,1125.7z"/>
		</g>
		<g>
			<path class="st14" d="M2643.77,1000.81c0,8.11-3.89,16.06-11.28,23.76c-85.81-55.13-631.79-57.75-631.79-57.75
				s-545.99,2.63-631.8,57.75c-7.4-7.7-11.28-15.65-11.28-23.76c0-69.85,643.08-72.99,643.08-72.99S2643.77,930.96,2643.77,1000.81z
				"/>
			<path class="st2" d="M1368.51,1027.83l-1.44-1.5c-7.96-8.29-11.99-16.87-11.99-25.51c0-70.34,579.52-75.2,645.6-75.52
				c66.1,0.32,645.62,5.18,645.62,75.52c0,8.65-4.04,17.23-11.99,25.51l-1.44,1.5l-1.75-1.12c-84.21-54.1-624.99-57.32-630.44-57.35
				c-5.43,0.03-546.2,3.25-630.42,57.35L1368.51,1027.83z M2000.68,964.29c22.19,0.11,540.58,3.22,631.36,57.04
				c6.11-6.83,9.2-13.72,9.2-20.52c0-55.24-462.4-69.59-640.56-70.46c-178.14,0.87-640.54,15.22-640.54,70.46
				c0,6.8,3.09,13.69,9.2,20.52C1460.13,967.51,1978.51,964.4,2000.68,964.29z"/>
		</g>
		<g>
			<path class="st2" d="M2000.69,1376.4c-319.55,0-620.08-24.5-846.24-69c-163.93-32.25-359.34-89.3-359.34-177.92
				c0-88.62,195.41-145.67,359.34-177.92c226.16-44.5,526.7-69,846.24-69s620.08,24.5,846.24,69
				c163.93,32.25,359.34,89.3,359.34,177.92c0,88.62-195.41,145.67-359.34,177.92C2620.77,1351.89,2320.23,1376.4,2000.69,1376.4z
				 M2000.69,906.79c-706.65,0-1181.34,115.14-1181.34,222.68s474.69,222.68,1181.34,222.68s1181.34-115.14,1181.34-222.68
				S2707.34,906.79,2000.69,906.79z"/>
		</g>
		<g>
			<path class="st15" d="M2635.18,1012.12c0,68.94-284.07,124.83-634.49,124.83s-634.49-55.89-634.49-124.83
				c0-241.59,124.5-737.12,634.49-737.12S2635.18,770.54,2635.18,1012.12z"/>
		</g>
		<g class="st6">
			<path class="st0" d="M1389.69,1035.61c0-241.59,124.5-737.12,634.49-737.12c179.35,0,310.98,61.33,406.33,151.3
				C2333.66,347.16,2195.25,275,2000.69,275c-509.99,0-634.49,495.54-634.49,737.12c0,12.45,9.32,24.48,26.57,35.83
				C1390.75,1043.89,1389.69,1039.78,1389.69,1035.61z"/>
		</g>
		<g>
			<path class="st2" d="M2000.69,1153.3c-261.62,0-650.84-37.6-650.84-141.18c0-60.8,9.26-274.2,128.43-467.73
				c115.1-186.94,295.75-285.74,522.41-285.74c514.81,0,650.84,492.86,650.84,753.47C2651.53,1115.71,2262.31,1153.3,2000.69,1153.3
				z M2000.69,291.35c-488.95,0-618.14,471.47-618.14,720.77c0,14.21,36.36,45.41,172.64,72.22
				c118.83,23.38,277.04,36.25,445.49,36.25s326.67-12.88,445.5-36.25c136.28-26.81,172.64-58.02,172.64-72.22
				c0-120.81-32.46-302.62-123.57-450.58C2384.87,382.26,2218.47,291.35,2000.69,291.35z"/>
		</g>
		<g>
			<g>
				<ellipse class="st16" cx="2000.69" cy="1253.94" rx="63.1" ry="42.69"/>
			</g>
			<g>
				<path class="st2" d="M2000.69,1299.16c-36.19,0-65.63-20.29-65.63-45.22c0-24.93,29.44-45.21,65.63-45.21
					s65.63,20.28,65.63,45.21C2066.32,1278.87,2036.88,1299.16,2000.69,1299.16z M2000.69,1213.78c-33.4,0-60.57,18.01-60.57,40.16
					c0,22.14,27.17,40.16,60.57,40.16s60.57-18.02,60.57-40.16C2061.26,1231.8,2034.09,1213.78,2000.69,1213.78z"/>
			</g>
		</g>
		<g class="st9">
			<path class="st13" d="M2063.8,1253.94c0,4.57-1.06,8.97-3.03,13.09c-8.18-17.18-31.99-29.6-60.08-29.6s-51.9,12.42-60.08,29.6
				c-1.97-4.12-3.03-8.51-3.03-13.09c0-23.57,28.27-42.69,63.11-42.69S2063.8,1230.37,2063.8,1253.94z"/>
			<path class="st2" d="M2060.76,1272.9l-2.28-4.79c-8.02-16.84-31.25-28.16-57.8-28.16s-49.77,11.32-57.79,28.16l-2.28,4.79
				l-2.29-4.78c-2.17-4.55-3.28-9.32-3.28-14.18c0-24.93,29.44-45.21,65.63-45.21s65.64,20.28,65.64,45.21
				c0,4.85-1.1,9.62-3.28,14.18L2060.76,1272.9z M2000.69,1213.78c-33.4,0-60.58,18.01-60.58,40.16c0,2.42,0.32,4.81,0.97,7.17
				c10.6-15.86,33.69-26.21,59.6-26.21s49,10.34,59.61,26.21c0.65-2.35,0.97-4.75,0.97-7.17
				C2061.27,1231.8,2034.09,1213.78,2000.69,1213.78z"/>
		</g>
		<g>
			<path class="st2" d="M2000.69,1308.75c-42.18,0-75.22-24.07-75.22-54.81c0-30.73,33.04-54.8,75.22-54.8s75.22,24.07,75.22,54.8
				C2075.91,1284.67,2042.87,1308.75,2000.69,1308.75z M2000.69,1223.37c-27.64,0-50.98,14-50.98,30.57
				c0,16.57,23.35,30.57,50.98,30.57s50.98-14,50.98-30.57C2051.67,1237.37,2028.33,1223.37,2000.69,1223.37z"/>
		</g>
		<g>
			<g>
				
					<ellipse transform="matrix(0.9989 -0.0458 0.0458 0.9989 -54.1882 114.5628)" class="st16" cx="2471.2" cy="1238.97" rx="63.1" ry="42.69"/>
			</g>
			<g>
				<path class="st2" d="M2468.8,1284.25c-15.69,0-30.5-3.82-42.11-10.92c-13.01-7.96-20.49-19.09-21.05-31.35
					c-0.56-12.25,5.86-24.03,18.09-33.14c11.94-8.9,28.06-14.24,45.4-15.03c17.31-0.79,33.88,3.04,46.58,10.81
					c13.01,7.96,20.49,19.09,21.05,31.35v0c0.56,12.26-5.86,24.03-18.09,33.14c-11.94,8.9-28.06,14.24-45.4,15.03
					C2471.77,1284.21,2470.28,1284.25,2468.8,1284.25z M2473.61,1198.76c-1.41,0-2.83,0.03-4.25,0.1
					c-16.34,0.75-31.47,5.73-42.6,14.04c-10.84,8.08-16.55,18.33-16.06,28.85c0.48,10.53,7.1,20.21,18.64,27.27
					c11.85,7.25,27.38,10.84,43.71,10.07c16.34-0.75,31.47-5.73,42.61-14.04c10.84-8.08,16.55-18.33,16.06-28.85v0
					c-0.48-10.52-7.1-20.21-18.64-27.26C2502.25,1202.32,2488.38,1198.76,2473.61,1198.76z"/>
			</g>
		</g>
		<g class="st9">
			<path class="st13" d="M2534.23,1239.13c0.42,9.15-3.45,17.81-10.39,25.12c0-0.42,0-0.85-0.03-1.27
				c-1.06-23.54-30.17-41.32-64.98-39.75c-21.27,0.97-39.78,8.97-50.68,20.42c-0.09-22.99,26.9-42.72,61.11-44.29
				C2504.05,1197.77,2533.17,1215.56,2534.23,1239.13z"/>
			<path class="st2" d="M2521.31,1270.57v-6.33c0-0.36,0-0.73-0.02-1.1c-0.48-10.58-7.09-20.25-18.63-27.31
				c-11.85-7.24-27.36-10.82-43.72-10.09c-19.81,0.9-38.12,8.24-48.97,19.64l-4.34,4.55l-0.02-6.29
				c-0.1-24.61,27.81-45.18,63.52-46.83c17.36-0.76,33.89,3.06,46.58,10.83c13.02,7.96,20.49,19.1,21.04,31.36
				c0.44,9.55-3.39,18.88-11.09,26.97L2521.31,1270.57z M2463.12,1220.59c15.72,0,30.55,3.82,42.17,10.93
				c11.27,6.89,18.39,16.16,20.45,26.47c4.21-5.9,6.26-12.29,5.96-18.75v0c-0.47-10.53-7.09-20.22-18.63-27.28
				c-11.85-7.25-27.37-10.82-43.71-10.09c-29.16,1.34-53.37,16.6-57.92,35.31c11.88-9.6,29.02-15.66,47.27-16.49
				C2460.18,1220.63,2461.66,1220.59,2463.12,1220.59z"/>
		</g>
		<g>
			<path class="st2" d="M2468.82,1293.84c-17.45,0-34.03-4.31-47.13-12.32c-15.59-9.53-24.93-23.78-25.63-39.09
				c-0.7-15.31,7.29-30.35,21.94-41.27c13.45-10.03,31.46-16.04,50.69-16.92c19.19-0.87,37.71,3.45,52.02,12.21
				c15.59,9.53,24.93,23.78,25.63,39.09v0c0.7,15.31-7.29,30.35-21.94,41.27c-13.45,10.03-31.46,16.04-50.69,16.92
				C2472.08,1293.8,2470.44,1293.84,2468.82,1293.84z M2473.48,1208.35c-1.22,0-2.45,0.03-3.68,0.08
				c-14.24,0.65-27.83,5.08-37.31,12.15c-4.76,3.54-12.66,10.95-12.22,20.73c0.45,9.78,9,16.43,14.06,19.52
				c10.09,6.17,24.06,9.33,38.27,8.68c14.24-0.65,27.84-5.08,37.31-12.15c4.76-3.55,12.66-10.95,12.22-20.73v0
				c-0.45-9.78-9-16.43-14.06-19.52C2498.85,1211.48,2486.42,1208.35,2473.48,1208.35z"/>
		</g>
		<g>
			<g>
				
					<ellipse transform="matrix(0.9989 -0.0464 0.0464 0.9989 -51.2147 134.3564)" class="st16" cx="2870.54" cy="1171.15" rx="63.1" ry="42.69"/>
			</g>
			<g>
				<path class="st2" d="M2868.12,1216.42c-15.68,0-30.47-3.81-42.07-10.89c-13.02-7.95-20.5-19.08-21.07-31.34
					c-0.57-12.25,5.85-24.03,18.08-33.15c11.93-8.91,28.05-14.25,45.39-15.06c36.13-1.69,66.5,17.22,67.66,42.12
					c0.57,12.25-5.85,24.03-18.08,33.15c-11.93,8.9-28.05,14.25-45.39,15.06C2871.13,1216.39,2869.62,1216.42,2868.12,1216.42z
					 M2872.95,1130.93c-1.41,0-2.84,0.03-4.27,0.1c-16.34,0.76-31.46,5.75-42.6,14.06c-10.84,8.09-16.54,18.34-16.05,28.86
					c0.49,10.52,7.11,20.2,18.65,27.25c11.86,7.24,27.35,10.83,43.72,10.05c16.34-0.76,31.46-5.75,42.6-14.06
					c10.84-8.09,16.54-18.34,16.05-28.86C2930.07,1147.17,2904.4,1130.93,2872.95,1130.93z"/>
			</g>
		</g>
		<g class="st9">
			<path class="st13" d="M2933.59,1168.23c0.76,16.42-12.33,31.33-32.14,39.38c5-6.48,7.7-13.85,7.33-21.54
				c-1.09-23.54-30.2-41.32-65.01-39.72c-10.54,0.48-20.39,2.7-28.96,6.21c10.24-13.36,30.33-22.96,53.78-24.05
				C2903.38,1126.88,2932.5,1144.66,2933.59,1168.23z"/>
			<path class="st2" d="M2893.73,1213.49l5.71-7.41c4.78-6.2,7.13-13.07,6.81-19.88c-1.03-22.11-28.97-38.88-62.37-37.31
				c-9.89,0.45-19.62,2.54-28.12,6.02l-8.66,3.55l5.69-7.43c11.01-14.36,32.34-23.96,55.66-25.04c17.32-0.81,33.88,3.01,46.59,10.78
				c13.02,7.95,20.5,19.09,21.07,31.35l0,0c0.78,17.03-12.14,33.07-33.72,41.84L2893.73,1213.49z M2848.07,1143.73
				c34.17,0,62.12,18.36,63.23,42.23c0.25,5.32-0.86,10.65-3.25,15.73c14.95-8.24,23.6-20.53,23.01-33.33
				c-0.49-10.53-7.11-20.22-18.65-27.27c-11.85-7.24-27.4-10.82-43.71-10.04c-17.6,0.82-33.91,6.7-44.88,15.84
				c6.34-1.7,13.06-2.74,19.83-3.05C2845.13,1143.76,2846.61,1143.73,2848.07,1143.73z"/>
		</g>
		<g>
			<path class="st2" d="M2868.14,1226.01c-17.43,0-33.99-4.3-47.08-12.3c-15.59-9.52-24.94-23.77-25.65-39.07
				c-0.71-15.31,7.28-30.35,21.92-41.28c13.45-10.04,31.45-16.06,50.68-16.95c42.1-2.01,76.25,20.56,77.68,51.26
				c0.71,15.31-7.28,30.35-21.92,41.28c-13.45,10.04-31.45,16.06-50.68,16.95C2871.43,1225.97,2869.78,1226.01,2868.14,1226.01z
				 M2872.91,1140.52c-1.25,0-2.51,0.03-3.78,0.09c-14.24,0.66-27.83,5.1-37.3,12.17c-4.75,3.55-12.66,10.96-12.21,20.73
				c0.45,9.78,9.01,16.42,14.07,19.51c10.09,6.16,24.07,9.31,38.27,8.66c14.24-0.66,27.83-5.1,37.3-12.17
				c4.75-3.55,12.66-10.96,12.21-20.73C2920.74,1153,2898.89,1140.52,2872.91,1140.52z"/>
		</g>
		<g>
			<g>
				
					<ellipse transform="matrix(0.0458 -0.9989 0.9989 0.0458 233.4309 2722.3357)" class="st16" cx="1541.77" cy="1238.97" rx="42.69" ry="63.1"/>
			</g>
			<g>
				<path class="st2" d="M1544.17,1284.25c-1.48,0-2.98-0.03-4.48-0.1c-17.34-0.8-33.46-6.14-45.4-15.03
					c-12.23-9.12-18.65-20.89-18.09-33.14c0.56-12.25,8.04-23.39,21.05-31.35c12.71-7.77,29.26-11.6,46.58-10.81
					c17.34,0.8,33.46,6.14,45.4,15.03c12.23,9.12,18.65,20.89,18.09,33.14c-0.56,12.25-8.04,23.39-21.05,31.35
					C1574.67,1280.43,1559.86,1284.25,1544.17,1284.25z M1539.36,1198.76c-14.77,0-28.64,3.56-39.46,10.17
					c-11.54,7.06-18.16,16.74-18.64,27.26v0c-0.48,10.52,5.22,20.77,16.06,28.85c11.14,8.3,26.27,13.29,42.6,14.04
					c16.33,0.76,31.87-2.83,43.71-10.07c11.54-7.06,18.16-16.74,18.64-27.26c0.48-10.53-5.22-20.78-16.06-28.86
					c-11.14-8.3-26.27-13.29-42.6-14.04C1542.19,1198.79,1540.76,1198.76,1539.36,1198.76z"/>
			</g>
		</g>
		<g class="st9">
			<path class="st13" d="M1604.81,1241.85c-0.52,11-7.12,20.72-17.54,27.78c0.67-2.24,1.06-4.57,1.18-6.94
				c1.06-23.54-26.27-43.93-61.08-45.53c-18.57-0.85-35.54,3.82-47.44,11.94c5.85-20,32.51-34.2,63.77-32.78
				C1578.55,1197.92,1605.87,1218.31,1604.81,1241.85z"/>
			<path class="st2" d="M1582.83,1275.7l2.02-6.78c0.61-2.03,0.97-4.17,1.08-6.35c0.99-22.1-25.32-41.34-58.67-42.88
				c-17.29-0.82-34.03,3.4-45.9,11.5l-5.83,3.98l1.98-6.78c6.29-21.51,34.2-36.09,66.32-34.6c36.15,1.67,64.64,23.28,63.52,48.18v0
				c-0.53,11.41-7.16,21.98-18.65,29.76L1582.83,1275.7z M1523.15,1214.54c1.44,0,2.89,0.03,4.34,0.1
				c36.13,1.67,64.61,23.28,63.49,48.18c-0.01,0.26-0.03,0.52-0.05,0.79c7-6.26,10.98-13.85,11.36-21.86
				c0.99-22.11-25.34-41.35-58.7-42.89c-25.7-1.21-49.04,8.87-58.21,24.12C1496.18,1217.51,1509.42,1214.54,1523.15,1214.54z"/>
		</g>
		<g>
			<path class="st2" d="M1544.15,1293.84c-1.63,0-3.26-0.04-4.9-0.11c-19.23-0.88-37.23-6.89-50.69-16.92
				c-14.65-10.92-22.64-25.96-21.94-41.27c0.7-15.31,10.04-29.55,25.63-39.09c14.32-8.75,32.81-13.09,52.02-12.21
				c19.23,0.88,37.23,6.89,50.69,16.92c14.65,10.92,22.64,25.96,21.94,41.27c-0.7,15.31-10.04,29.55-25.63,39.09
				C1578.18,1289.52,1561.6,1293.83,1544.15,1293.84z M1539.49,1208.35c-12.94,0-25.37,3.12-34.59,8.76
				c-5.06,3.09-13.61,9.74-14.06,19.52v0c-0.45,9.78,7.46,17.18,12.22,20.73c9.48,7.07,23.08,11.49,37.31,12.15
				c14.23,0.64,28.19-2.51,38.27-8.68c5.06-3.1,13.62-9.75,14.06-19.52c0.45-9.78-7.46-17.19-12.22-20.73
				c-9.48-7.07-23.08-11.49-37.31-12.15C1541.94,1208.38,1540.71,1208.35,1539.49,1208.35z M1478.73,1236.08h0.05H1478.73z"/>
		</g>
		<g>
			<g>
				
					<ellipse transform="matrix(0.0464 -0.9989 0.9989 0.0464 -80.4375 2258.0403)" class="st17" cx="1142.42" cy="1171.15" rx="42.69" ry="63.1"/>
				<path class="st2" d="M1144.79,1215.85c-1.47,0-2.95-0.03-4.44-0.1c-17.22-0.8-33.23-6.11-45.07-14.94
					c-12.07-9.01-18.41-20.61-17.85-32.67c1.14-24.59,31.26-43.19,67.06-41.58c17.22,0.8,33.23,6.11,45.07,14.95
					c12.07,9.01,18.41,20.61,17.85,32.67C1206.32,1197.73,1178.64,1215.85,1144.79,1215.85z M1140.02,1130.36
					c-31.76,0-57.68,16.47-58.67,37.95c-0.5,10.72,5.28,21.15,16.28,29.35c11.22,8.37,26.46,13.41,42.91,14.17
					c33.63,1.59,61.93-15.41,62.97-37.85c0.5-10.72-5.28-21.14-16.28-29.35c-11.22-8.38-26.46-13.41-42.91-14.17
					C1142.87,1130.4,1141.44,1130.36,1140.02,1130.36z"/>
			</g>
			<g>
				<path class="st2" d="M1144.96,1226.01c-1.68,0-3.37-0.04-5.08-0.12c-19.23-0.89-37.23-6.91-50.68-16.95
					c-14.64-10.93-22.63-25.97-21.92-41.28c1.43-30.7,35.6-53.26,77.68-51.26c19.23,0.89,37.23,6.91,50.68,16.95
					c14.64,10.93,22.63,25.97,21.92,41.28C1216.19,1204.09,1184.72,1226.01,1144.96,1226.01z M1140.06,1140.52
					c-25.98,0-47.83,12.47-48.57,28.26c-0.45,9.78,7.45,17.19,12.21,20.73c9.47,7.07,23.07,11.5,37.3,12.17
					c27.6,1.26,51.58-11.62,52.35-28.17c0.45-9.78-7.45-17.19-12.21-20.73c-9.47-7.07-23.07-11.5-37.3-12.17
					C1142.57,1140.55,1141.31,1140.52,1140.06,1140.52z"/>
			</g>
		</g>
		<g>
			<g>
				
					<ellipse transform="matrix(0.0464 -0.9989 0.9989 0.0464 -80.4375 2258.0403)" class="st16" cx="1142.42" cy="1171.15" rx="42.69" ry="63.1"/>
			</g>
			<g>
				<path class="st2" d="M1144.78,1216.42c-1.48,0-2.96-0.03-4.46-0.1c-17.34-0.8-33.45-6.15-45.39-15.06
					c-12.22-9.13-18.65-20.9-18.08-33.15c1.16-24.9,31.5-43.77,67.66-42.12c17.34,0.81,33.45,6.15,45.39,15.06
					c12.22,9.12,18.65,20.9,18.08,33.15C1206.88,1198.06,1178.94,1216.42,1144.78,1216.42z M1140.01,1130.93
					c-31.45,0-57.12,16.24-58.1,37.4c-0.49,10.52,5.21,20.78,16.05,28.86c11.13,8.31,26.26,13.3,42.6,14.06
					c33.36,1.6,61.35-15.19,62.37-37.3c0.49-10.53-5.21-20.78-16.05-28.86c-11.13-8.31-26.26-13.3-42.6-14.06
					C1142.85,1130.97,1141.42,1130.93,1140.01,1130.93z"/>
			</g>
		</g>
		<g class="st9">
			<path class="st13" d="M1205.46,1174.08c-0.79,17.18-16.51,31.27-38.48,36.99c6.42-6.27,10.3-13.88,10.69-22.18
				c1.09-23.54-26.24-43.96-61.05-45.56c-9.45-0.42-18.45,0.55-26.6,2.73c11.69-11.51,31.84-18.6,54.38-17.54
				C1179.22,1130.12,1206.55,1150.51,1205.46,1174.08z"/>
			<path class="st2" d="M1158.39,1215.92l6.82-6.66c6.15-6,9.58-13.09,9.94-20.49c0.49-10.52-5.21-20.77-16.05-28.86
				c-11.13-8.31-26.26-13.31-42.59-14.06c-9.09-0.41-17.76,0.49-25.83,2.64l-9.26,2.48l6.83-6.72c12.7-12.5,33.73-19.3,56.27-18.27
				c17.33,0.8,33.45,6.14,45.38,15.05c12.22,9.12,18.64,20.9,18.08,33.16v0c-0.81,17.71-16.66,33.14-40.37,39.32L1158.39,1215.92z
				 M1112.28,1140.7c1.48,0,2.96,0.03,4.46,0.1c17.34,0.8,33.45,6.15,45.39,15.06c12.22,9.13,18.64,20.9,18.08,33.15
				c-0.29,5.97-2.24,11.73-5.72,16.98c16.93-6.61,27.83-18.63,28.45-32.03l0,0c0.49-10.53-5.21-20.79-16.05-28.88
				c-11.13-8.3-26.25-13.29-42.59-14.05c-16.9-0.8-32.79,3.05-44.47,10.49C1103.87,1140.98,1108.03,1140.7,1112.28,1140.7z"/>
		</g>
		<g>
			<path class="st2" d="M1144.96,1226.01c-1.68,0-3.37-0.04-5.08-0.12c-19.23-0.89-37.23-6.91-50.68-16.95
				c-14.64-10.93-22.63-25.97-21.92-41.28c1.43-30.7,35.6-53.26,77.68-51.26c19.23,0.89,37.23,6.91,50.68,16.95
				c14.64,10.93,22.63,25.97,21.92,41.28C1216.19,1204.09,1184.72,1226.01,1144.96,1226.01z M1140.06,1140.52
				c-25.98,0-47.83,12.47-48.57,28.26c-0.45,9.78,7.45,17.19,12.21,20.73c9.47,7.07,23.07,11.5,37.3,12.17
				c27.6,1.26,51.58-11.62,52.35-28.17c0.45-9.78-7.45-17.19-12.21-20.73c-9.47-7.07-23.07-11.5-37.3-12.17
				C1142.57,1140.55,1141.31,1140.52,1140.06,1140.52z"/>
		</g>
		<g>
			<path class="st2" d="M2807.16,1314.68c-3.91,0-7.75-1.89-10.09-5.39c-95.05-142.24-284.26-211.98-286.16-212.67
				c-6.29-2.28-9.55-9.22-7.27-15.52c2.28-6.29,9.22-9.56,15.51-7.28c8.06,2.91,198.53,73.02,298.07,221.99
				c3.72,5.57,2.22,13.09-3.34,16.81C2811.81,1314.02,2809.47,1314.68,2807.16,1314.68z"/>
		</g>
		<g>
			<path class="st2" d="M1204.85,1314.68c-2.31,0-4.65-0.66-6.72-2.04c-5.56-3.72-7.06-11.24-3.34-16.81
				c91.22-136.52,260.41-207.4,293.4-220.22c6.24-2.43,13.26,0.66,15.68,6.9c2.43,6.24-0.67,13.26-6.9,15.68
				c-31.8,12.36-194.85,80.63-282.03,211.1C1212.6,1312.79,1208.76,1314.68,1204.85,1314.68z"/>
		</g>
		<g class="st6">
			<path class="st0" d="M1471.27,872.01c0,0-17.18-106.35,73.46-228.03c77.42-103.93,130.64-40.72,97.45,20.4
				c-45.54,83.86-65.49,163.91-82.07,249.1C1550.62,962.23,1475.77,984.45,1471.27,872.01z"/>
		</g>
		<g class="st6">
			<path class="st0" d="M1695.78,559.42c-18.4,8.55-75.45,15.25-64.21-46.55s78.12-79.46,102.21-58.1
				C1747.84,467.24,1746.74,535.74,1695.78,559.42z"/>
		</g>
		<g class="st6">
			<path class="st0" d="M1001.8,1048.09c59.45-34.92,152.89-58.64,238.23-54.42c77.25,3.82-63.63,31.18-113.16,42.82
				c-35.68,8.39-102.05,33.78-133.41,39.64C962.1,1082,964.2,1070.18,1001.8,1048.09z"/>
		</g>
		<g>
			<g class="st9">
				<path class="st2" d="M2587.23,1022.98c0-209.34-94.95-611.99-459.37-706.37c-0.15-0.11-0.25-0.19-0.39-0.3
					c11.86,9.25,56.41,45.02,109.84,100.96c213.8,223.83,77.37,595.62-230.46,628.02c-187.08,19.69-408.95,18.89-623.61-40.4
					c-5.77-1.59-11.36-3.06-16.97-4.53c-0.03,2.57-0.06,5.15-0.06,7.67c0,67.96,280.03,123.06,625.47,123.06
					c250.14,0,465.95-28.89,566.01-70.64C2576.85,1048.63,2587.23,1036.04,2587.23,1022.98z"/>
			</g>
		</g>
	</g>
</g>
</svg>
