<?xml version="1.0" encoding="utf-8"?>
<!-- Generator: Adobe Illustrator 27.5.0, SVG Export Plug-In . SVG Version: 6.00 Build 0)  -->
<svg version="1.1" id="Layer_1" xmlns="http://www.w3.org/2000/svg" xmlns:xlink="http://www.w3.org/1999/xlink" x="0px" y="0px"
	 viewBox="0 0 351.07 248.25" style="enable-background:new 0 0 351.07 248.25;" xml:space="preserve">
<style type="text/css">
	.st0{fill:#F9DBA2;}
	.st1{opacity:0.5;fill:#B07054;}
	.st2{fill:#B07054;}
	.st3{opacity:0.3;}
	.st4{opacity:0.5;}
	.st5{opacity:0.5;fill:#996148;}
	.st6{opacity:0.4;fill:#B07054;}
	.st7{fill:#E49D6E;}
	.st8{opacity:0.5;fill:#E49D6E;}
	.st9{fill:#FAAE71;}
	.st10{opacity:0.5;fill:#C0855E;}
</style>
<g>
	<g>
		<g>
			<rect x="0" y="0" class="st0" width="351.07" height="248.25"/>
			<rect x="0" y="0" class="st0" width="351.07" height="248.25"/>
			<path class="st0" d="M304.68,90.82c-21.39,9.46-43.96,16.26-67.1,19.78c-23.32,3.54-46.74,3.34-70.23,2.09
				c-23.57-1.25-47.18-3.77-70.23-8.98c-21.9-4.95-43.31-12.16-62.67-23.68C22.18,72.72,10.83,64.08,0,54.81v193.44h351.07V60.78
				C337.35,73.08,321.5,83.38,304.68,90.82z"/>
			<path class="st1" d="M346.42,121.89c-2.85,0.18-5.72,0.63-8.41,1.64c-2.65,1-5.16,2.2-7.92,2.88c-4.54,1.12-9.2,1.41-13.86,1.11
				c-5.18-0.34-10.32-1.16-15.49-1.65c-5.39-0.51-10.75-1.34-15.98-2.77c-4.93-1.35-9.86-3.04-14.18-5.83
				c-3.94-2.54-8-5.71-12.91-5.76c-5.69-0.06-10.71,2.58-15.93,4.47c-5.02,1.81-10.31,3-15.61,3.63
				c-12.14,1.44-24.39,1.65-36.53,3.11c-6.37,0.77-12.72,1.68-19.03,2.81c-6.25,1.11-12.43,2.55-18.72,3.42
				c-12.28,1.7-24.72,1.63-37.09,1.73c-6.11,0.05-12.27,0.5-18.37,0.2c-5.52-0.27-10.99-1.08-16.44-1.97
				c-5.85-0.95-11.71-1.99-17.63-2.4c-5.57-0.38-11-0.03-16.54,0.59c-10.19,1.16-20.41,2.3-30.68,2.35
				c-5,0.02-10.08-0.17-15.07-0.86v119.66h351.07V121.83C349.53,121.79,347.98,121.79,346.42,121.89z"/>
			<path class="st1" d="M348.95,130.14c-8.07-0.06-16.17-0.93-24.1-2.43c-3.86-0.73-7.65-1.89-11.53-2.54
				c-5.73-0.96-11.49-0.88-17.25-0.29c-5.57,0.56-11.11,1.41-16.71,1.68c-5.56,0.27-11.04-0.08-16.51-1.08
				c-10.77-1.96-21.46-5.84-32.53-5.57c-6.09,0.15-11.91,1.9-17.88,2.93c-5.92,1.02-11.88,1.77-17.86,2.27
				c-6.21,0.52-12.44,0.83-18.67,0.95c-6.19,0.13-12.32,0.17-18.48-0.62c-5.92-0.76-11.76-2.09-17.66-0.49
				c-4.89,1.33-9.59,3.37-14.72,3.53c-10.32,0.32-20.35-3.12-30.28-5.43c-5.83-1.36-11.62-1.72-17.6-1.81
				c-5.68-0.08-11.57,0.12-17.11-1.34c-5.05-1.33-9.71-3.65-14.33-6.03c-4.44-2.28-8.78-4.69-13.88-4.92
				c-8.71-0.39-16.59,4.01-23.94,8.15c-2.61,1.47-5.24,2.96-7.92,4.34v126.81h351.07V130.14
				C350.36,130.15,349.64,130.15,348.95,130.14z"/>
			<path class="st2" d="M328.75,134.69c-6.63-0.59-13.34-3.02-20.02-2.21c-4.07,0.5-8.04,1.58-12.09,2.19
				c-3.35,0.5-6.82,0.46-10.2,0.32c-11.4-0.5-22.71-3.24-34.15-2.74c-5.96,0.26-11.76,1.54-17.76,1.34
				c-5.58-0.18-11.08-0.98-16.6-1.78c-5.91-0.85-11.88-1.67-17.86-1.51c-6.42,0.18-12.83,0.57-19.24,1.04
				c-12.86,0.95-25.67,1.94-38.56,2.11c-12.2,0.16-24.14,2.87-36.29,3.7c-5.84,0.4-11.76,0.41-17.55-0.56
				c-6.36-1.07-12.64-2.25-19.08-2.74c-6.02-0.46-12.06-0.6-18.09-0.46c-6.21,0.15-12.42,0.8-18.64,0.78
				c-8.59-0.03-17.08-1.18-25.59-2.19c-2.34,0.1-4.67,0.17-7.01,0.19v116.06h351.07V135.94
				C343.6,135.97,336.08,135.35,328.75,134.69z"/>
			<g class="st3">
				<path class="st2" d="M180.16,176.38c-6.05,0.37-12.17,1.12-18.23,0.42c-12.07-1.39-23.92-5.04-36.17-4.48
					c-6.2,0.29-12.41,0.34-18.61,0.46c-3.26,0.06-6.53,0.14-9.79,0.29c-2.99,0.14-6.11,0.11-9.01,0.94
					c-2.38,0.69-4.64,1.68-6.97,2.51c0.34-0.01,0.68-0.02,1.02-0.04c2.78-0.17,5.53-0.64,8.3-0.95c6.11-0.69,12.36-0.22,18.5-0.44
					c6.26-0.22,12.55-0.53,18.81-0.19c6.1,0.33,12.06,1.45,18.06,2.55c6.31,1.16,12.86,2.76,19.29,3c5.91,0.22,11.7-1.47,17.54-2.14
					c5.9-0.67,11.86,0.07,17.75-0.63c-1.99-0.91-4.23-1.25-6.39-1.41C189.6,175.97,184.82,176.1,180.16,176.38z"/>
				<path class="st2" d="M267.81,154.36c-3.54,0.07-7.09-0.14-10.57-0.81c-3.97-0.76-7.89-2.01-11.92-2.44
					c-3.56-0.38-7.27-0.41-10.79,0.32c-3.51,0.72-6.84,2.08-10.33,2.93c0.71-0.1,1.42-0.2,2.13-0.29
					c7.15-0.91,14.05-0.84,21.12,0.59c3.88,0.79,7.76,1.76,11.71,2.13c3.59,0.34,7.15,0.09,10.74-0.23
					c6.47-0.57,12.9-1.41,19.34-2.22C282.19,152.93,274.96,154.21,267.81,154.36z"/>
				<path class="st2" d="M157.41,155.89c5.69,0,11.43-0.49,17.1,0.22c2.2,0.28,4.23,0.83,6.34,1.47c2.31,0.7,4.74,1.41,7.09,0.72
					c-8.28-4.39-18.04-3.73-27.14-3.72c-2.55,0-5.09-0.26-7.64-0.23c-2.77,0.03-5.45,0.54-8.11,1.33c-1.51,0.44-3.01,0.94-4.5,1.43
					c0.45-0.09,0.89-0.18,1.33-0.26C147.08,155.86,152.14,155.89,157.41,155.89z"/>
				<path class="st2" d="M253.51,198.32c-4.71,1.07-9.62,2.32-14.5,2.51c2.13,0.5,4.29,0.99,6.47,1.01c3.06,0.02,5.92-0.88,8.87-1.6
					c10.8-2.64,21.82-4.76,32.96-5.14C276.1,192.9,264.44,195.84,253.51,198.32z"/>
			</g>
			<path class="st2" d="M5.46,134.51c3.41-0.49,6.73-0.06,10.14,0.17c7.24,0.47,14.7,1.11,21.95,0.61c3.89-0.26,7.64-1.3,11.5-1.79
				c0.12-0.02,0.24-0.03,0.37-0.04c-5.61,0.21-11.21,0.74-16.82,0.72c-8.59-0.03-17.08-1.18-25.59-2.19
				c-2.34,0.1-4.67,0.17-7.01,0.19v3.19C1.84,135.15,3.67,134.77,5.46,134.51z"/>
			<path class="st2" d="M233.39,135.66c3.19,0.52,6.5,1.03,9.75,0.79c3.15-0.24,6.29-0.9,9.42-1.38c5.66-0.88,11.19-1.69,16.91-0.83
				c6.12,0.92,12.09,2.06,18.31,1.89c5.66-0.15,11.29-0.89,16.9-1.53c4.41-0.5,8.81-1.33,13.25-1.69c-3.07-0.5-6.14-0.81-9.2-0.44
				c-4.07,0.5-8.04,1.58-12.09,2.19c-3.35,0.5-6.82,0.46-10.2,0.32c-11.4-0.5-22.71-3.24-34.15-2.74
				c-5.96,0.26-11.76,1.54-17.76,1.34c-4.67-0.15-9.3-0.74-13.92-1.39C224.81,133.53,228.97,134.94,233.39,135.66z"/>
			<path class="st2" d="M96.15,137.72c6.03,1.12,11.88,1.07,17.96,0.58c6.28-0.51,12.53-1.29,18.8-1.9
				c6.33-0.62,12.64-0.85,18.99-1.05c6.32-0.2,12.64-0.49,18.92-1.21c6.42-0.74,12.8-1.88,19.18-2.92c1.4-0.23,2.8-0.46,4.21-0.68
				c-4.47,0.21-8.93,0.49-13.4,0.82c-12.86,0.95-25.67,1.94-38.56,2.11c-12.2,0.16-24.14,2.87-36.29,3.7
				c-4.06,0.28-8.16,0.36-12.23,0.06C94.53,137.4,95.34,137.57,96.15,137.72z"/>
			<g class="st4">
				<path class="st5" d="M107.29,215.61c-0.04,0-0.09,0.09-0.03,0.09C107.3,215.69,107.34,215.61,107.29,215.61z"/>
				<path class="st5" d="M62.85,200.96c-6.41-1.03-12.41,0.19-18.76-0.15c-3.84-0.21-7.64-0.5-11.45-1.06
					c-2.97-0.43-6,0.09-8.93-0.48c-0.34-0.07-0.84,0.61-0.44,0.71c2.37,0.57,4.78,0.5,7.2,0.81c3.78,0.49,7.49,1.15,11.3,1.48
					c2.94,0.26,5.2,0.76,8.15,0.22c4.52-0.82,7.87-1.15,12.49-0.83C62.74,201.69,63.26,201.03,62.85,200.96z"/>
				<path class="st5" d="M128.28,203c-3.4,0.04-6.81-0.03-10.2,0.11c-3.46,0.14-6.55,1.62-9.96,1.89
					c-7.74,0.62-15.51,0.55-23.28,0.71c-0.46,0.01-1.03,0.96-0.38,0.98c7.28,0.23,14.34,0.82,21.62,0.31
					c3.57-0.25,6.42-1.39,9.91-2.11c3.87-0.79,7.94-0.31,11.86-0.75C128.35,204.08,129.05,202.99,128.28,203z"/>
				<path class="st5" d="M77.7,194.86c-3.17-0.24-6.33,0.32-9.51,0.03c-0.41-0.04-0.98,0.78-0.52,0.84
					c3.08,0.39,6.28,0.66,9.39,0.41C77.53,196.1,78.4,194.92,77.7,194.86z"/>
				<path class="st5" d="M39.74,150.56c-2.68-0.32-5.43-0.33-8.02-1.08c-2.44-0.71-5.36-0.11-7.87-0.04
					c-0.39,0.01-0.89,0.82-0.32,0.84c2.78,0.08,5.65,0,8.31,0.82c2.39,0.74,5.23,0.21,7.66-0.05
					C39.67,151.03,40.03,150.59,39.74,150.56z"/>
				<path class="st5" d="M54.05,155.75c-1.85-0.29-3.77-0.14-5.64-0.3c-1.88-0.16-3.48,0.02-5.31,0.46
					c-0.33,0.08-0.62,0.78-0.1,0.67c3.61-0.76,7.11,0.28,10.73-0.21C53.95,156.35,54.42,155.81,54.05,155.75z"/>
				<path class="st5" d="M106.04,150.67c-6.07-1.35-12.41-0.36-18.55-1.04c-5.59-0.63-10.96,0.37-16.56,0.4
					c-0.33,0-0.82,0.78-0.4,0.81c5.38,0.38,10.68-0.7,16,0.36c3.07,0.61,6.35,0.2,9.46,0.42c3.19,0.23,6.58,0.23,9.72-0.29
					C105.93,151.28,106.44,150.75,106.04,150.67z"/>
				<path class="st5" d="M116.63,157.63c-1.94-0.26-3.9,0.03-5.86-0.28c-1.85-0.29-3.94,0.23-5.75-0.12
					c-0.32-0.06-0.77,0.58-0.4,0.66c0.76,0.17,1.28,0.11,2.07,0c0.8-0.11,2.04,0.21,2.92,0.25c2.26,0.09,4.44,0.42,6.71,0.11
					C116.53,158.22,116.99,157.68,116.63,157.63z"/>
				<path class="st5" d="M91.04,176.13c-3.99-0.24-7.56,0-11.5-0.04c-4.49-0.05-8.38-1.51-12.87-0.57
					c-0.37,0.08-0.93,0.97-0.34,0.89c4.38-0.6,8.29,1.06,12.61,1.26c4.07,0.18,7.88-0.89,11.94-1.12
					C91.07,176.54,91.32,176.15,91.04,176.13z"/>
				<path class="st5" d="M180.92,178.92c-4.5-0.63-9.14-0.19-13.67,0.01c-2.1,0.09-3.92-0.91-5.87-0.83
					c-2.28,0.1-4.63,0.43-6.9,0.28c-0.38-0.03-0.93,0.85-0.46,0.92c1.55,0.2,3.09,0.12,4.65,0.19c2.22,0.1,4.25,1.28,6.43,1.24
					c5.1-0.08,10.35-0.33,15.4-0.96C180.78,179.74,181.42,178.99,180.92,178.92z"/>
				<path class="st5" d="M199.75,171.35c-0.74,0.2-1.46-0.18-2.14,0.02c-1.61,0.48-3.35,0.65-5.02,0.86c-3,0.38-5.43,0.68-8.33,1.6
					c-0.48,0.15-0.95,1.21-0.15,1.02c3.26-0.76,6.42-0.87,9.71-1.36c1.91-0.29,4.32-0.18,5.92-1.22
					C200.05,172.06,200.5,171.15,199.75,171.35z"/>
				<path class="st5" d="M160.43,154.64c-2.29,0.31-4.71,0.62-7.02,0.27c-2.3-0.34-4.74,0.19-7.07,0.13
					c-0.43-0.01-1.06,0.99-0.52,1.04c2.54,0.24,5.07,0.52,7.62,0.53c2.46,0.01,4.67-0.1,6.87-1.19
					C160.53,155.3,160.95,154.57,160.43,154.64z"/>
				<path class="st5" d="M303.14,161.12c-3.78-0.12-7.56-0.13-11.35-0.13c-3.6,0-6.82,0.86-10.32,1.5
					c-1.39,0.26-2.98-0.34-4.44-0.15c-1.35,0.18-2.82,0.25-4.12,0.62c-4.15,1.18-9.44,1.64-13.73,0.97
					c-0.39-0.06-0.92,0.71-0.48,0.79c7.03,1.25,13.86-0.73,20.84-0.53c3.54,0.1,6.86-1.72,10.41-1.95
					c4.27-0.28,8.58-0.09,12.85-0.22C303.21,162.01,303.74,161.14,303.14,161.12z"/>
				<path class="st5" d="M343.98,161.68c-7.04,0.84-14.28,0.2-21.23,1.59c-0.47,0.09-1.13,1.2-0.42,1.09
					c6.89-1,14.65,0.52,21.32-1.44C344.09,162.8,344.8,161.58,343.98,161.68z"/>
				<path class="st5" d="M263.21,174.32c-1.8,0.16-3.58,0.11-5.33,0.57c-2.89,0.75-5.5,1.63-8.55,1.72
					c-2.75,0.08-5.64,0.2-8.35,0.67c-3.09,0.54-5.31,1.14-8.46,0.45c-0.36-0.08-0.87,0.64-0.45,0.74c4.92,1.21,10.21-0.13,15.24-0.3
					c5.43-0.18,10.19-1.8,15.5-2.8C263.25,175.28,263.92,174.25,263.21,174.32z"/>
				<path class="st5" d="M227.17,148.31c-2.5-0.71-4.99-1.2-7.6-1.32c-1.23-0.06-2.59,0.37-3.8,0.5c-1.92,0.2-3.95-0.15-5.84-0.4
					c-2.59-0.34-5.19-0.87-7.81-0.94c-0.69-0.02-2.28,0.75-2.89,0.99c-1.93,0.75-4.12,0.71-6.17,0.74c-0.41,0.01-0.9,0.86-0.33,0.86
					c2.78,0.03,5.07-0.1,7.69-0.97c2.71-0.9,7.16,0.68,9.93,1.07c2.45,0.34,4.87,0.4,7.3-0.09c2.9-0.57,6.07,0.57,9.02,0.56
					C227.06,149.3,227.71,148.46,227.17,148.31z"/>
				<path class="st5" d="M297.65,145.49c-7.92-0.03-16.2,0.17-24.1-0.89c-3.32-0.45-7.05,1.02-10.28,1.53
					c-4.07,0.65-7.9,1.33-12.05,1.48c-0.42,0.01-0.93,0.89-0.34,0.89c3.57-0.01,6.95-0.2,10.46-0.83c3.76-0.67,8.33-1.95,12.15-1.42
					c7.89,1.09,16.06,0.45,23.92-0.14C297.69,146.08,298.07,145.49,297.65,145.49z"/>
				<path class="st5" d="M329.78,146.59c-1.63-0.06-3.28,0.03-4.92,0.06c-0.37,0.01-0.83,0.78-0.3,0.79
					c1.62,0.03,3.25,0.12,4.87,0.06C329.85,147.49,330.39,146.61,329.78,146.59z"/>
				<path class="st5" d="M241.69,218.51c-7.74,0.82-15.57,0.45-23.01,2.81c-5.21,1.65-9.16,2.18-14.61,1.05
					c-4.61-0.96-9.39,1.09-14.15,0.07c-0.46-0.1-1.12,0.82-0.58,0.95c3.77,0.94,7.53,0.62,11.39,0.39c2.61-0.16,5.22,0.81,7.82,0.99
					c1.95,0.13,3.87-0.15,5.77-0.53c1.85-0.36,3.62-1.23,5.38-1.86c2.67-0.96,5.33-1.49,8.18-1.77c4.45-0.44,9.16-0.47,13.52-1.31
					C241.72,219.24,242.22,218.45,241.69,218.51z"/>
				<path class="st5" d="M317.22,200.05c-8.2,0.78-16.25,2.09-24.48,2.43c-3.64,0.15-7.61,1.67-10.8,3.18
					c-4.3,2.04-8.83,3.9-13.43,5.3c-0.42,0.13-0.81,1.04-0.13,0.88c8.33-2.05,16.28-7.15,24.97-7.49c4.05-0.16,7.75-0.49,11.7-1.29
					c3.95-0.8,8.23-1.02,11.99-2.36C317.26,200.61,317.66,200.01,317.22,200.05z"/>
				<path class="st5" d="M325.79,204.2c-3-0.55-6.04,0.67-8.9,1.28c-0.34,0.07-0.74,0.92-0.23,0.84c1.24-0.2,2.42-0.6,3.66-0.81
					c1.65-0.28,3.37-0.09,5.03-0.43C325.62,205.02,326.33,204.3,325.79,204.2z"/>
				<path class="st5" d="M302.76,224.19c-3.86,1.14-7.46,0.89-11.42,1.5c-4.04,0.62-8,1.62-11.96,2.54c-0.36,0.08-0.79,1-0.24,0.9
					c4.78-0.85,9.67-1.98,14.54-2.16c3.69-0.13,6.27,0.34,9.19-1.98C303.14,224.78,303.4,224,302.76,224.19z"/>
				<path class="st5" d="M322.55,220.44c-1.14-0.25-2.33,0.4-3.43,0.6c-1.7,0.3-3.41,0.52-5.13,0.73c-0.37,0.04-0.81,0.85-0.3,0.79
					c2.83-0.31,5.82-0.26,8.51-1.2C322.45,221.27,323.08,220.55,322.55,220.44z"/>
				<path class="st5" d="M184.23,209.38c-2.44-0.62-4.75,0.22-7.16-0.19c-0.71-0.12-1.16-0.19-1.91,0c-1.8,0.47-3.41,0.36-5.24,0.32
					c-0.32-0.01-0.77,0.74-0.38,0.76c4.77,0.33,9.36-0.06,14.17,0.14C184.13,210.43,184.8,209.52,184.23,209.38z"/>
				<path class="st5" d="M73.4,226.89c-2.12-0.06-4.03-0.35-6.03-0.96c-1.14-0.34-2.56-1.22-3.8-1.15c-2.06,0.11-3.87,0.4-5.95-0.05
					c-2.09-0.46-4.16-0.99-6.25-1.47c-8.35-1.92-16.87-1.12-25.34-2.09c-0.49-0.06-1.13,0.91-0.6,0.98
					c8.83,1.05,17.66,0.63,26.32,2.87c3.32,0.86,6.6,2.22,10.08,1.52c2.17-0.44,3.94,1.39,5.98,1.48c1.89,0.09,3.64-0.16,5.46-0.6
					C73.46,227.38,73.76,226.9,73.4,226.89z"/>
				<path class="st5" d="M90.13,230.51c-0.36-0.07-0.7,0-0.98-0.24c-0.34-0.29-1.07,0.51-0.71,0.81c0.35,0.29,0.83,0.34,1.28,0.26
					c0.21-0.03,0.39-0.17,0.49-0.34C90.29,230.87,90.38,230.55,90.13,230.51z"/>
				<path class="st5" d="M19.27,212.76c-0.96-0.75-2.44-0.69-3.65-0.7c-2.16-0.02-4.07,0.49-6.22-0.08
					c-0.39-0.1-0.97,0.68-0.51,0.83c1.63,0.51,3.18,0.53,4.88,0.45c1.69-0.08,3.37,0.51,5,0.32
					C19.07,213.54,19.6,213.02,19.27,212.76z"/>
				<path class="st5" d="M191.13,235.51c-3.77-0.38-7.7,0.29-11.5,0.29c-4,0-8.15-1.08-12.21-1.3c-8.19-0.45-16.48,1.35-24.63,1.73
					c-0.42,0.02-0.94,0.91-0.35,0.9c7.69-0.06,15.34-0.97,23.03-0.98c2.14-0.01,4.38,0.19,6.49,0.45c1.76,0.21,3.62,0.96,5.38,0.96
					c4.4,0.01,8.76-0.07,13.12-0.7C190.91,236.8,191.92,235.59,191.13,235.51z"/>
			</g>
			<path class="st6" d="M334.37,157.61c-5.89,1.61-11.73,3.62-17.77,4.57c-5.92,0.94-11.94,0.69-17.91,0.66
				c-6.3-0.03-12.44,0.55-18.68,1.39c-8.21,1.1-16.38,2.53-24.59,3.59c11.46-0.64,22.98-1.48,34.25,0.83
				c3.85,0.79,7.64,1.82,11.53,2.47c4.1,0.69,8.23,1.21,12.37,1.69c7.61,0.88,15.24,1.69,22.73,3.32c0.34,0.07,0.37,0.55,0.09,0.72
				c-5.93,3.5-12.74,5.52-19.41,7.05c-3.11,0.71-6.26,1.34-9.43,1.82c11.64-0.37,23.27-1.09,34.9-0.21
				c0.32,0.03,0.54,0.42,0.28,0.67c-1.81,1.7-4.04,2.61-6.26,3.66c-2.53,1.2-4.67,2.76-6.83,4.53c-3.88,3.19-7.68,5.02-12.73,5.58
				c-3.03,0.34-6.08,0.37-9.13,0.57c-3.4,0.22-6.55,0.85-9.81,1.84c-3.52,1.06-7,2.22-10.52,3.26c8.54-1.17,17.27-1.83,25.76-0.53
				c0.45,0.07,0.32,0.75-0.1,0.77c-9.25,0.37-18.7,2.13-27.18,5.96c-3.73,1.68-7.12,4.15-11.02,5.46c-3.28,1.1-6.68,1.49-10.12,1.68
				c-4.88,0.26-9.62-0.01-14.49-0.4c-1.26-0.1-2.54-0.2-3.82-0.28c-0.06,0.07-0.16,0.12-0.29,0.11c-4.72-0.44-9.3,0.65-13.91,1.47
				c-2.32,0.41-4.61,0.69-6.91,0.78c-5.48,0.59-11,0.39-16.29-1.42c-1.02-0.05-2.04-0.06-3.07-0.01c-4.64,0.23-9.12,1.3-13.66,2.22
				c-2.75,0.56-5.54,1.08-8.35,1.23c-2.91,0.16-5.82,0.03-8.73,0.15c-6.22,0.26-12.41,0.87-18.6,1.51
				c-12.48,1.29-24.79,2.31-37.33,1.29c-23.53-1.92-47.32-3.84-70.11-10.35c-0.37-0.1-0.38-0.66,0-0.76
				c26.79-6.75,54.32-9.55,81.72-12.56c-6.8-0.69-13.66-0.31-20.47,0.28c-3.97,0.34-7.94,0.75-11.92,1.01
				c-3.66,0.24-7.36,0.11-11.01,0.42c-3.72,0.33-7.38,1.11-11.1,1.43c-3.4,0.29-6.59,0-9.95-0.51c-7.25-1.11-14.47-2.42-21.58-4.18
				c-0.36-0.09-0.39-0.69,0-0.75c7.01-1.25,13.38-4.78,20.46-5.79c6.52-0.93,13.02-0.61,19.56-0.79
				c-6.59-1.78-13.71-1.64-20.43-1.01c-3.92,0.37-7.82,0.92-11.7,1.64c-4.04,0.76-7.97,1.91-11.98,2.81
				c-4.29,0.96-8.68,1.7-13.09,1.6c-4.35-0.09-8.64-0.74-12.92-1.49c-4.78-0.84-9.54-1.73-14.38-2.14
				c-0.15-0.01-0.29-0.03-0.44-0.04v53.84h351.07v-94.31C345.47,154.85,339.84,156.12,334.37,157.61z"/>
			<path class="st6" d="M42.48,154.96c10.6,0.19,20.62-4.61,31.18-5.06c9.79-0.42,19.66,1.17,29.38-0.26
				c-9.27-0.81-18.6-1.99-27.89-0.92c-4.95,0.57-9.84,1.53-14.78,2.16c-4.72,0.6-9.08,0.61-13.75-0.32c-2.5-0.5-4.99-1.1-7.52-1.47
				c-2.52-0.37-4.95-0.32-7.48-0.36c-4.19-0.06-8.32-0.72-12.43-1.51c-6.29-1.2-12.78-2.67-19.18-2.33v8.4
				c3.75-0.44,7.51-0.89,11.28-1.03C21.77,151.86,32.01,154.77,42.48,154.96z"/>
		</g>
	</g>
	<g>
		<g>
			<g>
				<path class="st7" d="M312.78,142.48c3.21-0.5,6.45-0.81,9.67-1.2c1.87-0.23,3.73-0.54,5.61-0.77c0.14-2.23,0.34-4.47,0.35-6.7
					c-0.11-0.11-0.22-0.22-0.33-0.32c-3.2-1.57-6.51-2.88-9.83-4.17c-0.07-0.02-0.13-0.04-0.2-0.06c-0.16,0.02-0.31,0.05-0.47,0.07
					c-2.04,0.26-4.08,0.46-6.09,0.85c-0.57,0.55-1.13,1.11-1.69,1.63c-2.3,2.12-4.67,4.17-6.72,6.54c-0.17,0.77-0.3,1.54-0.42,2.32
					c2.36,0.6,4.77,0.99,7.19,1.34C310.84,142.13,311.81,142.29,312.78,142.48z"/>
				<path class="st7" d="M308.96,133.9c1.32-1.24,2.55-2.81,4.33-3.41c1.72-0.58,3.52-0.88,5.34-1.03c-0.13-0.05-0.26-0.1-0.39-0.15
					c-0.07-0.02-0.13-0.04-0.2-0.06c-0.16,0.02-0.31,0.05-0.47,0.07c-2.04,0.26-4.08,0.46-6.09,0.85c-0.57,0.55-1.13,1.11-1.69,1.63
					c-2.18,2.01-4.42,3.96-6.39,6.17C305.31,136.69,307.3,135.47,308.96,133.9z"/>
				<path class="st8" d="M328.08,133.48c-2.96-1.45-6.03-2.69-9.1-3.89c-0.19,0.97-0.34,1.95-0.54,2.9
					c-0.33,1.57-0.77,3.49-2.05,4.59c-0.66,0.56-1.34,0.82-2.18,1.01c-1.61,0.37-3.19,0.79-4.79,1.18
					c-2.01,0.49-4.31,0.75-6.33,1.48c2.22,0.54,4.48,0.91,6.76,1.24c0.99,0.14,1.97,0.3,2.94,0.49c3.21-0.5,6.45-0.81,9.67-1.2
					c1.87-0.23,3.73-0.54,5.61-0.77c0.14-2.23,0.34-4.47,0.35-6.7C328.3,133.69,328.19,133.58,328.08,133.48z"/>
				<path class="st8" d="M328.06,140.51c0.13-1.88,0.34-4.83,0.35-6.7c-0.11-0.11-0.22-0.22-0.33-0.32
					c-2.96-1.45-6.03-2.69-9.1-3.89c-0.19,0.97-0.34,1.95-0.54,2.9c-0.3,1.41-0.69,3.11-1.7,4.24
					C319.1,137.26,326.63,140.15,328.06,140.51z"/>
			</g>
			<g>
				<path class="st9" d="M321.83,156.65c0.87-0.13,1.74-0.22,2.62-0.33c0.51-0.06,1.01-0.15,1.52-0.21c0.04-0.6,0.09-1.21,0.09-1.81
					c-0.03-0.03-0.06-0.06-0.09-0.09c-0.87-0.43-1.76-0.78-2.66-1.13c-0.02,0-0.04-0.01-0.05-0.02c-0.04,0.01-0.08,0.01-0.13,0.02
					c-0.55,0.07-1.1,0.12-1.65,0.23c-0.15,0.15-0.3,0.3-0.46,0.44c-0.62,0.57-1.26,1.13-1.82,1.77c-0.04,0.21-0.08,0.42-0.11,0.63
					c0.64,0.16,1.29,0.27,1.95,0.36C321.3,156.56,321.56,156.6,321.83,156.65z"/>
				<path class="st7" d="M320.52,154.57c0.42-0.4,0.81-0.82,1.34-1.07c0.34-0.16,0.68-0.28,1.04-0.39c-0.48,0.06-0.95,0.11-1.43,0.2
					c-0.15,0.15-0.3,0.3-0.46,0.44c-0.62,0.57-1.26,1.13-1.82,1.77c0,0.01,0,0.03-0.01,0.04
					C319.62,155.22,320.12,154.96,320.52,154.57z"/>
				<path class="st10" d="M325.97,154.21c-0.8-0.39-1.63-0.73-2.46-1.05c-0.05,0.26-0.09,0.53-0.15,0.79
					c-0.09,0.42-0.21,0.94-0.55,1.24c-0.18,0.15-0.36,0.22-0.59,0.27c-0.43,0.1-0.86,0.22-1.3,0.32c-0.54,0.13-1.17,0.2-1.71,0.4
					c0.6,0.15,1.21,0.25,1.83,0.33c0.27,0.04,0.53,0.08,0.8,0.13c0.87-0.13,1.74-0.22,2.62-0.33c0.51-0.06,1.01-0.15,1.52-0.21
					c0.04-0.6,0.09-1.21,0.09-1.81C326.02,154.27,326,154.24,325.97,154.21z"/>
				<path class="st10" d="M325.96,156.11c0.03-0.51,0.09-1.3,0.09-1.81c-0.03-0.03-0.06-0.06-0.09-0.09
					c-0.8-0.39-1.63-0.73-2.46-1.05c-0.05,0.26-0.09,0.53-0.15,0.79c-0.08,0.38-0.19,0.84-0.46,1.15
					C323.54,155.23,325.57,156.02,325.96,156.11z"/>
			</g>
			<g>
				<path class="st9" d="M332.11,141.77c0.61-0.09,1.22-0.15,1.83-0.23c0.35-0.04,0.71-0.1,1.06-0.15c0.03-0.42,0.06-0.85,0.07-1.27
					c-0.02-0.02-0.04-0.04-0.06-0.06c-0.61-0.3-1.24-0.55-1.86-0.79c-0.01,0-0.03-0.01-0.04-0.01c-0.03,0-0.06,0.01-0.09,0.01
					c-0.39,0.05-0.77,0.09-1.16,0.16c-0.11,0.11-0.21,0.21-0.32,0.31c-0.44,0.4-0.89,0.79-1.27,1.24c-0.03,0.15-0.06,0.29-0.08,0.44
					c0.45,0.11,0.9,0.19,1.36,0.25C331.74,141.7,331.93,141.73,332.11,141.77z"/>
				<path class="st7" d="M331.2,140.31c0.29-0.28,0.57-0.57,0.94-0.75c0.24-0.11,0.48-0.2,0.73-0.28c-0.33,0.04-0.67,0.08-1,0.14
					c-0.11,0.11-0.21,0.21-0.32,0.31c-0.44,0.4-0.89,0.79-1.27,1.24c0,0.01,0,0.02-0.01,0.03
					C330.57,140.77,330.91,140.59,331.2,140.31z"/>
				<path class="st10" d="M335.01,140.06c-0.56-0.28-1.14-0.51-1.73-0.74c-0.04,0.18-0.06,0.37-0.1,0.55
					c-0.06,0.3-0.15,0.66-0.39,0.87c-0.12,0.11-0.25,0.16-0.41,0.19c-0.3,0.07-0.61,0.15-0.91,0.22c-0.38,0.09-0.82,0.14-1.2,0.28
					c0.42,0.1,0.85,0.17,1.28,0.23c0.19,0.03,0.37,0.06,0.56,0.09c0.61-0.09,1.22-0.15,1.83-0.23c0.35-0.04,0.71-0.1,1.06-0.15
					c0.03-0.42,0.06-0.85,0.07-1.27C335.05,140.1,335.03,140.08,335.01,140.06z"/>
				<path class="st10" d="M335.01,141.39c0.03-0.35,0.06-0.91,0.07-1.27c-0.02-0.02-0.04-0.04-0.06-0.06
					c-0.56-0.28-1.14-0.51-1.73-0.74c-0.04,0.18-0.06,0.37-0.1,0.55c-0.06,0.27-0.13,0.59-0.32,0.8
					C333.31,140.78,334.74,141.33,335.01,141.39z"/>
			</g>
			<g>
				<path class="st9" d="M325.53,141.41c0.61-0.09,1.22-0.15,1.83-0.23c0.36-0.04,0.71-0.1,1.06-0.15c0.03-0.42,0.06-0.85,0.07-1.27
					c-0.02-0.02-0.04-0.04-0.06-0.06c-0.61-0.3-1.23-0.55-1.86-0.79c-0.01,0-0.02-0.01-0.04-0.01c-0.03,0-0.06,0.01-0.09,0.01
					c-0.39,0.05-0.77,0.09-1.16,0.16c-0.11,0.11-0.21,0.21-0.32,0.31c-0.44,0.4-0.89,0.79-1.27,1.24c-0.03,0.14-0.06,0.29-0.08,0.44
					c0.45,0.11,0.9,0.19,1.36,0.25C325.16,141.34,325.35,141.37,325.53,141.41z"/>
				<path class="st7" d="M324.62,139.95c0.29-0.28,0.57-0.57,0.94-0.75c0.24-0.11,0.48-0.2,0.73-0.27c-0.34,0.04-0.67,0.08-1,0.14
					c-0.11,0.11-0.21,0.21-0.32,0.31c-0.44,0.4-0.89,0.79-1.27,1.24c0,0.01,0,0.02-0.01,0.03
					C323.99,140.4,324.34,140.22,324.62,139.95z"/>
				<path class="st10" d="M328.43,139.7c-0.56-0.28-1.14-0.51-1.73-0.74c-0.04,0.18-0.06,0.37-0.1,0.55
					c-0.06,0.3-0.14,0.66-0.39,0.87c-0.12,0.11-0.26,0.16-0.41,0.19c-0.3,0.07-0.61,0.15-0.91,0.22c-0.38,0.09-0.82,0.14-1.2,0.28
					c0.42,0.1,0.85,0.17,1.28,0.23c0.19,0.03,0.37,0.06,0.56,0.09c0.61-0.09,1.22-0.15,1.83-0.23c0.36-0.04,0.71-0.1,1.06-0.15
					c0.03-0.42,0.06-0.85,0.07-1.27C328.48,139.74,328.45,139.72,328.43,139.7z"/>
				<path class="st10" d="M328.43,141.03c0.03-0.36,0.06-0.92,0.07-1.27c-0.02-0.02-0.04-0.04-0.06-0.06
					c-0.56-0.28-1.14-0.51-1.73-0.74c-0.04,0.18-0.06,0.37-0.1,0.55c-0.06,0.27-0.13,0.59-0.32,0.8
					C326.73,140.42,328.16,140.96,328.43,141.03z"/>
			</g>
			<g>
				<path class="st9" d="M290.84,144.8c1.47-0.23,2.94-0.37,4.42-0.55c0.86-0.1,1.71-0.25,2.56-0.35c0.07-1.02,0.15-2.04,0.16-3.06
					c-0.05-0.05-0.1-0.1-0.15-0.15c-1.46-0.71-2.97-1.32-4.49-1.91c-0.03-0.01-0.06-0.02-0.09-0.03c-0.07,0.01-0.14,0.02-0.21,0.03
					c-0.93,0.12-1.86,0.21-2.78,0.39c-0.26,0.25-0.51,0.51-0.77,0.74c-1.05,0.97-2.13,1.91-3.07,2.99c-0.08,0.35-0.14,0.7-0.19,1.06
					c1.08,0.27,2.18,0.45,3.28,0.61C289.95,144.65,290.4,144.71,290.84,144.8z"/>
				<path class="st7" d="M288.64,141.3c0.7-0.68,1.37-1.38,2.27-1.8c0.57-0.27,1.15-0.48,1.75-0.66c-0.8,0.1-1.61,0.19-2.41,0.34
					c-0.26,0.25-0.51,0.51-0.77,0.74c-1.05,0.97-2.13,1.91-3.07,2.99c0,0.02-0.01,0.04-0.01,0.06
					C287.12,142.39,287.96,141.96,288.64,141.3z"/>
				<path class="st10" d="M297.83,140.69c-1.35-0.66-2.75-1.23-4.16-1.78c-0.09,0.44-0.15,0.89-0.25,1.33
					c-0.15,0.72-0.35,1.59-0.94,2.09c-0.3,0.26-0.61,0.38-0.99,0.46c-0.73,0.17-1.46,0.36-2.19,0.54c-0.92,0.22-1.97,0.34-2.89,0.67
					c1.02,0.25,2.05,0.42,3.08,0.56c0.45,0.07,0.9,0.14,1.34,0.22c1.47-0.23,2.94-0.37,4.42-0.55c0.86-0.1,1.71-0.25,2.56-0.35
					c0.07-1.02,0.15-2.04,0.16-3.06C297.93,140.79,297.88,140.74,297.83,140.69z"/>
				<path class="st10" d="M297.82,143.9c0.06-0.86,0.15-2.2,0.16-3.06c-0.05-0.05-0.1-0.1-0.15-0.15c-1.35-0.66-2.75-1.23-4.16-1.78
					c-0.09,0.44-0.15,0.89-0.25,1.33c-0.14,0.64-0.31,1.42-0.78,1.94C293.73,142.42,297.17,143.74,297.82,143.9z"/>
			</g>
		</g>
		<g>
			<g>
				<path class="st7" d="M74.07,238.63c1.18-0.18,2.38-0.3,3.57-0.44c0.69-0.08,1.38-0.2,2.07-0.28c0.05-0.82,0.12-1.65,0.13-2.47
					c-0.04-0.04-0.08-0.08-0.12-0.12c-1.18-0.58-2.4-1.06-3.63-1.54c-0.03-0.01-0.05-0.01-0.07-0.02c-0.06,0.01-0.12,0.02-0.17,0.02
					c-0.75,0.1-1.51,0.17-2.25,0.31c-0.21,0.2-0.41,0.41-0.62,0.6c-0.85,0.78-1.72,1.54-2.48,2.41c-0.06,0.28-0.11,0.57-0.15,0.85
					c0.87,0.22,1.76,0.37,2.65,0.49C73.35,238.5,73.71,238.56,74.07,238.63z"/>
				<path class="st7" d="M72.66,235.47c0.48-0.46,0.94-1.04,1.59-1.26c0.63-0.21,1.3-0.32,1.97-0.38c-0.05-0.02-0.09-0.04-0.14-0.06
					c-0.03-0.01-0.05-0.01-0.07-0.02c-0.06,0.01-0.12,0.02-0.17,0.02c-0.75,0.1-1.51,0.17-2.25,0.31c-0.21,0.2-0.41,0.41-0.62,0.6
					c-0.8,0.74-1.63,1.46-2.36,2.28C71.31,236.5,72.05,236.05,72.66,235.47z"/>
				<path class="st8" d="M79.71,235.31c-1.09-0.54-2.22-0.99-3.36-1.43c-0.07,0.36-0.12,0.72-0.2,1.07
					c-0.12,0.58-0.28,1.29-0.75,1.69c-0.24,0.21-0.49,0.3-0.8,0.37c-0.59,0.14-1.18,0.29-1.77,0.44c-0.74,0.18-1.59,0.28-2.33,0.54
					c0.82,0.2,1.65,0.34,2.49,0.46c0.37,0.05,0.73,0.11,1.08,0.18c1.18-0.18,2.38-0.3,3.57-0.44c0.69-0.08,1.38-0.2,2.07-0.28
					c0.05-0.82,0.12-1.65,0.13-2.47C79.79,235.39,79.75,235.35,79.71,235.31z"/>
				<path class="st8" d="M79.7,237.9c0.05-0.69,0.12-1.78,0.13-2.47c-0.04-0.04-0.08-0.08-0.12-0.12c-1.09-0.54-2.22-0.99-3.36-1.43
					c-0.07,0.36-0.12,0.72-0.2,1.07c-0.11,0.52-0.25,1.15-0.63,1.56C76.4,236.7,79.17,237.77,79.7,237.9z"/>
			</g>
			<g>
				<path class="st9" d="M77.4,243.85c0.32-0.05,0.64-0.08,0.96-0.12c0.19-0.02,0.37-0.05,0.56-0.08c0.01-0.22,0.03-0.45,0.03-0.67
					c-0.01-0.01-0.02-0.02-0.03-0.03c-0.32-0.16-0.65-0.29-0.98-0.42c-0.01,0-0.01,0-0.02-0.01c-0.02,0-0.03,0.01-0.05,0.01
					c-0.2,0.03-0.41,0.05-0.61,0.08c-0.06,0.06-0.11,0.11-0.17,0.16c-0.23,0.21-0.47,0.42-0.67,0.65c-0.02,0.08-0.03,0.15-0.04,0.23
					c0.24,0.06,0.48,0.1,0.72,0.13C77.21,243.82,77.3,243.83,77.4,243.85z"/>
				<path class="st7" d="M76.92,243.09c0.15-0.15,0.3-0.3,0.5-0.39c0.12-0.06,0.25-0.11,0.38-0.14c-0.18,0.02-0.35,0.04-0.53,0.07
					c-0.06,0.06-0.11,0.11-0.17,0.16c-0.23,0.21-0.47,0.42-0.67,0.65c0,0,0,0.01,0,0.01C76.59,243.33,76.77,243.23,76.92,243.09z"/>
				<path class="st10" d="M78.93,242.96c-0.3-0.14-0.6-0.27-0.91-0.39c-0.02,0.1-0.03,0.19-0.05,0.29c-0.03,0.16-0.08,0.35-0.2,0.46
					c-0.07,0.06-0.13,0.08-0.22,0.1c-0.16,0.04-0.32,0.08-0.48,0.12c-0.2,0.05-0.43,0.07-0.63,0.15c0.22,0.05,0.45,0.09,0.67,0.12
					c0.1,0.01,0.2,0.03,0.29,0.05c0.32-0.05,0.64-0.08,0.96-0.12c0.19-0.02,0.37-0.05,0.56-0.08c0.01-0.22,0.03-0.45,0.03-0.67
					C78.95,242.98,78.94,242.97,78.93,242.96z"/>
				<path class="st10" d="M78.93,243.66c0.01-0.19,0.03-0.48,0.03-0.67c-0.01-0.01-0.02-0.02-0.03-0.03
					c-0.3-0.14-0.6-0.27-0.91-0.39c-0.02,0.1-0.03,0.19-0.05,0.29c-0.03,0.14-0.07,0.31-0.17,0.42
					C78.03,243.33,78.78,243.62,78.93,243.66z"/>
			</g>
			<g>
				<path class="st9" d="M81.19,238.37c0.22-0.03,0.45-0.06,0.68-0.08c0.13-0.02,0.26-0.04,0.39-0.05c0.01-0.16,0.02-0.31,0.03-0.47
					c-0.01-0.01-0.02-0.02-0.02-0.02c-0.22-0.11-0.46-0.2-0.69-0.29c0,0-0.01,0-0.01,0c-0.01,0-0.02,0-0.03,0
					c-0.14,0.02-0.29,0.03-0.43,0.06c-0.04,0.04-0.08,0.08-0.12,0.11c-0.16,0.15-0.33,0.29-0.47,0.46
					c-0.01,0.05-0.02,0.11-0.03,0.16c0.17,0.04,0.33,0.07,0.5,0.09C81.06,238.34,81.13,238.35,81.19,238.37z"/>
				<path class="st7" d="M80.86,237.83c0.11-0.1,0.21-0.21,0.35-0.28c0.09-0.04,0.18-0.07,0.27-0.1c-0.12,0.01-0.25,0.03-0.37,0.05
					c-0.04,0.04-0.08,0.08-0.12,0.11c-0.16,0.15-0.33,0.29-0.47,0.46c0,0,0,0.01,0,0.01C80.62,238,80.75,237.93,80.86,237.83z"/>
				<path class="st10" d="M82.26,237.74c-0.21-0.1-0.42-0.19-0.64-0.27c-0.01,0.07-0.02,0.14-0.04,0.2
					c-0.02,0.11-0.05,0.24-0.14,0.32c-0.05,0.04-0.09,0.06-0.15,0.07c-0.11,0.03-0.22,0.06-0.34,0.08c-0.14,0.03-0.3,0.05-0.44,0.1
					c0.16,0.04,0.31,0.06,0.47,0.09c0.07,0.01,0.14,0.02,0.21,0.03c0.22-0.03,0.45-0.06,0.68-0.08c0.13-0.02,0.26-0.04,0.39-0.05
					c0.01-0.16,0.02-0.31,0.03-0.47C82.28,237.75,82.27,237.75,82.26,237.74z"/>
				<path class="st10" d="M82.26,238.23c0.01-0.13,0.02-0.34,0.03-0.47c-0.01-0.01-0.02-0.02-0.02-0.02
					c-0.21-0.1-0.42-0.19-0.64-0.27c-0.01,0.07-0.02,0.14-0.04,0.2c-0.02,0.1-0.05,0.22-0.12,0.3
					C81.64,238,82.16,238.2,82.26,238.23z"/>
			</g>
			<g>
				<path class="st9" d="M78.77,238.23c0.22-0.03,0.45-0.06,0.68-0.08c0.13-0.02,0.26-0.04,0.39-0.05c0.01-0.16,0.02-0.31,0.02-0.47
					c-0.01-0.01-0.01-0.02-0.02-0.02c-0.22-0.11-0.46-0.2-0.69-0.29c0,0-0.01,0-0.01,0c-0.01,0-0.02,0-0.03,0
					c-0.14,0.02-0.29,0.03-0.43,0.06c-0.04,0.04-0.08,0.08-0.12,0.11c-0.16,0.15-0.33,0.29-0.47,0.46
					c-0.01,0.05-0.02,0.11-0.03,0.16c0.17,0.04,0.33,0.07,0.5,0.09C78.63,238.21,78.7,238.22,78.77,238.23z"/>
				<path class="st7" d="M78.43,237.7c0.11-0.1,0.21-0.21,0.35-0.28c0.09-0.04,0.18-0.07,0.27-0.1c-0.12,0.01-0.25,0.03-0.37,0.05
					c-0.04,0.04-0.08,0.08-0.12,0.11c-0.16,0.15-0.33,0.29-0.47,0.46c0,0,0,0.01,0,0.01C78.2,237.86,78.33,237.8,78.43,237.7z"/>
				<path class="st10" d="M79.84,237.6c-0.21-0.1-0.42-0.19-0.64-0.27c-0.01,0.07-0.02,0.14-0.04,0.2
					c-0.02,0.11-0.05,0.25-0.14,0.32c-0.05,0.04-0.09,0.06-0.15,0.07c-0.11,0.03-0.22,0.06-0.34,0.08c-0.14,0.03-0.3,0.05-0.44,0.1
					c0.16,0.04,0.31,0.06,0.47,0.09c0.07,0.01,0.14,0.02,0.21,0.03c0.22-0.03,0.45-0.06,0.68-0.08c0.13-0.02,0.26-0.04,0.39-0.05
					c0.01-0.16,0.02-0.31,0.02-0.47C79.85,237.62,79.85,237.61,79.84,237.6z"/>
				<path class="st10" d="M79.84,238.1c0.01-0.13,0.02-0.34,0.02-0.47c-0.01-0.01-0.01-0.02-0.02-0.02
					c-0.21-0.1-0.42-0.19-0.64-0.27c-0.01,0.07-0.02,0.14-0.04,0.2c-0.02,0.1-0.05,0.22-0.12,0.3
					C79.21,237.87,79.74,238.07,79.84,238.1z"/>
			</g>
			<g>
				<path class="st9" d="M65.98,239.49c0.54-0.08,1.08-0.14,1.63-0.2c0.32-0.04,0.63-0.09,0.94-0.13c0.02-0.38,0.06-0.75,0.06-1.13
					c-0.02-0.02-0.04-0.04-0.06-0.05c-0.54-0.26-1.1-0.49-1.66-0.7c-0.01,0-0.02-0.01-0.03-0.01c-0.03,0-0.05,0.01-0.08,0.01
					c-0.34,0.04-0.69,0.08-1.03,0.14c-0.1,0.09-0.19,0.19-0.28,0.27c-0.39,0.36-0.79,0.7-1.13,1.1c-0.03,0.13-0.05,0.26-0.07,0.39
					c0.4,0.1,0.8,0.17,1.21,0.22C65.65,239.43,65.81,239.45,65.98,239.49z"/>
				<path class="st7" d="M65.16,238.19c0.26-0.25,0.5-0.51,0.84-0.66c0.21-0.1,0.43-0.18,0.64-0.24c-0.3,0.04-0.59,0.07-0.89,0.13
					c-0.1,0.09-0.19,0.19-0.28,0.27c-0.39,0.36-0.79,0.7-1.13,1.1c0,0.01,0,0.02,0,0.02C64.6,238.59,64.91,238.44,65.16,238.19z"/>
				<path class="st10" d="M68.55,237.97c-0.5-0.24-1.02-0.45-1.53-0.66c-0.03,0.16-0.06,0.33-0.09,0.49
					c-0.06,0.26-0.13,0.59-0.34,0.77c-0.11,0.09-0.23,0.14-0.37,0.17c-0.27,0.06-0.54,0.13-0.81,0.2c-0.34,0.08-0.73,0.13-1.07,0.25
					c0.37,0.09,0.75,0.15,1.14,0.21c0.17,0.02,0.33,0.05,0.5,0.08c0.54-0.08,1.08-0.14,1.63-0.2c0.32-0.04,0.63-0.09,0.94-0.13
					c0.02-0.38,0.06-0.75,0.06-1.13C68.59,238.01,68.57,237.99,68.55,237.97z"/>
				<path class="st10" d="M68.55,239.15c0.02-0.32,0.06-0.81,0.06-1.13c-0.02-0.02-0.04-0.04-0.06-0.05
					c-0.5-0.24-1.02-0.45-1.53-0.66c-0.03,0.16-0.06,0.33-0.09,0.49c-0.05,0.24-0.12,0.52-0.29,0.71
					C67.04,238.61,68.31,239.09,68.55,239.15z"/>
			</g>
		</g>
		<g>
			<g>
				<path class="st7" d="M31.19,140.85c2.14-0.33,4.3-0.54,6.46-0.8c1.25-0.15,2.49-0.36,3.74-0.51c0.1-1.49,0.22-2.98,0.23-4.48
					c-0.07-0.07-0.15-0.15-0.22-0.22c-2.13-1.05-4.35-1.93-6.57-2.79c-0.04-0.01-0.09-0.03-0.13-0.04c-0.1,0.02-0.21,0.03-0.31,0.04
					c-1.36,0.18-2.73,0.3-4.07,0.57c-0.38,0.37-0.75,0.74-1.13,1.09c-1.53,1.41-3.12,2.79-4.49,4.37c-0.11,0.51-0.2,1.03-0.28,1.55
					c1.58,0.4,3.18,0.66,4.8,0.89C29.89,140.62,30.54,140.72,31.19,140.85z"/>
				<path class="st7" d="M28.64,135.12c0.88-0.83,1.71-1.88,2.89-2.28c1.15-0.39,2.35-0.59,3.57-0.69c-0.09-0.03-0.17-0.07-0.26-0.1
					c-0.04-0.01-0.09-0.03-0.13-0.04c-0.1,0.02-0.21,0.03-0.31,0.04c-1.36,0.18-2.73,0.3-4.07,0.57c-0.38,0.37-0.75,0.74-1.13,1.09
					c-1.45,1.34-2.95,2.64-4.27,4.12C26.2,136.99,27.53,136.17,28.64,135.12z"/>
				<path class="st8" d="M41.4,134.84c-1.98-0.97-4.02-1.8-6.08-2.6c-0.13,0.65-0.22,1.3-0.36,1.94c-0.22,1.05-0.51,2.33-1.37,3.06
					c-0.44,0.38-0.89,0.55-1.45,0.68c-1.07,0.25-2.13,0.53-3.2,0.79c-1.35,0.33-2.88,0.5-4.22,0.99c1.48,0.36,2.99,0.61,4.51,0.83
					c0.66,0.1,1.31,0.2,1.96,0.32c2.14-0.33,4.3-0.54,6.46-0.8c1.25-0.15,2.49-0.36,3.74-0.51c0.1-1.49,0.22-2.98,0.23-4.48
					C41.55,134.98,41.47,134.91,41.4,134.84z"/>
				<path class="st8" d="M41.39,139.53c0.09-1.25,0.23-3.22,0.23-4.48c-0.07-0.07-0.15-0.15-0.22-0.22c-1.98-0.97-4.02-1.8-6.08-2.6
					c-0.13,0.65-0.22,1.3-0.36,1.94c-0.2,0.94-0.46,2.08-1.14,2.83C35.41,137.36,40.43,139.3,41.39,139.53z"/>
			</g>
			<g>
				<path class="st9" d="M37.23,150.31c0.58-0.09,1.16-0.15,1.75-0.22c0.34-0.04,0.68-0.1,1.01-0.14c0.03-0.4,0.06-0.81,0.06-1.21
					c-0.02-0.02-0.04-0.04-0.06-0.06c-0.58-0.28-1.18-0.52-1.78-0.75c-0.01,0-0.02-0.01-0.04-0.01c-0.03,0.01-0.06,0.01-0.09,0.01
					c-0.37,0.05-0.74,0.08-1.1,0.15c-0.1,0.1-0.2,0.2-0.31,0.29c-0.42,0.38-0.84,0.76-1.21,1.18c-0.03,0.14-0.05,0.28-0.08,0.42
					c0.43,0.11,0.86,0.18,1.3,0.24C36.87,150.25,37.05,150.28,37.23,150.31z"/>
				<path class="st7" d="M36.35,148.92c0.28-0.27,0.54-0.54,0.9-0.71c0.23-0.11,0.46-0.19,0.69-0.26c-0.32,0.04-0.64,0.07-0.95,0.13
					c-0.1,0.1-0.2,0.2-0.31,0.29c-0.42,0.38-0.84,0.76-1.21,1.18c0,0.01,0,0.02,0,0.03C35.75,149.35,36.08,149.19,36.35,148.92z"/>
				<path class="st10" d="M39.99,148.69c-0.54-0.26-1.09-0.49-1.65-0.7c-0.04,0.17-0.06,0.35-0.1,0.52
					c-0.06,0.28-0.14,0.63-0.37,0.83c-0.12,0.1-0.24,0.15-0.39,0.18c-0.29,0.07-0.58,0.14-0.87,0.21c-0.36,0.09-0.78,0.13-1.14,0.27
					c0.4,0.1,0.81,0.16,1.22,0.22c0.18,0.03,0.36,0.05,0.53,0.09c0.58-0.09,1.16-0.15,1.75-0.22c0.34-0.04,0.68-0.1,1.01-0.14
					c0.03-0.4,0.06-0.81,0.06-1.21C40.03,148.72,40.01,148.7,39.99,148.69z"/>
				<path class="st10" d="M39.99,149.95c0.02-0.34,0.06-0.87,0.06-1.21c-0.02-0.02-0.04-0.04-0.06-0.06
					c-0.54-0.26-1.09-0.49-1.65-0.7c-0.04,0.17-0.06,0.35-0.1,0.52c-0.06,0.26-0.12,0.56-0.31,0.77
					C38.37,149.37,39.73,149.89,39.99,149.95z"/>
			</g>
			<g>
				<path class="st9" d="M44.09,140.38c0.41-0.06,0.82-0.1,1.22-0.15c0.24-0.03,0.47-0.07,0.71-0.1c0.02-0.28,0.04-0.57,0.04-0.85
					c-0.01-0.01-0.03-0.03-0.04-0.04c-0.41-0.2-0.82-0.37-1.25-0.53c-0.01,0-0.02,0-0.03-0.01c-0.02,0-0.04,0.01-0.06,0.01
					c-0.26,0.03-0.52,0.06-0.77,0.11c-0.07,0.07-0.14,0.14-0.21,0.21c-0.29,0.27-0.59,0.53-0.85,0.83c-0.02,0.1-0.04,0.2-0.05,0.29
					c0.3,0.08,0.6,0.13,0.91,0.17C43.85,140.33,43.97,140.35,44.09,140.38z"/>
				<path class="st7" d="M43.48,139.41c0.2-0.19,0.38-0.38,0.63-0.5c0.16-0.07,0.32-0.13,0.48-0.18c-0.22,0.03-0.45,0.05-0.67,0.09
					c-0.07,0.07-0.14,0.14-0.21,0.21c-0.29,0.27-0.59,0.53-0.85,0.83c0,0.01,0,0.01,0,0.02C43.06,139.71,43.29,139.59,43.48,139.41z
					"/>
				<path class="st10" d="M46.03,139.24c-0.37-0.18-0.76-0.34-1.15-0.49c-0.02,0.12-0.04,0.25-0.07,0.37
					c-0.04,0.2-0.1,0.44-0.26,0.58c-0.08,0.07-0.17,0.1-0.28,0.13c-0.2,0.05-0.4,0.1-0.61,0.15c-0.25,0.06-0.55,0.09-0.8,0.19
					c0.28,0.07,0.57,0.12,0.86,0.16c0.13,0.02,0.25,0.04,0.37,0.06c0.41-0.06,0.82-0.1,1.22-0.15c0.24-0.03,0.47-0.07,0.71-0.1
					c0.02-0.28,0.04-0.57,0.04-0.85C46.06,139.26,46.04,139.25,46.03,139.24z"/>
				<path class="st10" d="M46.03,140.13c0.02-0.24,0.04-0.61,0.04-0.85c-0.01-0.01-0.03-0.03-0.04-0.04
					c-0.37-0.18-0.76-0.34-1.15-0.49c-0.02,0.12-0.04,0.25-0.07,0.37c-0.04,0.18-0.09,0.39-0.22,0.54
					C44.89,139.72,45.85,140.08,46.03,140.13z"/>
			</g>
			<g>
				<path class="st9" d="M39.7,140.13c0.41-0.06,0.82-0.1,1.23-0.15c0.24-0.03,0.47-0.07,0.71-0.1c0.02-0.28,0.04-0.57,0.04-0.85
					c-0.01-0.01-0.03-0.03-0.04-0.04c-0.4-0.2-0.82-0.36-1.25-0.53c-0.01,0-0.02,0-0.02-0.01c-0.02,0-0.04,0.01-0.06,0.01
					c-0.26,0.03-0.52,0.06-0.77,0.11c-0.07,0.07-0.14,0.14-0.21,0.21c-0.29,0.27-0.59,0.53-0.85,0.83c-0.02,0.1-0.04,0.19-0.05,0.29
					c0.3,0.08,0.6,0.12,0.91,0.17C39.45,140.09,39.58,140.11,39.7,140.13z"/>
				<path class="st7" d="M39.09,139.16c0.19-0.19,0.38-0.38,0.63-0.5c0.16-0.07,0.32-0.13,0.49-0.18c-0.22,0.03-0.45,0.05-0.67,0.09
					c-0.07,0.07-0.14,0.14-0.21,0.21c-0.29,0.27-0.59,0.53-0.85,0.83c0,0.01,0,0.01,0,0.02C38.67,139.46,38.9,139.35,39.09,139.16z"
					/>
				<path class="st10" d="M41.64,138.99c-0.38-0.18-0.76-0.34-1.15-0.49c-0.02,0.12-0.04,0.25-0.07,0.37
					c-0.04,0.2-0.1,0.44-0.26,0.58c-0.08,0.07-0.17,0.1-0.27,0.13c-0.2,0.05-0.4,0.1-0.61,0.15c-0.26,0.06-0.55,0.09-0.8,0.19
					c0.28,0.07,0.57,0.12,0.86,0.16c0.12,0.02,0.25,0.04,0.37,0.06c0.41-0.06,0.82-0.1,1.23-0.15c0.24-0.03,0.47-0.07,0.71-0.1
					c0.02-0.28,0.04-0.57,0.04-0.85C41.67,139.02,41.65,139.01,41.64,138.99z"/>
				<path class="st10" d="M41.64,139.88c0.02-0.24,0.04-0.61,0.04-0.85c-0.01-0.01-0.03-0.03-0.04-0.04
					c-0.38-0.18-0.76-0.34-1.15-0.49c-0.02,0.12-0.04,0.25-0.07,0.37c-0.04,0.18-0.09,0.39-0.21,0.54
					C40.5,139.47,41.45,139.84,41.64,139.88z"/>
			</g>
			<g>
				<path class="st9" d="M16.54,142.4c0.98-0.15,1.97-0.25,2.95-0.37c0.57-0.07,1.14-0.17,1.71-0.23c0.04-0.68,0.1-1.36,0.11-2.05
					c-0.03-0.03-0.07-0.07-0.1-0.1c-0.97-0.48-1.99-0.88-3-1.27c-0.02,0-0.04-0.01-0.06-0.02c-0.05,0.01-0.09,0.01-0.14,0.02
					c-0.62,0.08-1.24,0.14-1.86,0.26c-0.17,0.17-0.34,0.34-0.51,0.5c-0.7,0.65-1.43,1.27-2.05,2c-0.05,0.23-0.09,0.47-0.13,0.71
					c0.72,0.18,1.45,0.3,2.19,0.41C15.94,142.3,16.24,142.34,16.54,142.4z"/>
				<path class="st7" d="M15.07,140.06c0.47-0.46,0.91-0.92,1.51-1.2c0.38-0.18,0.77-0.32,1.17-0.44c-0.54,0.06-1.08,0.12-1.61,0.23
					c-0.17,0.17-0.34,0.34-0.51,0.5c-0.7,0.65-1.43,1.27-2.05,2c0,0.01,0,0.03-0.01,0.04C14.05,140.79,14.61,140.5,15.07,140.06z"/>
				<path class="st10" d="M21.2,139.66c-0.9-0.44-1.84-0.82-2.78-1.19c-0.06,0.29-0.1,0.6-0.17,0.89c-0.1,0.48-0.23,1.06-0.62,1.4
					c-0.2,0.17-0.41,0.25-0.66,0.31c-0.49,0.11-0.97,0.24-1.46,0.36c-0.61,0.15-1.32,0.23-1.93,0.45c0.68,0.16,1.37,0.28,2.06,0.38
					c0.3,0.04,0.6,0.09,0.9,0.15c0.98-0.15,1.97-0.25,2.95-0.37c0.57-0.07,1.14-0.17,1.71-0.23c0.04-0.68,0.1-1.36,0.11-2.05
					C21.27,139.72,21.23,139.69,21.2,139.66z"/>
				<path class="st10" d="M21.2,141.8c0.04-0.57,0.1-1.47,0.11-2.05c-0.03-0.03-0.07-0.07-0.1-0.1c-0.9-0.44-1.84-0.82-2.78-1.19
					c-0.06,0.29-0.1,0.6-0.17,0.89c-0.09,0.43-0.21,0.95-0.52,1.29C18.46,140.81,20.76,141.69,21.2,141.8z"/>
			</g>
		</g>
		<g>
			<g>
				<path class="st7" d="M314.79,167.93c2.14-0.33,4.3-0.54,6.46-0.8c1.25-0.15,2.49-0.36,3.74-0.51c0.1-1.49,0.22-2.98,0.23-4.48
					c-0.07-0.07-0.15-0.15-0.22-0.22c-2.13-1.05-4.35-1.93-6.57-2.79c-0.04-0.01-0.09-0.03-0.13-0.04c-0.1,0.02-0.21,0.03-0.31,0.04
					c-1.36,0.18-2.73,0.3-4.07,0.57c-0.38,0.37-0.75,0.74-1.13,1.09c-1.53,1.41-3.12,2.79-4.49,4.37c-0.11,0.51-0.2,1.03-0.28,1.55
					c1.58,0.4,3.18,0.66,4.8,0.89C313.49,167.7,314.14,167.81,314.79,167.93z"/>
				<path class="st7" d="M312.24,162.21c0.88-0.83,1.71-1.88,2.89-2.28c1.15-0.39,2.35-0.59,3.56-0.69
					c-0.08-0.03-0.17-0.07-0.26-0.1c-0.04-0.01-0.09-0.03-0.13-0.04c-0.1,0.02-0.21,0.03-0.31,0.04c-1.36,0.18-2.73,0.3-4.07,0.57
					c-0.38,0.37-0.75,0.74-1.13,1.09c-1.45,1.34-2.95,2.64-4.27,4.12C309.8,164.07,311.13,163.26,312.24,162.21z"/>
				<path class="st8" d="M325,161.92c-1.98-0.97-4.02-1.8-6.08-2.6c-0.13,0.65-0.23,1.3-0.36,1.94c-0.22,1.05-0.51,2.33-1.37,3.06
					c-0.44,0.38-0.89,0.55-1.46,0.68c-1.07,0.25-2.13,0.53-3.2,0.79c-1.35,0.33-2.88,0.5-4.22,0.99c1.48,0.36,2.99,0.61,4.51,0.83
					c0.66,0.1,1.31,0.2,1.96,0.33c2.14-0.33,4.3-0.54,6.46-0.8c1.25-0.15,2.49-0.36,3.74-0.51c0.1-1.49,0.22-2.98,0.23-4.48
					C325.15,162.07,325.07,161.99,325,161.92z"/>
				<path class="st8" d="M324.99,166.62c0.09-1.25,0.23-3.22,0.23-4.48c-0.07-0.07-0.15-0.15-0.22-0.22
					c-1.98-0.97-4.02-1.8-6.08-2.6c-0.13,0.65-0.23,1.3-0.36,1.94c-0.2,0.94-0.46,2.08-1.14,2.83
					C319.01,164.45,324.03,166.38,324.99,166.62z"/>
			</g>
			<g>
				<path class="st9" d="M320.83,177.39c0.58-0.09,1.17-0.15,1.75-0.22c0.34-0.04,0.68-0.1,1.01-0.14c0.03-0.4,0.06-0.81,0.06-1.21
					c-0.02-0.02-0.04-0.04-0.06-0.06c-0.58-0.28-1.18-0.52-1.78-0.75c-0.01,0-0.02-0.01-0.04-0.01c-0.03,0.01-0.06,0.01-0.08,0.01
					c-0.37,0.05-0.74,0.08-1.1,0.15c-0.1,0.1-0.2,0.2-0.31,0.29c-0.42,0.38-0.84,0.75-1.21,1.18c-0.03,0.14-0.05,0.28-0.08,0.42
					c0.43,0.11,0.86,0.18,1.3,0.24C320.47,177.33,320.65,177.36,320.83,177.39z"/>
				<path class="st7" d="M319.95,176.01c0.28-0.27,0.54-0.54,0.9-0.71c0.22-0.11,0.46-0.19,0.69-0.26
					c-0.32,0.04-0.64,0.07-0.95,0.13c-0.1,0.1-0.2,0.2-0.31,0.29c-0.42,0.38-0.84,0.75-1.21,1.18c0,0.01,0,0.02,0,0.03
					C319.35,176.44,319.69,176.27,319.95,176.01z"/>
				<path class="st10" d="M323.59,175.77c-0.54-0.26-1.09-0.49-1.65-0.7c-0.04,0.17-0.06,0.35-0.1,0.52
					c-0.06,0.28-0.14,0.63-0.37,0.83c-0.12,0.1-0.24,0.15-0.39,0.18c-0.29,0.07-0.58,0.14-0.87,0.21c-0.36,0.09-0.78,0.13-1.14,0.27
					c0.4,0.1,0.81,0.16,1.22,0.22c0.18,0.03,0.36,0.05,0.53,0.09c0.58-0.09,1.17-0.15,1.75-0.22c0.34-0.04,0.68-0.1,1.01-0.14
					c0.03-0.4,0.06-0.81,0.06-1.21C323.63,175.81,323.61,175.79,323.59,175.77z"/>
				<path class="st10" d="M323.59,177.04c0.02-0.34,0.06-0.87,0.06-1.21c-0.02-0.02-0.04-0.04-0.06-0.06
					c-0.54-0.26-1.09-0.49-1.65-0.7c-0.04,0.17-0.06,0.35-0.1,0.52c-0.05,0.26-0.12,0.56-0.31,0.77
					C321.97,176.45,323.33,176.97,323.59,177.04z"/>
			</g>
			<g>
				<path class="st9" d="M327.69,167.46c0.41-0.06,0.82-0.1,1.23-0.15c0.24-0.03,0.47-0.07,0.71-0.1c0.02-0.28,0.04-0.57,0.04-0.85
					c-0.01-0.01-0.03-0.03-0.04-0.04c-0.41-0.2-0.82-0.37-1.25-0.53c-0.01,0-0.02-0.01-0.03-0.01c-0.02,0-0.04,0.01-0.06,0.01
					c-0.26,0.03-0.52,0.06-0.77,0.11c-0.07,0.07-0.14,0.14-0.21,0.21c-0.29,0.27-0.59,0.53-0.85,0.83c-0.02,0.1-0.04,0.19-0.05,0.29
					c0.3,0.08,0.6,0.12,0.91,0.17C327.45,167.42,327.57,167.44,327.69,167.46z"/>
				<path class="st7" d="M327.08,166.49c0.2-0.19,0.38-0.38,0.63-0.5c0.16-0.07,0.32-0.13,0.49-0.18c-0.22,0.03-0.45,0.05-0.67,0.09
					c-0.07,0.07-0.14,0.14-0.21,0.21c-0.29,0.27-0.59,0.53-0.85,0.83c0,0,0,0.01,0,0.02C326.66,166.79,326.9,166.67,327.08,166.49z"
					/>
				<path class="st10" d="M329.63,166.32c-0.38-0.18-0.76-0.34-1.15-0.49c-0.03,0.12-0.04,0.25-0.07,0.37
					c-0.04,0.2-0.1,0.44-0.26,0.58c-0.08,0.07-0.17,0.11-0.28,0.13c-0.2,0.05-0.4,0.1-0.61,0.15c-0.25,0.06-0.54,0.09-0.8,0.19
					c0.28,0.07,0.57,0.12,0.85,0.16c0.13,0.02,0.25,0.04,0.37,0.06c0.41-0.06,0.82-0.1,1.23-0.15c0.24-0.03,0.47-0.07,0.71-0.1
					c0.02-0.28,0.04-0.57,0.04-0.85C329.66,166.35,329.64,166.33,329.63,166.32z"/>
				<path class="st10" d="M329.63,167.21c0.02-0.24,0.04-0.61,0.04-0.85c-0.01-0.01-0.03-0.03-0.04-0.04
					c-0.38-0.18-0.76-0.34-1.15-0.49c-0.03,0.12-0.04,0.25-0.07,0.37c-0.04,0.18-0.09,0.39-0.22,0.54
					C328.49,166.8,329.45,167.17,329.63,167.21z"/>
			</g>
			<g>
				<path class="st9" d="M323.3,167.22c0.41-0.06,0.82-0.1,1.23-0.15c0.24-0.03,0.47-0.07,0.71-0.1c0.02-0.28,0.04-0.57,0.04-0.85
					c-0.02-0.01-0.03-0.03-0.04-0.04c-0.41-0.2-0.83-0.37-1.25-0.53c-0.01,0-0.02,0-0.02-0.01c-0.02,0-0.04,0.01-0.06,0.01
					c-0.26,0.03-0.52,0.06-0.77,0.11c-0.07,0.07-0.14,0.14-0.21,0.21c-0.29,0.27-0.59,0.53-0.85,0.83c-0.02,0.1-0.04,0.2-0.05,0.29
					c0.3,0.08,0.6,0.13,0.91,0.17C323.06,167.17,323.18,167.19,323.3,167.22z"/>
				<path class="st7" d="M322.69,166.25c0.19-0.19,0.38-0.38,0.63-0.5c0.16-0.07,0.32-0.13,0.49-0.18
					c-0.22,0.03-0.45,0.05-0.67,0.09c-0.07,0.07-0.14,0.14-0.21,0.21c-0.29,0.27-0.59,0.53-0.85,0.83c0,0.01,0,0.01,0,0.02
					C322.27,166.55,322.5,166.43,322.69,166.25z"/>
				<path class="st10" d="M325.24,166.08c-0.38-0.18-0.76-0.34-1.15-0.49c-0.02,0.12-0.04,0.25-0.07,0.37
					c-0.04,0.2-0.1,0.44-0.26,0.58c-0.08,0.07-0.17,0.1-0.28,0.13c-0.2,0.05-0.4,0.1-0.61,0.15c-0.26,0.06-0.55,0.09-0.8,0.19
					c0.28,0.07,0.57,0.12,0.86,0.16c0.12,0.02,0.25,0.04,0.37,0.06c0.41-0.06,0.82-0.1,1.23-0.15c0.24-0.03,0.47-0.07,0.71-0.1
					c0.02-0.28,0.04-0.57,0.04-0.85C325.27,166.11,325.25,166.09,325.24,166.08z"/>
				<path class="st10" d="M325.24,166.97c0.02-0.24,0.04-0.61,0.04-0.85c-0.02-0.01-0.03-0.03-0.04-0.04
					c-0.38-0.18-0.76-0.34-1.15-0.49c-0.02,0.12-0.04,0.25-0.07,0.37c-0.04,0.18-0.09,0.39-0.22,0.54
					C324.1,166.56,325.06,166.92,325.24,166.97z"/>
			</g>
			<g>
				<path class="st9" d="M300.14,169.48c0.98-0.15,1.97-0.25,2.95-0.37c0.57-0.07,1.14-0.17,1.71-0.23c0.05-0.68,0.1-1.36,0.11-2.05
					c-0.03-0.03-0.07-0.07-0.1-0.1c-0.97-0.48-1.99-0.88-3-1.27c-0.02,0-0.04-0.01-0.06-0.02c-0.05,0.01-0.1,0.01-0.14,0.02
					c-0.62,0.08-1.24,0.14-1.86,0.26c-0.17,0.17-0.34,0.34-0.51,0.5c-0.7,0.65-1.43,1.27-2.05,2c-0.05,0.23-0.09,0.47-0.13,0.71
					c0.72,0.18,1.45,0.3,2.19,0.41C299.55,169.38,299.84,169.43,300.14,169.48z"/>
				<path class="st7" d="M298.67,167.15c0.47-0.46,0.91-0.92,1.51-1.2c0.38-0.18,0.77-0.32,1.17-0.44
					c-0.54,0.06-1.08,0.12-1.61,0.23c-0.17,0.17-0.34,0.34-0.51,0.5c-0.7,0.65-1.43,1.27-2.05,2c0,0.01,0,0.03-0.01,0.04
					C297.65,167.87,298.21,167.59,298.67,167.15z"/>
				<path class="st10" d="M304.8,166.74c-0.9-0.44-1.84-0.82-2.78-1.19c-0.06,0.29-0.1,0.59-0.17,0.89c-0.1,0.48-0.23,1.06-0.62,1.4
					c-0.2,0.17-0.41,0.25-0.66,0.31c-0.49,0.11-0.97,0.24-1.46,0.36c-0.62,0.15-1.32,0.23-1.93,0.45c0.68,0.16,1.37,0.28,2.06,0.38
					c0.3,0.04,0.6,0.09,0.9,0.15c0.98-0.15,1.97-0.25,2.95-0.37c0.57-0.07,1.14-0.17,1.71-0.23c0.05-0.68,0.1-1.36,0.11-2.05
					C304.87,166.81,304.84,166.77,304.8,166.74z"/>
				<path class="st10" d="M304.8,168.89c0.04-0.57,0.1-1.47,0.11-2.05c-0.03-0.03-0.07-0.07-0.1-0.1c-0.9-0.44-1.84-0.82-2.78-1.19
					c-0.06,0.29-0.1,0.59-0.17,0.89c-0.09,0.43-0.21,0.95-0.52,1.29C302.07,167.89,304.36,168.78,304.8,168.89z"/>
			</g>
		</g>
		<g>
			<g>
				<path class="st7" d="M24.24,205.21c2.14-0.33,4.3-0.54,6.46-0.8c1.25-0.15,2.49-0.36,3.74-0.51c0.1-1.49,0.23-2.98,0.23-4.48
					c-0.07-0.07-0.15-0.15-0.22-0.22c-2.13-1.05-4.35-1.93-6.57-2.79c-0.04-0.01-0.09-0.03-0.13-0.04c-0.1,0.02-0.21,0.03-0.31,0.04
					c-1.36,0.18-2.73,0.31-4.07,0.57c-0.38,0.37-0.75,0.74-1.13,1.09c-1.53,1.42-3.12,2.79-4.49,4.37c-0.11,0.51-0.2,1.03-0.28,1.55
					c1.58,0.4,3.18,0.66,4.8,0.89C22.94,204.98,23.59,205.08,24.24,205.21z"/>
				<path class="st7" d="M21.69,199.48c0.88-0.83,1.71-1.88,2.89-2.28c1.15-0.39,2.35-0.59,3.56-0.69c-0.09-0.03-0.17-0.07-0.26-0.1
					c-0.04-0.01-0.09-0.03-0.13-0.04c-0.1,0.02-0.21,0.03-0.31,0.04c-1.36,0.18-2.73,0.31-4.07,0.57c-0.38,0.37-0.75,0.74-1.13,1.09
					c-1.45,1.34-2.95,2.64-4.27,4.12C19.25,201.35,20.58,200.53,21.69,199.48z"/>
				<path class="st8" d="M34.45,199.2c-1.98-0.97-4.02-1.8-6.08-2.6c-0.13,0.65-0.23,1.3-0.36,1.94c-0.22,1.05-0.51,2.33-1.37,3.06
					c-0.44,0.38-0.89,0.55-1.46,0.68c-1.07,0.25-2.13,0.53-3.2,0.79c-1.35,0.33-2.88,0.5-4.22,0.99c1.48,0.36,2.99,0.61,4.51,0.83
					c0.66,0.1,1.31,0.2,1.96,0.32c2.14-0.33,4.3-0.54,6.46-0.8c1.25-0.15,2.49-0.36,3.74-0.51c0.1-1.49,0.23-2.98,0.23-4.48
					C34.6,199.34,34.53,199.27,34.45,199.2z"/>
				<path class="st8" d="M34.44,203.9c0.09-1.25,0.23-3.22,0.23-4.48c-0.07-0.07-0.15-0.15-0.22-0.22c-1.98-0.97-4.02-1.8-6.08-2.6
					c-0.13,0.65-0.23,1.3-0.36,1.94c-0.2,0.94-0.46,2.08-1.14,2.83C28.46,201.73,33.49,203.66,34.44,203.9z"/>
			</g>
			<g>
				<path class="st9" d="M30.28,214.67c0.58-0.09,1.17-0.15,1.75-0.22c0.34-0.04,0.68-0.1,1.01-0.14c0.03-0.4,0.06-0.81,0.06-1.21
					c-0.02-0.02-0.04-0.04-0.06-0.06c-0.58-0.28-1.18-0.52-1.78-0.75c-0.01,0-0.02-0.01-0.04-0.01c-0.03,0.01-0.06,0.01-0.09,0.01
					c-0.37,0.05-0.74,0.08-1.1,0.15c-0.1,0.1-0.2,0.2-0.31,0.29c-0.42,0.38-0.84,0.75-1.21,1.18c-0.03,0.14-0.05,0.28-0.08,0.42
					c0.43,0.11,0.86,0.18,1.3,0.24C29.93,214.61,30.1,214.64,30.28,214.67z"/>
				<path class="st7" d="M29.41,213.29c0.28-0.27,0.54-0.54,0.9-0.71c0.22-0.11,0.46-0.19,0.69-0.26c-0.32,0.04-0.64,0.07-0.95,0.13
					c-0.1,0.1-0.2,0.2-0.31,0.29c-0.42,0.38-0.84,0.75-1.21,1.18c0,0.01,0,0.02,0,0.03C28.81,213.72,29.14,213.55,29.41,213.29z"/>
				<path class="st10" d="M33.04,213.05c-0.54-0.26-1.09-0.49-1.65-0.7c-0.03,0.17-0.06,0.35-0.1,0.52
					c-0.06,0.28-0.14,0.63-0.37,0.83c-0.12,0.1-0.24,0.15-0.39,0.18c-0.29,0.07-0.58,0.14-0.87,0.21c-0.36,0.09-0.78,0.13-1.14,0.27
					c0.4,0.1,0.81,0.16,1.22,0.22c0.18,0.03,0.36,0.05,0.53,0.09c0.58-0.09,1.17-0.15,1.75-0.22c0.34-0.04,0.68-0.1,1.01-0.14
					c0.03-0.4,0.06-0.81,0.06-1.21C33.08,213.09,33.06,213.07,33.04,213.05z"/>
				<path class="st10" d="M33.04,214.32c0.02-0.34,0.06-0.87,0.06-1.21c-0.02-0.02-0.04-0.04-0.06-0.06
					c-0.54-0.26-1.09-0.49-1.65-0.7c-0.03,0.17-0.06,0.35-0.1,0.52c-0.05,0.26-0.12,0.56-0.31,0.77
					C31.42,213.73,32.78,214.25,33.04,214.32z"/>
			</g>
			<g>
				<path class="st9" d="M37.15,204.74c0.41-0.06,0.82-0.1,1.22-0.15c0.24-0.03,0.47-0.07,0.71-0.1c0.02-0.28,0.04-0.57,0.04-0.85
					c-0.01-0.01-0.03-0.03-0.04-0.04c-0.41-0.2-0.82-0.37-1.25-0.53c-0.01,0-0.02,0-0.02-0.01c-0.02,0-0.04,0.01-0.06,0.01
					c-0.26,0.03-0.52,0.06-0.77,0.11c-0.07,0.07-0.14,0.14-0.21,0.21c-0.29,0.27-0.59,0.53-0.85,0.83c-0.02,0.1-0.04,0.19-0.05,0.29
					c0.3,0.08,0.6,0.12,0.91,0.17C36.9,204.7,37.03,204.71,37.15,204.74z"/>
				<path class="st7" d="M36.54,203.77c0.2-0.19,0.38-0.38,0.63-0.5c0.16-0.07,0.32-0.13,0.48-0.18c-0.22,0.03-0.45,0.05-0.67,0.1
					c-0.07,0.07-0.14,0.14-0.21,0.21c-0.29,0.27-0.59,0.53-0.85,0.83c0,0.01,0,0.01,0,0.02C36.12,204.07,36.35,203.95,36.54,203.77z
					"/>
				<path class="st10" d="M39.08,203.6c-0.38-0.18-0.76-0.34-1.15-0.49c-0.02,0.12-0.04,0.25-0.07,0.37
					c-0.04,0.2-0.1,0.44-0.26,0.58c-0.08,0.07-0.17,0.11-0.28,0.13c-0.2,0.05-0.4,0.1-0.61,0.15c-0.25,0.06-0.54,0.09-0.8,0.19
					c0.28,0.07,0.57,0.12,0.85,0.16c0.13,0.02,0.25,0.04,0.37,0.06c0.41-0.06,0.82-0.1,1.22-0.15c0.24-0.03,0.47-0.07,0.71-0.1
					c0.02-0.28,0.04-0.57,0.04-0.85C39.11,203.63,39.1,203.61,39.08,203.6z"/>
				<path class="st10" d="M39.08,204.49c0.02-0.24,0.04-0.61,0.04-0.85c-0.01-0.01-0.03-0.03-0.04-0.04
					c-0.38-0.18-0.76-0.34-1.15-0.49c-0.02,0.12-0.04,0.25-0.07,0.37c-0.04,0.18-0.09,0.39-0.22,0.54
					C37.95,204.08,38.9,204.44,39.08,204.49z"/>
			</g>
			<g>
				<path class="st9" d="M32.76,204.5c0.41-0.06,0.82-0.1,1.23-0.15c0.24-0.03,0.47-0.07,0.71-0.1c0.02-0.28,0.04-0.57,0.04-0.85
					c-0.02-0.01-0.03-0.03-0.04-0.04c-0.41-0.2-0.83-0.36-1.25-0.53c-0.01,0-0.02,0-0.03-0.01c-0.02,0-0.04,0.01-0.06,0.01
					c-0.26,0.03-0.52,0.06-0.77,0.11c-0.07,0.07-0.14,0.14-0.21,0.21c-0.29,0.27-0.59,0.53-0.85,0.83c-0.02,0.1-0.04,0.19-0.05,0.29
					c0.3,0.08,0.6,0.13,0.91,0.17C32.51,204.45,32.63,204.47,32.76,204.5z"/>
				<path class="st7" d="M32.15,203.53c0.19-0.19,0.38-0.38,0.63-0.5c0.16-0.07,0.32-0.13,0.49-0.18c-0.22,0.03-0.45,0.05-0.67,0.09
					c-0.07,0.07-0.14,0.14-0.21,0.21c-0.29,0.27-0.59,0.53-0.85,0.83c0,0,0,0.01,0,0.02C31.72,203.83,31.96,203.71,32.15,203.53z"/>
				<path class="st10" d="M34.69,203.36c-0.38-0.18-0.76-0.34-1.15-0.49c-0.02,0.12-0.04,0.25-0.07,0.37
					c-0.04,0.2-0.1,0.44-0.26,0.58c-0.08,0.07-0.17,0.1-0.28,0.13c-0.2,0.05-0.4,0.1-0.61,0.15c-0.26,0.06-0.55,0.1-0.8,0.19
					c0.28,0.07,0.57,0.12,0.86,0.16c0.13,0.02,0.25,0.04,0.37,0.06c0.41-0.06,0.82-0.1,1.23-0.15c0.24-0.03,0.47-0.07,0.71-0.1
					c0.02-0.28,0.04-0.57,0.04-0.85C34.72,203.38,34.71,203.37,34.69,203.36z"/>
				<path class="st10" d="M34.69,204.25c0.02-0.24,0.04-0.61,0.04-0.85c-0.02-0.01-0.03-0.03-0.04-0.04
					c-0.38-0.18-0.76-0.34-1.15-0.49c-0.02,0.12-0.04,0.25-0.07,0.37c-0.04,0.18-0.09,0.39-0.22,0.54
					C33.56,203.84,34.51,204.2,34.69,204.25z"/>
			</g>
			<g>
				<path class="st9" d="M9.59,206.76c0.98-0.15,1.97-0.25,2.95-0.37c0.57-0.07,1.14-0.17,1.71-0.23c0.05-0.68,0.1-1.36,0.11-2.05
					c-0.03-0.03-0.07-0.07-0.1-0.1c-0.97-0.48-1.99-0.88-3-1.27c-0.02,0-0.04-0.01-0.06-0.02c-0.05,0.01-0.1,0.01-0.14,0.02
					c-0.62,0.08-1.24,0.14-1.86,0.26c-0.17,0.17-0.34,0.34-0.51,0.5c-0.7,0.65-1.43,1.27-2.05,2c-0.05,0.23-0.09,0.47-0.13,0.71
					c0.72,0.18,1.45,0.3,2.19,0.41C9,206.66,9.3,206.71,9.59,206.76z"/>
				<path class="st7" d="M8.12,204.43c0.47-0.46,0.91-0.92,1.51-1.2c0.38-0.18,0.77-0.32,1.17-0.44c-0.54,0.06-1.08,0.12-1.61,0.23
					c-0.17,0.17-0.34,0.34-0.51,0.5c-0.7,0.65-1.43,1.27-2.05,2c0,0.01,0,0.03-0.01,0.04C7.11,205.15,7.67,204.86,8.12,204.43z"/>
				<path class="st10" d="M14.26,204.02c-0.9-0.44-1.84-0.82-2.78-1.19c-0.06,0.3-0.1,0.59-0.16,0.89c-0.1,0.48-0.23,1.06-0.62,1.4
					c-0.2,0.17-0.41,0.25-0.66,0.31c-0.49,0.11-0.97,0.24-1.46,0.36c-0.61,0.15-1.31,0.23-1.93,0.45c0.68,0.16,1.37,0.28,2.06,0.38
					c0.3,0.04,0.6,0.09,0.9,0.15c0.98-0.15,1.97-0.25,2.95-0.37c0.57-0.07,1.14-0.17,1.71-0.23c0.05-0.68,0.1-1.36,0.11-2.05
					C14.32,204.09,14.29,204.05,14.26,204.02z"/>
				<path class="st10" d="M14.25,206.16c0.04-0.57,0.1-1.47,0.11-2.05c-0.03-0.03-0.07-0.07-0.1-0.1c-0.9-0.44-1.84-0.82-2.78-1.19
					c-0.06,0.3-0.1,0.59-0.16,0.89c-0.09,0.43-0.21,0.95-0.52,1.29C11.52,205.17,13.82,206.05,14.25,206.16z"/>
			</g>
		</g>
		<g>
			<g>
				<path class="st7" d="M257.74,232.67c1.5-0.23,3.01-0.38,4.52-0.56c0.87-0.11,1.74-0.25,2.62-0.36c0.07-1.04,0.16-2.09,0.16-3.13
					c-0.05-0.05-0.1-0.1-0.16-0.15c-1.49-0.73-3.04-1.35-4.59-1.95c-0.03-0.01-0.06-0.02-0.09-0.03c-0.07,0.01-0.15,0.02-0.22,0.03
					c-0.95,0.12-1.91,0.21-2.85,0.4c-0.26,0.26-0.53,0.52-0.79,0.76c-1.07,0.99-2.18,1.95-3.14,3.06c-0.08,0.36-0.14,0.72-0.19,1.08
					c1.1,0.28,2.23,0.46,3.36,0.62C256.83,232.51,257.29,232.59,257.74,232.67z"/>
				<path class="st7" d="M255.96,228.67c0.61-0.58,1.19-1.32,2.02-1.59c0.8-0.27,1.64-0.41,2.49-0.48
					c-0.06-0.02-0.12-0.05-0.18-0.07c-0.03-0.01-0.06-0.02-0.09-0.03c-0.07,0.01-0.15,0.02-0.22,0.03c-0.95,0.12-1.91,0.21-2.85,0.4
					c-0.26,0.26-0.53,0.52-0.79,0.76c-1.02,0.94-2.06,1.85-2.98,2.88C254.25,229.97,255.18,229.4,255.96,228.67z"/>
				<path class="st8" d="M264.89,228.47c-1.38-0.68-2.81-1.26-4.25-1.82c-0.09,0.45-0.16,0.91-0.25,1.36
					c-0.16,0.73-0.36,1.63-0.96,2.14c-0.31,0.26-0.62,0.39-1.02,0.47c-0.75,0.17-1.49,0.37-2.24,0.55
					c-0.94,0.23-2.01,0.35-2.95,0.69c1.04,0.25,2.09,0.43,3.16,0.58c0.46,0.07,0.92,0.14,1.37,0.23c1.5-0.23,3.01-0.38,4.52-0.56
					c0.87-0.11,1.74-0.25,2.62-0.36c0.07-1.04,0.16-2.09,0.16-3.13C264.99,228.57,264.94,228.52,264.89,228.47z"/>
				<path class="st8" d="M264.88,231.75c0.06-0.88,0.16-2.25,0.16-3.13c-0.05-0.05-0.1-0.1-0.16-0.15
					c-1.38-0.68-2.81-1.26-4.25-1.82c-0.09,0.45-0.16,0.91-0.25,1.36c-0.14,0.66-0.32,1.45-0.8,1.98
					C260.69,230.23,264.21,231.59,264.88,231.75z"/>
			</g>
			<g>
				<path class="st9" d="M261.97,239.29c0.41-0.06,0.82-0.1,1.22-0.15c0.24-0.03,0.47-0.07,0.71-0.1c0.02-0.28,0.04-0.56,0.04-0.85
					c-0.01-0.01-0.03-0.03-0.04-0.04c-0.4-0.2-0.82-0.37-1.24-0.53c-0.01,0-0.02,0-0.02-0.01c-0.02,0-0.04,0.01-0.06,0.01
					c-0.26,0.03-0.52,0.06-0.77,0.11c-0.07,0.07-0.14,0.14-0.21,0.21c-0.29,0.27-0.59,0.53-0.85,0.83c-0.02,0.1-0.04,0.19-0.05,0.29
					c0.3,0.08,0.6,0.12,0.91,0.17C261.72,239.25,261.84,239.27,261.97,239.29z"/>
				<path class="st7" d="M261.36,238.32c0.19-0.19,0.38-0.38,0.63-0.5c0.16-0.07,0.32-0.13,0.48-0.18
					c-0.22,0.03-0.45,0.05-0.67,0.09c-0.07,0.07-0.14,0.14-0.21,0.21c-0.29,0.27-0.59,0.53-0.85,0.83c0,0.01,0,0.01,0,0.02
					C260.94,238.62,261.17,238.51,261.36,238.32z"/>
				<path class="st10" d="M263.9,238.16c-0.38-0.18-0.76-0.34-1.15-0.49c-0.02,0.12-0.04,0.25-0.07,0.37
					c-0.04,0.2-0.1,0.44-0.26,0.58c-0.08,0.07-0.17,0.1-0.27,0.13c-0.2,0.05-0.4,0.1-0.61,0.15c-0.25,0.06-0.54,0.09-0.8,0.19
					c0.28,0.07,0.57,0.12,0.85,0.16c0.13,0.02,0.25,0.04,0.37,0.06c0.41-0.06,0.82-0.1,1.22-0.15c0.24-0.03,0.47-0.07,0.71-0.1
					c0.02-0.28,0.04-0.56,0.04-0.85C263.93,238.18,263.91,238.17,263.9,238.16z"/>
				<path class="st10" d="M263.9,239.04c0.02-0.24,0.04-0.61,0.04-0.85c-0.01-0.01-0.03-0.03-0.04-0.04
					c-0.38-0.18-0.76-0.34-1.15-0.49c-0.02,0.12-0.04,0.25-0.07,0.37c-0.04,0.18-0.09,0.39-0.22,0.54
					C262.77,238.63,263.72,239,263.9,239.04z"/>
			</g>
			<g>
				<path class="st9" d="M266.77,232.34c0.28-0.04,0.57-0.07,0.86-0.11c0.16-0.02,0.33-0.05,0.5-0.07c0.01-0.2,0.03-0.4,0.03-0.59
					c-0.01-0.01-0.02-0.02-0.03-0.03c-0.28-0.14-0.58-0.26-0.87-0.37c-0.01,0-0.01,0-0.02,0c-0.01,0-0.03,0-0.04,0.01
					c-0.18,0.02-0.36,0.04-0.54,0.08c-0.05,0.05-0.1,0.1-0.15,0.14c-0.2,0.19-0.41,0.37-0.6,0.58c-0.01,0.07-0.03,0.14-0.04,0.21
					c0.21,0.05,0.42,0.09,0.64,0.12C266.6,232.31,266.68,232.33,266.77,232.34z"/>
				<path class="st7" d="M266.34,231.66c0.14-0.13,0.27-0.27,0.44-0.35c0.11-0.05,0.22-0.09,0.34-0.13
					c-0.15,0.02-0.31,0.04-0.47,0.07c-0.05,0.05-0.1,0.1-0.15,0.14c-0.2,0.19-0.41,0.37-0.6,0.58c0,0,0,0.01,0,0.01
					C266.05,231.87,266.21,231.79,266.34,231.66z"/>
				<path class="st10" d="M268.12,231.55c-0.26-0.13-0.53-0.24-0.81-0.35c-0.02,0.09-0.03,0.17-0.05,0.26
					c-0.03,0.14-0.07,0.31-0.18,0.41c-0.06,0.05-0.12,0.07-0.19,0.09c-0.14,0.03-0.28,0.07-0.42,0.11
					c-0.18,0.04-0.38,0.07-0.56,0.13c0.2,0.05,0.4,0.08,0.6,0.11c0.09,0.01,0.18,0.03,0.26,0.04c0.28-0.04,0.57-0.07,0.86-0.11
					c0.16-0.02,0.33-0.05,0.5-0.07c0.01-0.2,0.03-0.4,0.03-0.59C268.15,231.57,268.13,231.56,268.12,231.55z"/>
				<path class="st10" d="M268.12,232.17c0.01-0.17,0.03-0.43,0.03-0.59c-0.01-0.01-0.02-0.02-0.03-0.03
					c-0.26-0.13-0.53-0.24-0.81-0.35c-0.02,0.09-0.03,0.17-0.05,0.26c-0.03,0.12-0.06,0.28-0.15,0.38
					C267.33,231.88,268,232.14,268.12,232.17z"/>
			</g>
			<g>
				<path class="st9" d="M263.7,232.17c0.28-0.04,0.57-0.07,0.86-0.11c0.17-0.02,0.33-0.05,0.5-0.07c0.01-0.2,0.03-0.4,0.03-0.59
					c-0.01-0.01-0.02-0.02-0.03-0.03c-0.28-0.14-0.58-0.26-0.87-0.37c-0.01,0-0.01,0-0.02-0.01c-0.01,0-0.03,0-0.04,0.01
					c-0.18,0.02-0.36,0.04-0.54,0.07c-0.05,0.05-0.1,0.1-0.15,0.14c-0.2,0.19-0.41,0.37-0.6,0.58c-0.02,0.07-0.03,0.14-0.04,0.2
					c0.21,0.05,0.42,0.09,0.64,0.12C263.53,232.14,263.61,232.16,263.7,232.17z"/>
				<path class="st7" d="M263.27,231.49c0.14-0.13,0.27-0.27,0.44-0.35c0.11-0.05,0.22-0.09,0.34-0.13
					c-0.16,0.02-0.31,0.04-0.47,0.07c-0.05,0.05-0.1,0.1-0.15,0.14c-0.2,0.19-0.41,0.37-0.6,0.58c0,0,0,0.01,0,0.01
					C262.98,231.7,263.14,231.62,263.27,231.49z"/>
				<path class="st10" d="M265.05,231.38c-0.26-0.13-0.53-0.24-0.81-0.34c-0.02,0.09-0.03,0.17-0.05,0.26
					c-0.03,0.14-0.07,0.31-0.18,0.41c-0.06,0.05-0.12,0.07-0.19,0.09c-0.14,0.03-0.28,0.07-0.42,0.1c-0.18,0.04-0.38,0.07-0.56,0.13
					c0.2,0.05,0.4,0.08,0.6,0.11c0.09,0.01,0.17,0.03,0.26,0.04c0.28-0.04,0.57-0.07,0.86-0.11c0.17-0.02,0.33-0.05,0.5-0.07
					c0.01-0.2,0.03-0.4,0.03-0.59C265.07,231.4,265.06,231.39,265.05,231.38z"/>
				<path class="st10" d="M265.05,232c0.01-0.17,0.03-0.43,0.03-0.59c-0.01-0.01-0.02-0.02-0.03-0.03
					c-0.26-0.13-0.53-0.24-0.81-0.34c-0.02,0.09-0.03,0.17-0.05,0.26c-0.03,0.12-0.06,0.28-0.15,0.38
					C264.26,231.71,264.92,231.97,265.05,232z"/>
			</g>
			<g>
				<path class="st9" d="M247.49,233.76c0.68-0.11,1.38-0.17,2.06-0.26c0.4-0.05,0.8-0.12,1.2-0.16c0.03-0.48,0.07-0.95,0.07-1.43
					c-0.02-0.02-0.05-0.05-0.07-0.07c-0.68-0.33-1.39-0.61-2.1-0.89c-0.01,0-0.03-0.01-0.04-0.01c-0.03,0-0.07,0.01-0.1,0.01
					c-0.43,0.06-0.87,0.1-1.3,0.18c-0.12,0.12-0.24,0.24-0.36,0.35c-0.49,0.45-1,0.89-1.43,1.4c-0.04,0.16-0.06,0.33-0.09,0.49
					c0.5,0.13,1.02,0.21,1.53,0.29C247.08,233.69,247.28,233.72,247.49,233.76z"/>
				<path class="st7" d="M246.46,232.12c0.33-0.32,0.64-0.64,1.06-0.84c0.27-0.12,0.54-0.23,0.82-0.31
					c-0.38,0.04-0.75,0.09-1.12,0.16c-0.12,0.12-0.24,0.24-0.36,0.35c-0.49,0.45-1,0.89-1.43,1.4c0,0.01,0,0.02,0,0.03
					C245.75,232.63,246.14,232.43,246.46,232.12z"/>
				<path class="st10" d="M250.75,231.84c-0.63-0.31-1.29-0.57-1.94-0.83c-0.04,0.21-0.07,0.42-0.12,0.62
					c-0.07,0.33-0.16,0.74-0.44,0.98c-0.14,0.12-0.29,0.18-0.47,0.22c-0.34,0.08-0.68,0.17-1.02,0.25c-0.43,0.1-0.92,0.16-1.35,0.31
					c0.47,0.12,0.96,0.2,1.44,0.26c0.21,0.03,0.42,0.06,0.63,0.1c0.68-0.11,1.38-0.17,2.06-0.26c0.4-0.05,0.8-0.12,1.2-0.16
					c0.03-0.48,0.07-0.95,0.07-1.43C250.8,231.89,250.78,231.86,250.75,231.84z"/>
				<path class="st10" d="M250.75,233.34c0.03-0.4,0.07-1.03,0.07-1.43c-0.02-0.02-0.05-0.05-0.07-0.07
					c-0.63-0.31-1.29-0.57-1.94-0.83c-0.04,0.21-0.07,0.42-0.12,0.62c-0.06,0.3-0.15,0.66-0.36,0.9
					C248.84,232.65,250.44,233.26,250.75,233.34z"/>
			</g>
		</g>
		<g>
			<g>
				<path class="st7" d="M319.69,235.67c1.5-0.23,3.01-0.38,4.52-0.56c0.87-0.11,1.75-0.25,2.62-0.36c0.07-1.04,0.16-2.09,0.16-3.13
					c-0.05-0.05-0.1-0.1-0.16-0.15c-1.49-0.73-3.04-1.35-4.59-1.95c-0.03-0.01-0.06-0.02-0.09-0.03c-0.07,0.01-0.15,0.02-0.22,0.03
					c-0.95,0.12-1.91,0.21-2.85,0.4c-0.26,0.26-0.53,0.52-0.79,0.76c-1.07,0.99-2.18,1.95-3.14,3.06c-0.08,0.36-0.14,0.72-0.2,1.08
					c1.1,0.28,2.23,0.46,3.36,0.62C318.78,235.51,319.24,235.58,319.69,235.67z"/>
				<path class="st7" d="M317.91,231.66c0.62-0.58,1.19-1.31,2.02-1.59c0.8-0.27,1.64-0.41,2.49-0.48
					c-0.06-0.02-0.12-0.05-0.18-0.07c-0.03-0.01-0.06-0.02-0.09-0.03c-0.07,0.01-0.15,0.02-0.22,0.03c-0.95,0.12-1.91,0.21-2.85,0.4
					c-0.26,0.26-0.53,0.52-0.79,0.76c-1.02,0.94-2.06,1.85-2.99,2.88C316.2,232.97,317.13,232.4,317.91,231.66z"/>
				<path class="st8" d="M326.84,231.47c-1.38-0.68-2.81-1.26-4.25-1.82c-0.09,0.45-0.16,0.91-0.25,1.35
					c-0.16,0.73-0.36,1.63-0.96,2.14c-0.31,0.26-0.63,0.38-1.02,0.47c-0.75,0.17-1.49,0.37-2.24,0.55
					c-0.94,0.23-2.01,0.35-2.95,0.69c1.04,0.25,2.09,0.43,3.16,0.58c0.46,0.07,0.92,0.14,1.37,0.23c1.5-0.23,3.01-0.38,4.52-0.56
					c0.87-0.11,1.75-0.25,2.62-0.36c0.07-1.04,0.16-2.09,0.16-3.13C326.94,231.57,326.89,231.51,326.84,231.47z"/>
				<path class="st8" d="M326.83,234.75c0.06-0.87,0.16-2.25,0.16-3.13c-0.05-0.05-0.1-0.1-0.16-0.15
					c-1.38-0.68-2.81-1.26-4.25-1.82c-0.09,0.45-0.16,0.91-0.25,1.35c-0.14,0.66-0.32,1.46-0.8,1.98
					C322.64,233.23,326.16,234.58,326.83,234.75z"/>
			</g>
			<g>
				<path class="st9" d="M323.92,242.29c0.41-0.06,0.82-0.1,1.22-0.15c0.24-0.03,0.47-0.07,0.71-0.1c0.02-0.28,0.04-0.56,0.04-0.85
					c-0.01-0.01-0.03-0.03-0.04-0.04c-0.4-0.2-0.82-0.37-1.24-0.53c-0.01,0-0.02,0-0.03-0.01c-0.02,0-0.04,0.01-0.06,0.01
					c-0.26,0.03-0.52,0.06-0.77,0.11c-0.07,0.07-0.14,0.14-0.21,0.21c-0.29,0.27-0.59,0.53-0.85,0.83c-0.02,0.1-0.04,0.19-0.05,0.29
					c0.3,0.08,0.6,0.12,0.91,0.17C323.67,242.25,323.79,242.27,323.92,242.29z"/>
				<path class="st7" d="M323.31,241.32c0.19-0.19,0.38-0.38,0.63-0.5c0.16-0.07,0.32-0.13,0.49-0.18
					c-0.22,0.03-0.45,0.05-0.67,0.09c-0.07,0.07-0.14,0.14-0.21,0.21c-0.29,0.27-0.59,0.53-0.85,0.83c0,0.01,0,0.01,0,0.02
					C322.89,241.62,323.12,241.5,323.31,241.32z"/>
				<path class="st10" d="M325.85,241.15c-0.37-0.18-0.76-0.34-1.15-0.49c-0.02,0.12-0.04,0.25-0.07,0.37
					c-0.04,0.2-0.1,0.44-0.26,0.58c-0.08,0.07-0.17,0.1-0.28,0.13c-0.2,0.05-0.4,0.1-0.61,0.15c-0.25,0.06-0.54,0.09-0.8,0.19
					c0.28,0.07,0.57,0.12,0.85,0.16c0.12,0.02,0.25,0.04,0.37,0.06c0.41-0.06,0.82-0.1,1.22-0.15c0.24-0.03,0.47-0.07,0.71-0.1
					c0.02-0.28,0.04-0.56,0.04-0.85C325.88,241.18,325.86,241.17,325.85,241.15z"/>
				<path class="st10" d="M325.85,242.04c0.02-0.24,0.04-0.61,0.04-0.85c-0.01-0.01-0.03-0.03-0.04-0.04
					c-0.37-0.18-0.76-0.34-1.15-0.49c-0.02,0.12-0.04,0.25-0.07,0.37c-0.04,0.18-0.09,0.39-0.21,0.54
					C324.72,241.63,325.67,242,325.85,242.04z"/>
			</g>
			<g>
				<path class="st9" d="M328.72,235.34c0.28-0.04,0.57-0.07,0.86-0.11c0.16-0.02,0.33-0.05,0.5-0.07c0.01-0.2,0.03-0.4,0.03-0.59
					c-0.01-0.01-0.02-0.02-0.03-0.03c-0.28-0.14-0.58-0.26-0.87-0.37c-0.01,0-0.01,0-0.02,0c-0.01,0-0.03,0-0.04,0.01
					c-0.18,0.02-0.36,0.04-0.54,0.08c-0.05,0.05-0.1,0.1-0.15,0.14c-0.2,0.19-0.41,0.37-0.6,0.58c-0.01,0.07-0.03,0.14-0.04,0.21
					c0.21,0.05,0.42,0.09,0.64,0.12C328.55,235.31,328.63,235.32,328.72,235.34z"/>
				<path class="st7" d="M328.29,234.66c0.14-0.13,0.27-0.27,0.44-0.35c0.11-0.05,0.22-0.09,0.34-0.13
					c-0.16,0.02-0.31,0.04-0.47,0.07c-0.05,0.05-0.1,0.1-0.15,0.14c-0.2,0.19-0.41,0.37-0.6,0.58c0,0,0,0.01,0,0.01
					C328,234.87,328.16,234.79,328.29,234.66z"/>
				<path class="st10" d="M330.08,234.54c-0.26-0.13-0.53-0.24-0.81-0.35c-0.02,0.09-0.03,0.17-0.05,0.26
					c-0.03,0.14-0.07,0.31-0.18,0.41c-0.06,0.05-0.12,0.07-0.19,0.09c-0.14,0.03-0.28,0.07-0.42,0.11
					c-0.18,0.04-0.38,0.07-0.56,0.13c0.2,0.05,0.4,0.08,0.6,0.11c0.09,0.01,0.17,0.03,0.26,0.04c0.28-0.04,0.57-0.07,0.86-0.11
					c0.16-0.02,0.33-0.05,0.5-0.07c0.01-0.2,0.03-0.4,0.03-0.59C330.1,234.56,330.08,234.55,330.08,234.54z"/>
				<path class="st10" d="M330.07,235.16c0.01-0.17,0.03-0.43,0.03-0.59c-0.01-0.01-0.02-0.02-0.03-0.03
					c-0.26-0.13-0.53-0.24-0.81-0.35c-0.02,0.09-0.03,0.17-0.05,0.26c-0.03,0.12-0.06,0.28-0.15,0.38
					C329.28,234.88,329.95,235.13,330.07,235.16z"/>
			</g>
			<g>
				<path class="st9" d="M325.65,235.17c0.28-0.04,0.57-0.07,0.86-0.11c0.17-0.02,0.33-0.05,0.5-0.07c0.01-0.2,0.03-0.4,0.03-0.59
					c-0.01-0.01-0.02-0.02-0.03-0.03c-0.28-0.14-0.58-0.25-0.87-0.37c0,0-0.01,0-0.02-0.01c-0.01,0-0.03,0-0.04,0.01
					c-0.18,0.02-0.36,0.04-0.54,0.08c-0.05,0.05-0.1,0.1-0.15,0.14c-0.2,0.19-0.41,0.37-0.59,0.58c-0.02,0.07-0.03,0.14-0.04,0.21
					c0.21,0.05,0.42,0.09,0.64,0.12C325.48,235.14,325.56,235.15,325.65,235.17z"/>
				<path class="st7" d="M325.22,234.49c0.14-0.13,0.26-0.27,0.44-0.35c0.11-0.05,0.22-0.09,0.34-0.13
					c-0.16,0.02-0.31,0.04-0.47,0.07c-0.05,0.05-0.1,0.1-0.15,0.14c-0.2,0.19-0.41,0.37-0.59,0.58c0,0,0,0.01,0,0.01
					C324.93,234.7,325.09,234.62,325.22,234.49z"/>
				<path class="st10" d="M327,234.37c-0.26-0.13-0.53-0.24-0.81-0.34c-0.02,0.09-0.03,0.17-0.05,0.26
					c-0.03,0.14-0.07,0.31-0.18,0.41c-0.06,0.05-0.12,0.07-0.19,0.09c-0.14,0.03-0.28,0.07-0.42,0.1c-0.18,0.04-0.38,0.07-0.56,0.13
					c0.2,0.05,0.4,0.08,0.6,0.11c0.09,0.01,0.17,0.03,0.26,0.04c0.28-0.04,0.57-0.07,0.86-0.11c0.17-0.02,0.33-0.05,0.5-0.07
					c0.01-0.2,0.03-0.4,0.03-0.59C327.02,234.39,327.01,234.38,327,234.37z"/>
				<path class="st10" d="M327,234.99c0.01-0.17,0.03-0.43,0.03-0.59c-0.01-0.01-0.02-0.02-0.03-0.03
					c-0.26-0.13-0.53-0.24-0.81-0.34c-0.02,0.09-0.03,0.17-0.05,0.26c-0.03,0.12-0.06,0.28-0.15,0.37
					C326.21,234.71,326.88,234.96,327,234.99z"/>
			</g>
			<g>
				<path class="st9" d="M309.44,236.75c0.68-0.11,1.38-0.17,2.06-0.26c0.4-0.05,0.8-0.12,1.2-0.16c0.03-0.48,0.07-0.95,0.07-1.43
					c-0.02-0.02-0.05-0.05-0.07-0.07c-0.68-0.33-1.39-0.61-2.1-0.89c-0.01,0-0.03-0.01-0.04-0.01c-0.03,0-0.07,0.01-0.1,0.01
					c-0.43,0.06-0.87,0.1-1.3,0.18c-0.12,0.12-0.24,0.24-0.36,0.35c-0.49,0.45-1,0.89-1.43,1.4c-0.04,0.16-0.07,0.33-0.09,0.5
					c0.5,0.13,1.02,0.21,1.53,0.28C309.03,236.68,309.23,236.72,309.44,236.75z"/>
				<path class="st7" d="M308.41,235.12c0.33-0.32,0.64-0.64,1.06-0.84c0.27-0.12,0.54-0.23,0.82-0.31
					c-0.38,0.05-0.75,0.09-1.12,0.16c-0.12,0.12-0.24,0.24-0.36,0.35c-0.49,0.45-1,0.89-1.43,1.4c0,0.01,0,0.02-0.01,0.03
					C307.7,235.63,308.09,235.43,308.41,235.12z"/>
				<path class="st10" d="M312.7,234.84c-0.63-0.31-1.29-0.57-1.94-0.83c-0.04,0.21-0.07,0.42-0.11,0.62
					c-0.07,0.33-0.16,0.74-0.44,0.98c-0.14,0.12-0.29,0.18-0.46,0.22c-0.34,0.08-0.68,0.17-1.02,0.25c-0.43,0.1-0.92,0.16-1.35,0.31
					c0.47,0.12,0.95,0.2,1.44,0.26c0.21,0.03,0.42,0.06,0.63,0.1c0.68-0.11,1.38-0.17,2.06-0.26c0.4-0.05,0.8-0.12,1.2-0.16
					c0.03-0.48,0.07-0.95,0.07-1.43C312.75,234.88,312.73,234.86,312.7,234.84z"/>
				<path class="st10" d="M312.7,236.34c0.03-0.4,0.07-1.03,0.07-1.43c-0.02-0.02-0.05-0.05-0.07-0.07
					c-0.63-0.31-1.29-0.57-1.94-0.83c-0.04,0.21-0.07,0.42-0.11,0.62c-0.07,0.3-0.15,0.66-0.36,0.9
					C310.79,235.64,312.4,236.26,312.7,236.34z"/>
			</g>
		</g>
		<g>
			<g>
				<path class="st7" d="M287.41,188.21c1.5-0.23,3.01-0.38,4.52-0.56c0.87-0.11,1.74-0.25,2.62-0.36c0.07-1.04,0.16-2.09,0.16-3.13
					c-0.05-0.05-0.1-0.1-0.15-0.15c-1.49-0.73-3.04-1.35-4.59-1.95c-0.03-0.01-0.06-0.02-0.09-0.03c-0.07,0.01-0.15,0.02-0.22,0.03
					c-0.95,0.12-1.91,0.21-2.85,0.4c-0.26,0.26-0.53,0.52-0.79,0.76c-1.07,0.99-2.18,1.95-3.14,3.06c-0.08,0.36-0.14,0.72-0.2,1.08
					c1.1,0.28,2.23,0.46,3.36,0.62C286.5,188.05,286.96,188.12,287.41,188.21z"/>
				<path class="st7" d="M285.63,184.2c0.61-0.58,1.19-1.32,2.02-1.59c0.8-0.27,1.64-0.41,2.49-0.48c-0.06-0.02-0.12-0.05-0.18-0.07
					c-0.03-0.01-0.06-0.02-0.09-0.03c-0.07,0.01-0.15,0.02-0.22,0.03c-0.95,0.12-1.91,0.21-2.85,0.4c-0.26,0.26-0.53,0.52-0.79,0.76
					c-1.02,0.94-2.06,1.85-2.98,2.88C283.92,185.51,284.85,184.94,285.63,184.2z"/>
				<path class="st8" d="M294.56,184.01c-1.38-0.68-2.81-1.26-4.25-1.82c-0.09,0.45-0.16,0.91-0.25,1.35
					c-0.16,0.73-0.36,1.63-0.96,2.14c-0.31,0.26-0.63,0.38-1.02,0.47c-0.75,0.17-1.49,0.37-2.24,0.55
					c-0.94,0.23-2.01,0.35-2.95,0.69c1.04,0.25,2.09,0.43,3.16,0.58c0.46,0.07,0.92,0.14,1.37,0.23c1.5-0.23,3.01-0.38,4.52-0.56
					c0.87-0.11,1.74-0.25,2.62-0.36c0.07-1.04,0.16-2.09,0.16-3.13C294.66,184.11,294.61,184.06,294.56,184.01z"/>
				<path class="st8" d="M294.55,187.29c0.06-0.88,0.16-2.25,0.16-3.13c-0.05-0.05-0.1-0.1-0.15-0.15
					c-1.38-0.68-2.81-1.26-4.25-1.82c-0.09,0.45-0.16,0.91-0.25,1.35c-0.14,0.66-0.32,1.45-0.8,1.98
					C290.36,185.77,293.88,187.12,294.55,187.29z"/>
			</g>
			<g>
				<path class="st9" d="M291.64,194.83c0.41-0.06,0.82-0.1,1.22-0.15c0.24-0.03,0.47-0.07,0.71-0.1c0.02-0.28,0.04-0.56,0.04-0.85
					c-0.01-0.01-0.03-0.03-0.04-0.04c-0.4-0.2-0.82-0.37-1.24-0.53c-0.01,0-0.02,0-0.03-0.01c-0.02,0-0.04,0.01-0.06,0.01
					c-0.26,0.03-0.52,0.06-0.77,0.11c-0.07,0.07-0.14,0.14-0.21,0.21c-0.29,0.27-0.59,0.53-0.85,0.83c-0.02,0.1-0.04,0.19-0.05,0.29
					c0.3,0.08,0.6,0.12,0.91,0.17C291.39,194.79,291.51,194.81,291.64,194.83z"/>
				<path class="st7" d="M291.02,193.86c0.19-0.19,0.38-0.38,0.63-0.5c0.16-0.07,0.32-0.13,0.48-0.18
					c-0.22,0.03-0.45,0.05-0.67,0.09c-0.07,0.07-0.14,0.14-0.21,0.21c-0.29,0.27-0.59,0.53-0.85,0.83c0,0.01,0,0.01,0,0.02
					C290.61,194.16,290.84,194.04,291.02,193.86z"/>
				<path class="st10" d="M293.57,193.69c-0.37-0.18-0.76-0.34-1.15-0.49c-0.02,0.12-0.04,0.25-0.07,0.37
					c-0.04,0.2-0.1,0.44-0.26,0.58c-0.08,0.07-0.17,0.11-0.28,0.13c-0.2,0.05-0.4,0.1-0.61,0.15c-0.25,0.06-0.54,0.09-0.8,0.19
					c0.28,0.07,0.57,0.11,0.85,0.16c0.12,0.02,0.25,0.04,0.37,0.06c0.41-0.06,0.82-0.1,1.22-0.15c0.24-0.03,0.47-0.07,0.71-0.1
					c0.02-0.28,0.04-0.56,0.04-0.85C293.6,193.72,293.58,193.71,293.57,193.69z"/>
				<path class="st10" d="M293.57,194.58c0.02-0.24,0.04-0.61,0.04-0.85c-0.01-0.01-0.03-0.03-0.04-0.04
					c-0.37-0.18-0.76-0.34-1.15-0.49c-0.02,0.12-0.04,0.25-0.07,0.37c-0.04,0.18-0.09,0.39-0.21,0.54
					C292.44,194.17,293.39,194.54,293.57,194.58z"/>
			</g>
			<g>
				<path class="st9" d="M296.44,187.88c0.28-0.04,0.57-0.07,0.86-0.11c0.16-0.02,0.33-0.05,0.5-0.07c0.01-0.2,0.03-0.4,0.03-0.59
					c-0.01-0.01-0.02-0.02-0.03-0.03c-0.28-0.14-0.58-0.26-0.87-0.37c-0.01,0-0.01,0-0.02,0c-0.01,0-0.03,0-0.04,0.01
					c-0.18,0.02-0.36,0.04-0.54,0.08c-0.05,0.05-0.1,0.1-0.15,0.14c-0.2,0.19-0.41,0.37-0.6,0.58c-0.01,0.07-0.03,0.14-0.04,0.21
					c0.21,0.05,0.42,0.09,0.64,0.12C296.27,187.85,296.35,187.86,296.44,187.88z"/>
				<path class="st7" d="M296.01,187.2c0.14-0.13,0.27-0.27,0.44-0.35c0.11-0.05,0.22-0.09,0.34-0.13
					c-0.16,0.02-0.31,0.04-0.47,0.07c-0.05,0.05-0.1,0.1-0.15,0.14c-0.2,0.19-0.41,0.37-0.6,0.58c0,0,0,0.01,0,0.01
					C295.72,187.41,295.88,187.33,296.01,187.2z"/>
				<path class="st10" d="M297.8,187.08c-0.26-0.13-0.53-0.24-0.81-0.35c-0.02,0.09-0.03,0.17-0.05,0.26
					c-0.03,0.14-0.07,0.31-0.18,0.41c-0.06,0.05-0.12,0.07-0.19,0.09c-0.14,0.03-0.28,0.07-0.43,0.11
					c-0.18,0.04-0.38,0.07-0.56,0.13c0.2,0.05,0.4,0.08,0.6,0.11c0.09,0.01,0.17,0.03,0.26,0.04c0.28-0.04,0.57-0.07,0.86-0.11
					c0.16-0.02,0.33-0.05,0.5-0.07c0.01-0.2,0.03-0.4,0.03-0.59C297.82,187.1,297.8,187.09,297.8,187.08z"/>
				<path class="st10" d="M297.79,187.71c0.01-0.17,0.03-0.43,0.03-0.59c-0.01-0.01-0.02-0.02-0.03-0.03
					c-0.26-0.13-0.53-0.24-0.81-0.35c-0.02,0.09-0.03,0.17-0.05,0.26c-0.03,0.12-0.06,0.28-0.15,0.38
					C297,187.42,297.67,187.67,297.79,187.71z"/>
			</g>
			<g>
				<path class="st9" d="M293.37,187.71c0.28-0.04,0.57-0.07,0.86-0.11c0.17-0.02,0.33-0.05,0.5-0.07c0.01-0.2,0.03-0.4,0.03-0.59
					c-0.01-0.01-0.02-0.02-0.03-0.03c-0.28-0.14-0.58-0.26-0.87-0.37c-0.01,0-0.01,0-0.02-0.01c-0.01,0-0.03,0-0.04,0.01
					c-0.18,0.02-0.36,0.04-0.54,0.07c-0.05,0.05-0.1,0.1-0.15,0.14c-0.2,0.19-0.41,0.37-0.59,0.58c-0.02,0.07-0.03,0.14-0.04,0.2
					c0.21,0.05,0.42,0.09,0.64,0.12C293.2,187.68,293.28,187.69,293.37,187.71z"/>
				<path class="st7" d="M292.94,187.03c0.14-0.13,0.26-0.27,0.44-0.35c0.11-0.05,0.22-0.09,0.34-0.13
					c-0.16,0.02-0.31,0.04-0.47,0.07c-0.05,0.05-0.1,0.1-0.15,0.14c-0.2,0.19-0.41,0.37-0.59,0.58c0,0,0,0.01,0,0.01
					C292.65,187.24,292.81,187.16,292.94,187.03z"/>
				<path class="st10" d="M294.72,186.91c-0.26-0.13-0.53-0.24-0.81-0.34c-0.02,0.09-0.03,0.17-0.05,0.26
					c-0.03,0.14-0.07,0.31-0.18,0.41c-0.06,0.05-0.12,0.07-0.19,0.09c-0.14,0.03-0.28,0.07-0.42,0.1c-0.18,0.04-0.38,0.07-0.56,0.13
					c0.2,0.05,0.4,0.08,0.6,0.11c0.09,0.01,0.17,0.03,0.26,0.04c0.28-0.04,0.57-0.07,0.86-0.11c0.17-0.02,0.33-0.05,0.5-0.07
					c0.01-0.2,0.03-0.4,0.03-0.59C294.74,186.93,294.73,186.92,294.72,186.91z"/>
				<path class="st10" d="M294.72,187.54c0.01-0.17,0.03-0.43,0.03-0.59c-0.01-0.01-0.02-0.02-0.03-0.03
					c-0.26-0.13-0.53-0.24-0.81-0.34c-0.02,0.09-0.03,0.17-0.05,0.26c-0.03,0.12-0.06,0.28-0.15,0.38
					C293.93,187.25,294.59,187.5,294.72,187.54z"/>
			</g>
			<g>
				<path class="st9" d="M277.16,189.3c0.68-0.11,1.38-0.17,2.06-0.26c0.4-0.05,0.8-0.12,1.2-0.16c0.03-0.48,0.07-0.95,0.07-1.43
					c-0.02-0.02-0.05-0.05-0.07-0.07c-0.68-0.33-1.39-0.61-2.1-0.89c-0.01,0-0.03-0.01-0.04-0.01c-0.03,0.01-0.07,0.01-0.1,0.01
					c-0.43,0.06-0.87,0.1-1.3,0.18c-0.12,0.12-0.24,0.24-0.36,0.35c-0.49,0.45-1,0.89-1.43,1.4c-0.04,0.16-0.06,0.33-0.09,0.49
					c0.5,0.13,1.02,0.21,1.53,0.29C276.75,189.22,276.95,189.26,277.16,189.3z"/>
				<path class="st7" d="M276.13,187.66c0.33-0.32,0.64-0.64,1.06-0.84c0.27-0.12,0.54-0.22,0.82-0.31
					c-0.38,0.04-0.75,0.09-1.12,0.16c-0.12,0.12-0.24,0.24-0.36,0.35c-0.49,0.45-1,0.89-1.43,1.4c0,0.01,0,0.02,0,0.03
					C275.42,188.17,275.81,187.97,276.13,187.66z"/>
				<path class="st10" d="M280.42,187.38c-0.63-0.31-1.29-0.57-1.94-0.83c-0.04,0.21-0.07,0.42-0.12,0.62
					c-0.07,0.33-0.16,0.74-0.44,0.98c-0.14,0.12-0.29,0.18-0.47,0.22c-0.34,0.08-0.68,0.17-1.02,0.25c-0.43,0.1-0.92,0.16-1.35,0.31
					c0.47,0.12,0.96,0.2,1.44,0.26c0.21,0.03,0.42,0.06,0.63,0.1c0.68-0.11,1.38-0.17,2.06-0.26c0.4-0.05,0.8-0.12,1.2-0.16
					c0.03-0.48,0.07-0.95,0.07-1.43C280.47,187.42,280.45,187.4,280.42,187.38z"/>
				<path class="st10" d="M280.42,188.88c0.03-0.4,0.07-1.03,0.07-1.43c-0.02-0.02-0.05-0.05-0.07-0.07
					c-0.63-0.31-1.29-0.57-1.94-0.83c-0.04,0.21-0.07,0.42-0.12,0.62c-0.07,0.3-0.15,0.66-0.36,0.9
					C278.51,188.18,280.12,188.8,280.42,188.88z"/>
			</g>
		</g>
	</g>
</g>
</svg>
